Medium.sfdir
StartChar: exclam
Encoding: 33 33 1
Width: 277
Flags: W
HStem: 1 105<95.7705 179.648> 696 20G<125.5 151>
VStem: 85 105<11.3867 95.2295 583.211 705.832> 124 28<188.041 292.421>
LayerCount: 2
Fore
SplineSet
85 53 m 0xe0
 85 84 111 106 138 106 c 0
 165 106 190 84 190 53 c 0
 190 22 164 1 138 1 c 0
 107 1 85 27 85 53 c 0xe0
85 664 m 0
 85 698 113 716 138 716 c 0
 164 716 191 697 191 664 c 0
 191 661 190 657 190 653 c 2xe0
 152 211 l 2
 151 197 148 188 137 188 c 0
 126 188 125 202 124 215 c 2xd0
 86 650 l 2
 86 655 85 660 85 664 c 0
EndSplineSet
EndChar
StartChar: quotedbl
Encoding: 34 34 2
Width: 500
Flags: MW
LayerCount: 2
Fore
SplineSet
119 664 m 0
 119 701 149 710 165 710 c 0
 181 710 212 701 212 664 c 0
 212 653 178 359 177 347 c 1
 154 347 l 1
 148 409 128 580 121 642 c 2
 120 654 119 662 119 664 c 0
287 663 m 0
 287 695 309 710 333 710 c 0
 349 710 379 701 379 664 c 0
 379 662 378 650 376 632 c 6
 369 564 350 407 344 347 c 1
 322 347 l 1
 320 361 287 649 287 663 c 0
EndSplineSet
EndChar
StartChar: numbersign
Encoding: 35 35 3
Width: 832
Flags: MW
LayerCount: 2
Fore
SplineSet
57 153 m 0
 57 164 72 164 83 164 c 2
 261 164 l 1
 308 336 l 1
 80 336 l 2
 69 336 57 337 57 347 c 0
 57 358 73 359 87 359 c 2
 315 359 l 1
 396 655 l 2
 400 669 404 692 416 692 c 0
 423 692 425 687 425 680 c 0
 425 670 421 658 419 650 c 2
 339 359 l 1
 554 359 l 1
 635 655 l 2
 639 669 643 692 654 692 c 0
 661 692 664 687 664 680 c 0
 664 670 660 658 657 650 c 2
 577 359 l 1
 750 359 l 2
 761 359 774 358 775 347 c 1
 774 336 760 336 749 336 c 2
 570 336 l 1
 524 164 l 1
 751 164 l 2
 762 164 775 163 775 153 c 0
 775 142 759 141 745 141 c 2
 517 141 l 1
 435 -155 l 2
 432 -169 428 -192 416 -192 c 0
 409 -192 407 -187 407 -180 c 0
 407 -171 411 -158 413 -150 c 2
 493 141 l 1
 278 141 l 1
 197 -155 l 2
 193 -169 189 -192 178 -192 c 0
 170 -192 168 -187 168 -180 c 0
 168 -171 172 -158 175 -150 c 2
 255 141 l 1
 82 141 l 2
 71 141 57 142 57 153 c 0
285 164 m 1
 500 164 l 1
 547 336 l 1
 332 336 l 1
 285 164 l 1
EndSplineSet
EndChar
StartChar: dollar
Encoding: 36 36 4
Width: 500
Flags: W
HStem: -10 30<171.28 234 265 310.709> 137 91<85.6815 140.384> 319 92<173.141 234> 480 91<358.986 412.715> 673 32<183.561 234 265 332.363>
VStem: 55 92<143.612 220.881> 55 52<474.325 599.465> 234 31<-55 -8.82727 21 311 411 673 704.231 750> 352 91<486.556 562.093> 392 52<102.775 242.742>
LayerCount: 2
Fore
SplineSet
55 177 m 0xfa80
 55 218 84 228 101 228 c 0
 124 228 147 210 147 183 c 0xfa80
 147 158 129 137 102 137 c 0
 96 137 91 138 85 139 c 1
 109 46 178 26 234 20 c 1
 234 319 l 1
 224 321 206 324 185 332 c 4
 153 344 113 366 84 412 c 0
 65 443 55 478 55 513 c 0
 55 585 103 690 234 705 c 1
 234 750 l 1
 265 750 l 1
 265 705 l 1
 416 695 443 584 443 530 c 0
 443 489 414 480 398 480 c 0
 374 480 352 498 352 525 c 0xf7
 352 549 370 571 397 571 c 0
 402 571 407 570 413 569 c 1
 387 651 320 669 265 674 c 1
 265 403 l 1
 293 396 374 384 420 295 c 0
 436 264 444 229 444 195 c 0
 444 91 369 0 265 -10 c 1
 265 -55 l 1
 234 -55 l 1
 234 -10 l 1
 81 0 55 122 55 177 c 0xfa80
107 543 m 0xf6
 107 479 154 439 191 423 c 0
 205 418 220 414 234 411 c 1
 234 673 l 1
 160 665 107 610 107 543 c 0xf6
265 21 m 1
 348 32 392 100 392 165 c 0xf280
 392 227 355 277 307 298 c 0
 294 304 279 307 265 311 c 1
 265 21 l 1
EndSplineSet
EndChar
StartChar: percent
Encoding: 37 37 5
Width: 832
Flags: W
HStem: -56 22<614.673 681.298> 325 22<614.296 681.144> 347 22<171.673 238.298> 619 22<386.452 535.803> 728 22<171.296 238.142>
VStem: 56 62<444.87 651.417> 308 25<464.064 632.828> 499 62<41.8697 248.417> 751 25<61.0642 229.901>
LayerCount: 2
Fore
SplineSet
56 549 m 0xbf80
 56 666 127 750 203 750 c 0
 235 750 256 735 275 718 c 0
 330 666 392 641 462 641 c 0
 535 641 602 668 652 736 c 0
 658 743 663 750 673 750 c 0
 684 750 693 741 693 730 c 0
 693 724 691 721 685 712 c 2
 179 -41 l 2
 171 -52 169 -56 159 -56 c 0
 149 -56 139 -47 139 -36 c 0
 139 -34 139 -29 148 -16 c 2
 597 653 l 1
 596 654 l 1
 590 650 539 619 463 619 c 0
 427 619 377 624 312 661 c 1
 333 609 333 562 333 548 c 0
 333 436 276 347 203 347 c 0
 128 347 56 428 56 549 c 0xbf80
118 548 m 0
 118 382 184 369 204 369 c 0
 256 369 308 441 308 549 c 0
 308 654 257 728 204 728 c 0
 183 728 118 715 118 548 c 0
499 146 m 0
 499 263 570 347 646 347 c 0xdf80
 717 347 776 260 776 145 c 0
 776 33 719 -56 646 -56 c 0
 571 -56 499 25 499 146 c 0
561 145 m 0
 561 -21 627 -34 647 -34 c 0
 699 -34 751 38 751 146 c 0
 751 251 700 325 647 325 c 0
 626 325 561 312 561 145 c 0
EndSplineSet
EndChar
StartChar: ampersand
Encoding: 38 38 6
Width: 776
Flags: W
HStem: -22 31<182.238 307.669 530.78 639.197> 400 31<508 563.973 650.073 727> 694 22<268.741 328.61>
VStem: 42 83<64.3664 199.058> 163 63<435.84 643.664> 361 25<538.567 654.951> 696 25<72.418 121>
LayerCount: 2
Fore
SplineSet
42 128 m 0
 42 159 50 181 65 202 c 0
 77 219 93 235 113 255 c 1
 204 352 l 1
 169 441 163 513 163 555 c 0
 163 661 237 716 299 716 c 0
 370 716 386 633 386 587 c 0
 386 552 366 514 340 477 c 0
 317 445 289 413 264 385 c 1
 308 270 417 133 430 118 c 1
 473 171 518 239 573 336 c 0
 574 339 579 346 579 356 c 0
 579 381 554 400 508 400 c 1
 508 431 l 1
 535 429 619 428 630 428 c 0
 636 428 690 429 727 431 c 1
 727 400 l 1
 678 400 649 389 627 368 c 4
 609 351 596 327 578 298 c 0
 532 219 492 151 446 98 c 1
 478 60 530 9 584 9 c 0
 629 9 693 42 696 121 c 1
 721 121 l 1
 719 35 656 -22 580 -22 c 0
 532 -22 473 -6 404 54 c 1
 367 21 308 -22 223 -22 c 0
 124 -22 42 41 42 128 c 0
125 160 m 0
 125 106 148 9 231 9 c 0
 259 9 321 16 385 73 c 1
 348 110 312 162 293 190 c 0
 250 252 235 282 213 329 c 1
 159 277 125 241 125 160 c 0
226 578 m 0
 226 547 229 489 256 409 c 1
 280 435 361 522 361 588 c 0
 361 590 361 694 301 694 c 0
 266 694 226 662 226 578 c 0
EndSplineSet
EndChar
StartChar: quotesingle
Encoding: 39 39 7
Width: 277
Flags: W
HStem: 690 20G<127.5 147>
VStem: 92 92<588.6 703.632>
LayerCount: 2
Fore
SplineSet
92 664 m 0
 92 697 117 710 138 710 c 0
 156 710 184 700 184 664 c 0
 184 655 182 639 181 627 c 2
 150 347 l 1
 127 347 l 1
 93 649 l 2
 93 654 92 659 92 664 c 0
EndSplineSet
EndChar
StartChar: parenleft
Encoding: 40 40 8
Width: 387
Flags: MW
LayerCount: 2
Fore
SplineSet
99 250 m 0
 99 334 111 445 162 555 c 0
 221 682 311 750 321 750 c 0
 327 750 331 747 331 740 c 0
 331 737 331 735 318 723 c 0
 195 598 157 424 157 250 c 0
 157 173 165 87 189 4 c 4
 212 -78 252 -156 314 -218 c 0
 331 -235 331 -237 331 -240 c 0
 331 -247 327 -250 321 -250 c 0
 311 -250 225 -185 165 -62 c 0
 110 51 99 172 99 250 c 0
EndSplineSet
EndChar
StartChar: asterisk
Encoding: 42 42 10
Width: 500
Flags: MW
LayerCount: 2
Fore
SplineSet
65 441 m 0
 65 453 69 460 88 469 c 2
 227 535 l 1
 86 601 l 2
 69 609 65 617 65 628 c 0
 65 641 76 656 92 656 c 0
 98 656 100 656 114 645 c 2
 238 555 l 1
 237 573 227 668 224 708 c 2
 224 717 223 723 223 725 c 0
 223 738 234 750 250 750 c 0
 263 750 276 740 276 725 c 1
 275 710 l 2
 261 555 l 1
 372 637 l 2
 398 656 400 656 407 656 c 0
 423 656 434 641 434 628 c 0
 434 616 430 609 411 600 c 2
 272 534 l 1
 413 468 l 2
 430 460 434 452 434 441 c 0
 434 428 423 413 407 413 c 0
 399 413 396 416 391 419 c 0
 386 422 311 478 261 514 c 1
 262 504 266 468 269 432 c 2
 273 391 276 349 276 344 c 0
 276 331 265 319 249 319 c 0
 236 319 223 329 223 344 c 1
 225 366 l 2
 238 514 l 1
 115 425 l 2
 98 413 l 5
 65 413 65 439 65 441 c 0
EndSplineSet
EndChar
StartChar: plus
Encoding: 43 43 11
Width: 777
Flags: MW
LayerCount: 2
Fore
SplineSet
57 250 m 0
 57 261 69 261 95 261 c 2
 377 261 l 1
 377 544 l 2
 377 547 376 552 376 557 c 0
 376 568 378 581 388 581 c 0
 395 581 398 574 399 566 c 4
 399 563 400 560 400 557 c 2
 400 261 l 1
 682 261 l 2
 685 261 690 262 696 262 c 0
 707 262 719 260 719 250 c 0
 719 240 707 238 695 238 c 0
 690 238 685 239 682 239 c 2
 400 239 l 1
 400 -58 l 2
 400 -69 398 -81 388 -81 c 0
 378 -81 376 -68 376 -57 c 0
 376 -52 377 -47 377 -44 c 2
 377 239 l 1
 95 239 l 2
 91 239 86 238 80 238 c 0
 69 238 57 240 57 250 c 0
EndSplineSet
EndChar
StartChar: hyphen
Encoding: 45 45 13
Width: 332
Flags: W
HStem: 186 59<10 276>
VStem: 10 266<186 245>
LayerCount: 2
Fore
SplineSet
10 186 m 1
 10 245 l 1
 276 245 l 1
 276 186 l 1
 10 186 l 1
EndSplineSet
EndChar
StartChar: period
Encoding: 46 46 14
Width: 277
Flags: W
HStem: 0 105<95.7705 179.648>
VStem: 85 105<10.7705 94.6133>
LayerCount: 2
Fore
SplineSet
85 53 m 0
 85 80 107 105 138 105 c 0
 165 105 190 84 190 53 c 0
 190 22 164 0 138 0 c 0
 107 0 85 26 85 53 c 0
EndSplineSet
EndChar
StartChar: zero
Encoding: 48 48 16
Width: 500
Flags: W
HStem: -22 22<205.027 294.023> 644 22<203.199 295.911>
VStem: 39 83<134.994 506.511> 377 83<133.868 504.883>
LayerCount: 2
Fore
SplineSet
39 320 m 0
 39 400 44 478 76 547 c 1
 117 640 190 666 250 666 c 0
 292 666 374 650 420 554 c 0
 455 480 460 400 460 320 c 0
 460 241 455 163 423 94 c 0
 379 -1 303 -22 249 -22 c 0
 200 -22 127 -2 84 79 c 0
 43 155 39 245 39 320 c 0
122 332 m 0
 122 273 122 181 133 121 c 0
 151 25 210 0 249 0 c 0
 294 0 351 30 366 125 c 0
 377 189 377 257 377 332 c 0
 377 395 377 471 367 527 c 0
 348 626 282 644 249 644 c 0
 224 644 149 635 130 516 c 0
 122 462 122 396 122 332 c 0
EndSplineSet
EndChar
StartChar: two
Encoding: 50 50 18
Width: 500
Flags: MW
LayerCount: 2
Fore
SplineSet
50 0 m 1
 50 7 50 12 50 16 c 6
 50 26 53 29 61 37 c 2
 253 251 l 2
 308 313 358 392 358 472 c 0
 358 554 315 635 224 635 c 0
 166 635 112 598 89 533 c 1
 92 534 94 534 102 534 c 0
 137 534 155 508 155 482 c 0
 155 441 120 429 103 429 c 0
 100 429 50 429 50 485 c 0
 50 574 124 666 237 666 c 0
 359 666 449 586 449 472 c 0
 449 372 389 318 233 180 c 1
 127 77 l 1
 307 77 l 2
 329 77 395 77 402 85 c 1
 412 100 419 144 424 174 c 1
 449 174 l 1
 421 0 l 1
 50 0 l 1
EndSplineSet
EndChar
StartChar: three
Encoding: 51 51 19
Width: 500
Flags: W
HStem: -22 28<166.653 289.799> 82 111<88 143.13> 337 26<167.13 270.172> 478 101<109 162.381> 641 25<175.846 290.251>
VStem: 42 112<94.3312 181.851> 69 102<486.49 570.772> 338 92<447.683 592.876> 354 103<88.5857 252.459>
LayerCount: 2
Fore
SplineSet
42 135 m 0xfc80
 42 179 74 193 98 193 c 0
 127 193 154 173 154 137 c 0
 154 99 123 77 88 82 c 1
 123 23 198 6 241 6 c 0
 285 6 354 35 354 171 c 0xfc80
 354 269 317 337 235 337 c 2
 191 337 l 2
 174 337 167 337 167 348 c 0
 167 358 174 359 182 360 c 0
 189 360 213 362 221 363 c 0
 246 364 280 367 310 415 c 1
 336 459 338 517 338 529 c 0
 338 619 283 641 242 641 c 0
 206 641 140 628 109 579 c 1
 124 579 171 579 171 529 c 0
 171 500 151 478 120 478 c 0
 91 478 69 497 69 530 c 0
 69 606 145 666 246 666 c 0
 342 666 430 610 430 528 c 0xfb
 430 449 372 379 290 352 c 1
 394 331 457 253 457 171 c 0
 457 69 366 -22 244 -22 c 0
 135 -22 42 44 42 135 c 0xfc80
EndSplineSet
EndChar
StartChar: four
Encoding: 52 52 20
Width: 500
Flags: MW
LayerCount: 2
Fore
SplineSet
28 165 m 1
 28 196 l 1
 335 665 l 2
 343 677 346 677 355 677 c 0
 371 677 371 671 371 651 c 2
 371 196 l 1
 471 196 l 1
 471 165 l 1
 371 165 l 1
 371 78 l 2
 371 58 372 46 385 39 c 4
 396 33 414 31 447 31 c 2
 468 31 l 1
 468 0 l 1
 427 3 374 3 332 3 c 0
 290 3 238 3 197 0 c 1
 197 31 l 1
 218 31 l 2
 257 31 276 34 285 42 c 0
 294 49 294 61 294 78 c 2
 294 165 l 1
 28 165 l 1
56 196 m 1
 300 196 l 1
 300 569 l 1
 56 196 l 1
EndSplineSet
EndChar
StartChar: five
Encoding: 53 53 21
Width: 500
Flags: W
HStem: -22 28<168.567 283.943> 116 98<82.444 141.278> 398 22<198.868 294.933> 551 83<138.168 316.008>
VStem: 50 99<124.367 206.09> 101 31<369 564> 360 89<106.39 300.974>
LayerCount: 2
Fore
SplineSet
50 161 m 0xfa
 50 207 85 214 99 214 c 0
 132 214 149 189 149 165 c 0xfa
 149 141 132 116 99 116 c 0
 88 116 85 117 82 118 c 1
 99 59 156 6 229 6 c 0
 275 6 312 32 336 71 c 1
 360 113 360 173 360 208 c 0
 360 258 358 297 342 334 c 0
 334 352 309 398 257 398 c 0
 176 398 139 344 128 328 c 0
 124 322 122 319 115 319 c 0
 101 319 101 327 101 345 c 2
 101 641 l 2
 101 657 101 665 111 665 c 0
 113 665 115 665 123 662 c 0
 170 641 216 634 256 634 c 0
 323 634 372 654 392 663 c 0
 397 666 399 666 400 666 c 0
 407 666 410 661 410 655 c 0
 410 642 340 551 217 551 c 0
 185 551 152 558 132 564 c 1
 132 369 l 1xf6
 168 404 211 420 259 420 c 0
 367 420 449 320 449 201 c 0
 449 74 347 -22 231 -22 c 0
 119 -22 50 75 50 161 c 0xfa
EndSplineSet
EndChar
StartChar: six
Encoding: 54 54 22
Width: 500
Flags: W
HStem: -22 28<203.923 303.131> 404 23<208.615 302.902> 510 91<346.484 395> 641 25<254.423 363.304>
VStem: 42 92<143.308 455.753> 340 92<516.382 595.276> 367 90<101.632 306.488>
LayerCount: 2
Fore
SplineSet
42 316 m 0xfa
 42 537 177 666 305 666 c 0
 388 666 432 618 432 558 c 0
 432 519 402 510 386 510 c 0
 364 510 340 525 340 556 c 0xfc
 340 601 380 601 395 601 c 1
 373 635 331 641 307 641 c 0
 277 641 221 628 180 565 c 0
 152 522 132 455 132 352 c 2
 132 328 l 1
 152 376 189 427 257 427 c 0
 368 427 457 331 457 204 c 0
 457 72 362 -22 251 -22 c 0
 194 -22 129 4 87 85 c 5
 60 137 42 212 42 316 c 0xfa
134 226 m 0
 134 208 134 128 152 81 c 0
 158 66 188 6 251 6 c 0
 274 6 320 11 350 71 c 0
 367 107 367 157 367 205 c 0xfa
 367 254 367 305 349 342 c 0
 318 404 272 404 256 404 c 0
 166 404 134 304 134 226 c 0
EndSplineSet
EndChar
StartChar: seven
Encoding: 55 55 23
Width: 500
Flags: W
HStem: 567 77<116.529 411> 656 20G<85.7961 115>
VStem: 56 25<470 513.697> 176 92<-16.3774 184.688>
LayerCount: 2
Fore
SplineSet
56 470 m 1
 89 676 l 1
 114 676 l 1
 116 664 118 654 148 649 c 5
 167 646 196 644 242 644 c 2
 485 644 l 1
 485 623 485 621 476 609 c 2
 341 419 l 2
 297 357 283 271 279 248 c 0
 271 194 268 139 268 84 c 2
 268 33 l 2
 268 23 268 -22 222 -22 c 0
 176 -22 176 23 176 33 c 0
 176 135 209 274 299 409 c 0
 321 442 400 551 411 567 c 1
 204 567 l 2
 191 567 113 567 106 561 c 0
 93 549 84 486 81 470 c 1
 56 470 l 1
EndSplineSet
EndChar
StartChar: eight
Encoding: 56 56 24
Width: 500
Flags: W
HStem: -22 28<184.133 319.584> 641 25<186.874 307.878>
VStem: 42 50<78.3891 231.551> 69 44<481.094 578.203> 386 44<446.907 582.676> 407 50<84.3536 196.218>
LayerCount: 2
Fore
SplineSet
42 151 m 0xe4
 42 250 128 306 186 335 c 1
 161 352 124 377 113 389 c 0
 71 436 69 481 69 499 c 0
 69 592 150 666 250 666 c 0
 341 666 430 609 430 517 c 0xd8
 430 451 381 399 309 362 c 1
 373 322 389 312 408 291 c 0
 446 249 457 204 457 168 c 0
 457 61 362 -22 249 -22 c 0
 144 -22 42 45 42 151 c 0xe4
92 151 m 0xe4
 92 68 164 6 250 6 c 0
 332 6 407 58 407 132 c 0
 407 193 360 223 332 242 c 1
 209 320 l 1
 124 273 92 209 92 151 c 0xe4
113 538 m 0xd8
 113 521 117 487 163 457 c 2
 287 377 l 1
 347 412 386 460 386 517 c 0
 386 589 322 641 249 641 c 0
 178 641 113 599 113 538 c 0xd8
EndSplineSet
EndChar
StartChar: nine
Encoding: 57 57 25
Width: 500
Flags: W
HStem: -22 28<136.304 259.978> 42 92<107 152.626> 218 23<195.942 289.438> 641 25<201.209 296.751>
VStem: 42 90<338.33 543.56> 67 92<48.595 127.618> 367 90<183.812 503.589>
LayerCount: 2
Fore
SplineSet
42 441 m 0xfa
 42 516 65 558 106 603 c 1
 149 648 198 666 253 666 c 0
 342 666 457 598 457 329 c 0
 457 114 335 -22 206 -22 c 0
 121 -22 67 19 67 86 c 0
 67 125 97 134 113 134 c 0
 135 134 159 119 159 88 c 0xf6
 159 71 151 42 107 42 c 1
 134 8 188 6 205 6 c 0
 239 6 289 22 325 83 c 4
 350 125 367 190 367 286 c 2
 367 318 l 1
 344 260 303 218 242 218 c 0
 130 218 42 316 42 441 c 0xfa
132 440 m 0xfa
 132 391 132 341 150 304 c 0
 181 241 227 241 243 241 c 0
 331 241 365 338 365 421 c 0
 365 467 361 530 349 562 c 0
 332 607 299 641 253 641 c 0
 218 641 180 628 153 578 c 0
 132 541 132 494 132 440 c 0xfa
EndSplineSet
EndChar
StartChar: colon
Encoding: 58 58 26
Width: 276
Flags: MW
LayerCount: 2
Fore
SplineSet
86 53 m 0
 86 82 110 106 139 106 c 0
 168 106 192 82 192 53 c 0
 192 24 168 0 139 0 c 0
 110 0 86 24 86 53 c 0
86 378 m 0
 86 407 110 431 139 431 c 0
 168 431 192 407 192 378 c 0
 192 349 168 325 139 325 c 0
 110 325 86 349 86 378 c 0
EndSplineSet
EndChar
StartChar: semicolon
Encoding: 59 59 27
Width: 277
Flags: MW
LayerCount: 2
Fore
SplineSet
86 53 m 0
 86 79 104 106 139 106 c 0
 179 106 203 65 203 1 c 0
 203 -114 124 -193 112 -193 c 0
 107 -193 102 -189 102 -182 c 0
 102 -178 103 -177 109 -171 c 0
 153 -124 181 -63 181 1 c 0
 181 15 180 16 179 16 c 2
 177 14 l 1
 167 6 155 0 139 0 c 0
 103 0 86 27 86 53 c 0
85 378 m 0
 85 405 107 430 138 430 c 0
 165 430 190 409 190 378 c 0
 190 347 164 325 138 325 c 0
 107 325 85 351 85 378 c 0
EndSplineSet
EndChar
StartChar: less
Encoding: 60 60 28
Width: 777
Flags: W
HStem: -29 29<668 690.198>
LayerCount: 2
Fore
SplineSet
85 250 m 1
 86 259 95 263 101 266 c 2
 656 519 l 2
 664 523 673 529 681 529 c 0
 686 529 691 525 691 519 c 0
 691 510 680 506 668 500 c 2
 180 276 l 2
 161 268 142 259 122 250 c 1
 142 241 161 232 180 224 c 2
 668 0 l 2
 686 -8 691 -11 691 -19 c 0
 691 -25 686 -29 681 -29 c 0
 673 -29 664 -23 656 -19 c 2
 101 234 l 2
 95 237 86 241 85 250 c 1
EndSplineSet
EndChar
StartChar: greater
Encoding: 62 62 30
Width: 777
Flags: MW
LayerCount: 2
Fore
SplineSet
85 -19 m 0
 85 -11 91 -8 109 0 c 2
 597 224 l 2
 616 232 635 241 655 250 c 1
 635 259 616 268 597 276 c 2
 109 500 l 2
 98 505 85 510 85 519 c 0
 85 524 90 529 96 529 c 0
 104 529 113 523 121 519 c 2
 676 266 l 2
 681 263 692 259 692 250 c 0
 691 241 684 238 663 228 c 2
 121 -19 l 2
 113 -23 103 -29 96 -29 c 0
 90 -29 85 -25 85 -19 c 0
EndSplineSet
EndChar
StartChar: question
Encoding: 63 63 31
Width: 471
Flags: W
HStem: 0 106<179.609 264.391> 524 91<92 141.944> 683 22<162.092 282.833>
VStem: 56 92<530.223 608.411> 169 106<10.6089 95.3911> 210 25<187.018 323.897> 332 83<499.732 639.086>
LayerCount: 2
Fore
SplineSet
56 572 m 0xf6
 56 637 118 705 226 705 c 0
 375 705 415 628 415 570 c 0
 415 528 394 492 367 472 c 0
 332 446 235 375 235 249 c 2
 235 214 l 2
 235 196 235 187 222 187 c 0
 210 187 210 193 210 211 c 2
 210 256 l 2
 210 317 232 409 298 481 c 1
 316 499 332 517 332 576 c 0
 332 615 332 683 223 683 c 0
 181 683 123 668 92 615 c 1
 106 615 148 615 148 570 c 0
 148 544 130 524 102 524 c 0
 79 524 56 538 56 572 c 0xf6
169 53 m 0xfa
 169 82 193 106 222 106 c 0
 251 106 275 82 275 53 c 0
 275 24 251 0 222 0 c 0
 193 0 169 24 169 53 c 0xfa
EndSplineSet
EndChar
StartChar: at
Encoding: 64 64 32
Width: 776
Flags: MW
LayerCount: 2
Fore
SplineSet
56 347 m 0
 56 546 206 705 389 705 c 0
 550 705 721 572 721 338 c 0
 721 231 707 128 619 128 c 0
 581 128 529 147 519 199 c 1
 489 157 441 128 387 128 c 0
 284 128 189 221 189 347 c 0
 189 473 284 566 387 566 c 0
 426 566 478 552 524 489 c 0
 530 482 531 481 547 481 c 2
 564 481 l 2
 587 481 588 480 588 457 c 2
 588 216 l 2
 588 201 588 150 623 150 c 0
 689 150 696 240 696 332 c 0
 696 573 525 683 388 683 c 0
 224 683 81 538 81 347 c 0
 81 168 211 11 393 11 c 0
 487 11 580 35 665 75 c 0
 670 78 672 78 688 78 c 2
 697 78 l 2
 713 78 720 78 720 68 c 0
 720 65.6653588252 717.445054962 62.926184686 713.000000456 59.9315995796 c 4
 686.981755992 42.4033899113 596.206208091 16.1245095595 574 11 c 0
 510 -4 446 -11 394 -11 c 0
 194 -11 56 159 56 347 c 0
258 347 m 0
 258 236 318 150 390 150 c 0
 410 150 461 156 505 219 c 0
 519 240 519 244 519 262 c 2
 519 432 l 2
 519 450 519 453 506 472 c 0
 470 528 422 544 390 544 c 0
 317 544 258 458 258 347 c 0
EndSplineSet
EndChar
StartChar: B
Encoding: 66 66 34
Width: 707
Flags: MW
LayerCount: 2
Fore
SplineSet
36 0 m 1
 36 31 l 1
 60 31 l 2
 96 31 115 33 126 39 c 4
 138 46 139 59 139 78 c 2
 139 605 l 2
 139 624 138 637 126 644 c 0
 115 650 96 652 60 652 c 2
 36 652 l 1
 36 683 l 1
 402 683 l 2
 532 683 624 601 624 514 c 0
 624 440 555 376 458 357 c 1
 569 345 651 270 651 183 c 0
 651 89 561 0 428 0 c 2
 36 0 l 1
222 71 m 2
 222 38 224 31 271 31 c 2
 396 31 l 2
 499 31 551 113 551 184 c 0
 551 227 534 282 494 315 c 0
 473 333 445 344 410 344 c 2
 222 344 l 1
 222 71 l 2
222 366 m 1
 367 366 l 2
 478 366 527 450 527 514 c 0
 527 567 492 652 395 652 c 2
 271 652 l 2
 224 652 222 645 222 612 c 2
 222 366 l 1
EndSplineSet
EndChar
StartChar: C
Encoding: 67 67 35
Width: 721
Flags: W
HStem: -22 31<335.313 489.838> 674 31<334.79 488.01>
VStem: 56 103<214.685 467.376> 633 32<420.002 501.272> 640 25<166.392 249.995>
LayerCount: 2
Fore
SplineSet
56 342 m 0xe8
 56 546 217 705 404 705 c 0
 500 705 551 655 588 619 c 1
 638 693 l 2
 646 705 650 705 654 705 c 0
 665 705 665 698 665 681 c 2xe8
 665 444 l 2
 665 423 665 420 649 420 c 0
 635 420 635 423 633 437 c 0xf0
 613 583 524 674 415 674 c 0
 376 674 285 660 223 576 c 0
 186 526 159 452 159 341 c 0
 159 237 182 165 216 116 c 4
 279 23 376 9 416 9 c 0
 525 9 632 91 640 234 c 0
 641 244 641 250 652 250 c 0
 665 250 665 243 665 233 c 0
 665 117 567 -22 404 -22 c 0
 218 -22 56 135 56 342 c 0xe8
EndSplineSet
EndChar
StartChar: D
Encoding: 68 68 36
Width: 762
Flags: MW
LayerCount: 2
Fore
SplineSet
35 0 m 1
 35 31 l 1
 59 31 l 2
 96 31 115 33 126 40 c 4
 137 47 138 59 138 78 c 2
 138 605 l 2
 138 624 137 636 126 643 c 0
 115 650 96 652 59 652 c 2
 35 652 l 1
 35 683 l 1
 401 683 l 2
 572 683 707 526 707 336 c 0
 707 148 569 0 401 0 c 2
 35 0 l 1
224 71 m 2
 224 38 226 31 273 31 c 2
 374 31 l 2
 475 31 532 89 552 116 c 0
 588 165 607 225 607 336 c 0
 607 414 598 500 555 559 c 0
 504 630 435 652 373 652 c 2
 273 652 l 2
 226 652 224 645 224 612 c 2
 224 71 l 2
EndSplineSet
EndChar
StartChar: E
Encoding: 69 69 37
Width: 679
Flags: W
HStem: 0 31<33 130.733 227.165 510.422> 338 31<225 391.799> 649 31<33 130.733 227.165 508.96>
VStem: 136 89<36.1642 338 369 643.836> 423 25<221 301.856 404.721 486>
LayerCount: 2
Fore
SplineSet
33 0 m 1
 33 31 l 1
 57 31 l 2
 134 31 136 42 136 78 c 2
 136 602 l 2
 136 638 134 649 57 649 c 2
 33 649 l 1
 33 680 l 1
 596 680 l 1
 624 455 l 1
 599 455 l 1
 583 594 556 649 403 649 c 2
 274 649 l 2
 227 649 225 642 225 609 c 2
 225 369 l 1
 315 369 l 2
 412 369 423 400 423 486 c 1
 448 486 l 1
 448 221 l 1
 423 221 l 1
 423 306 412 338 315 338 c 2
 225 338 l 1
 225 71 l 2
 225 38 227 31 274 31 c 2
 407 31 l 2
 579 31 602 104 627 258 c 1
 652 258 l 1
 610 0 l 1
 33 0 l 1
EndSplineSet
EndChar
StartChar: F
Encoding: 70 70 38
Width: 651
Flags: W
HStem: 0 31<33 130.733 232.133 353> 325 31<225 386.727> 649 31<33 130.733 227.165 497.578>
VStem: 136 89<37.4874 325 356 643.836> 417 25<208 290.887 390.528 473>
LayerCount: 2
Fore
SplineSet
33 0 m 1
 33 31 l 1
 57 31 l 2
 134 31 136 42 136 78 c 2
 136 602 l 2
 136 638 134 649 57 649 c 2
 33 649 l 1
 33 680 l 1
 582 680 l 1
 610 455 l 1
 585 455 l 1
 569 593 544 649 394 649 c 2
 274 649 l 2
 227 649 225 642 225 609 c 2
 225 356 l 1
 311 356 l 2
 407 356 417 389 417 473 c 1
 442 473 l 1
 442 208 l 1
 417 208 l 1
 417 293 407 325 311 325 c 2
 225 325 l 1
 225 79 l 2
 225 44 225 31 320 31 c 2
 353 31 l 1
 353 0 l 1
 317 3 226 3 185 3 c 0
 146 3 68 3 33 0 c 1
EndSplineSet
EndChar
StartChar: G
Encoding: 71 71 39
Width: 783
Flags: MW
LayerCount: 2
Fore
SplineSet
56 342 m 0
 56 547 218 705 404 705 c 0
 503 705 557 651 589 619 c 1
 639 693 l 2
 647 705 651 705 655 705 c 0
 666 705 666 698 666 681 c 2
 666 444 l 2
 666 423 666 420 650 420 c 0
 636 420 636 423 634 437 c 0
 614 584 523 674 416 674 c 0
 380 674 293 662 231 587 c 0
 190 538 159 461 159 342 c 0
 159 237 183 165 218 115 c 0
 282 24 380 9 422 9 c 0
 443 9 521 14 558 65 c 4
 570 81 577 103 577 130 c 2
 577 194 l 2
 577 231 574 242 484 242 c 2
 452 242 l 1
 452 273 l 1
 488 270 573 270 613 270 c 0
 643 270 698 272 735 273 c 1
 735 242 l 1
 670 242 666 237 666 198 c 2
 666 24 l 2
 666 9 666 1 657 1 c 0
 646 1 606 41 593 63 c 1
 559 4 479 -22 406 -22 c 0
 216 -22 56 137 56 342 c 0
EndSplineSet
EndChar
StartChar: H
Encoding: 72 72 40
Width: 750
Flags: MW
LayerCount: 2
Fore
SplineSet
33 0 m 1
 33 31 l 1
 57 31 l 2
 94 31 113 33 124 40 c 0
 135 47 136 59 136 78 c 2
 136 605 l 2
 136 625 135 637 122 644 c 0
 111 650 92 652 57 652 c 2
 33 652 l 1
 33 683 l 1
 68 680 143 680 181 680 c 0
 219 680 293 680 328 683 c 1
 328 652 l 1
 304 652 l 2
 263 652 244 649 234 641 c 0
 225 634 225 622 225 605 c 2
 225 371 l 1
 524 371 l 1
 524 605 l 2
 524 626 523 638 508 645 c 4
 497 650 478 652 445 652 c 2
 421 652 l 1
 421 683 l 1
 456 680 531 680 569 680 c 0
 607 680 681 680 716 683 c 1
 716 652 l 1
 692 652 l 2
 654 652 634 649 624 642 c 0
 614 635 613 623 613 605 c 2
 613 78 l 2
 613 61 613 49 622 42 c 0
 632 34 651 31 692 31 c 2
 716 31 l 1
 716 0 l 1
 681 3 606 3 568 3 c 0
 530 3 456 3 421 0 c 1
 421 31 l 1
 445 31 l 2
 484 31 504 33 514 41 c 0
 524 48 524 60 524 78 c 2
 524 340 l 1
 225 340 l 1
 225 78 l 2
 225 59 226 46 238 39 c 0
 249 33 268 31 304 31 c 2
 328 31 l 1
 328 0 l 1
 293 3 218 3 180 3 c 0
 142 3 68 3 33 0 c 1
EndSplineSet
EndChar
StartChar: J
Encoding: 74 74 42
Width: 512
Flags: MW
LayerCount: 2
Fore
SplineSet
41 112 m 0
 41 156 75 170 97 170 c 0
 125 170 153 150 153 114 c 0
 153 88 141 58 89 58 c 1
 125 0 193 0 199 0 c 0
 252 0 302 56 302 148 c 2
 302 604 l 2
 302 639 302 652 204 652 c 2
 168 652 l 1
 168 683 l 1
 206 680 294 680 336 680 c 0
 383 680 421 681 465 683 c 1
 465 652 l 1
 402 652 388 652 388 611 c 2
 388 167 l 2
 388 133 388 131 387 123 c 0
 376 48 303 -22 201 -22 c 0
 112 -22 41 38 41 112 c 0
EndSplineSet
EndChar
StartChar: K
Encoding: 75 75 43
Width: 776
Flags: MW
LayerCount: 2
Fore
SplineSet
33 0 m 1
 33 31 l 1
 57 31 l 2
 94 31 113 33 124 40 c 4
 135 47 136 59 136 78 c 2
 136 605 l 2
 136 624 135 636 124 643 c 0
 113 650 94 652 57 652 c 2
 33 652 l 1
 33 683 l 1
 68 680 143 680 181 680 c 0
 219 680 293 680 328 683 c 1
 328 652 l 1
 304 652 l 2
 263 652 244 649 234 641 c 0
 225 634 225 622 225 605 c 2
 225 287 l 1
 538 586 l 2
 546 593 556 603 556 619 c 0
 556 628 550 651 510 652 c 1
 510 683 l 1
 544 680 601 680 637 680 c 0
 664 680 696 680 722 683 c 1
 722 652 l 1
 713 652 704 651 696 650 c 0
 630 640 587 599 580 592 c 2
 400 419 l 1
 631 79 l 2
 657 40 676 32 717 31 c 0
 723 31 729 31 736 31 c 1
 736 0 l 1
 694 2 656 3 621 3 c 0
 583 3 513 3 478 0 c 1
 478 31 l 1
 498 31 537 31 537 61 c 0
 537 73 528 86 522 95 c 2
 341 363 l 1
 225 253 l 1
 225 78 l 2
 225 62 225 51 232 44 c 0
 241 34 260 31 304 31 c 2
 328 31 l 1
 328 0 l 1
 293 3 218 3 180 3 c 0
 142 3 68 3 33 0 c 1
EndSplineSet
EndChar
StartChar: L
Encoding: 76 76 44
Width: 625
Flags: MW
LayerCount: 2
Fore
SplineSet
33 0 m 1
 33 31 l 1
 57 31 l 2
 96 31 116 33 126 41 c 4
 136 48 136 60 136 78 c 2
 136 605 l 2
 136 625 135 637 122 644 c 0
 111 650 92 652 57 652 c 2
 33 652 l 1
 33 683 l 1
 68 680 146 680 185 680 c 0
 226 680 317 680 353 683 c 1
 353 652 l 1
 320 652 l 2
 276 652 253 649 240 643 c 0
 225 635 225 622 225 604 c 2
 225 71 l 2
 225 38 227 31 274 31 c 2
 356 31 l 2
 532 31 546 156 557 258 c 1
 582 258 l 1
 554 0 l 1
 33 0 l 1
EndSplineSet
EndChar
StartChar: M
Encoding: 77 77 45
Width: 915
Flags: MW
LayerCount: 2
Fore
SplineSet
37 0 m 1
 37 31 l 1
 55 31 70 33 82 35 c 0
 103 39 117 47 125 56 c 0
 140 72 140 91 140 105 c 2
 140 605 l 2
 140 624 139 636 128 643 c 0
 117 650 98 652 61 652 c 2
 37 652 l 1
 37 683 l 1
 206 683 l 2
 229 683 232 683 241 661 c 2
 458 101 l 1
 677 664 l 2
 684 682 684 683 710 683 c 2
 879 683 l 1
 879 652 l 1
 855 652 l 2
 816 652 796 650 786 642 c 0
 776 635 776 623 776 605 c 2
 776 78 l 2
 776 60 776 48 786 41 c 4
 796 33 816 31 855 31 c 2
 879 31 l 1
 879 0 l 1
 842 3 775 3 736 3 c 0
 697 3 629 3 592 0 c 1
 592 31 l 1
 616 31 l 2
 660 31 679 34 688 44 c 0
 695 51 695 62 695 78 c 2
 695 652 l 1
 694 652 l 1
 448 19 l 2
 444 8 441 0 430 0 c 0
 420 0 415 9 410 22 c 2
 169 644 l 1
 168 644 l 1
 168 105 l 2
 168 91 168 72 182 57 c 0
 190 48 204 39 226 35 c 0
 238 33 253 31 271 31 c 1
 271 0 l 1
 236 1 187 3 154 3 c 0
 121 3 72 1 37 0 c 1
EndSplineSet
EndChar
StartChar: P
Encoding: 80 80 48
Width: 679
Flags: MW
LayerCount: 2
Fore
SplineSet
35 0 m 1
 35 31 l 1
 59 31 l 2
 98 31 118 33 128 41 c 0
 138 48 138 60 138 78 c 2
 138 605 l 2
 138 624 137 636 126 643 c 0
 115 650 96 652 59 652 c 2
 35 652 l 1
 35 683 l 1
 388 683 l 2
 525 683 624 595 624 497 c 0
 624 397 516 316 396 316 c 2
 227 316 l 1
 227 78 l 2
 227 62 227 51 234 44 c 4
 243 34 262 31 306 31 c 2
 330 31 l 1
 330 0 l 1
 295 3 220 3 182 3 c 0
 144 3 70 3 35 0 c 1
224 342 m 1
 362 342 l 2
 521 342 521 450 521 497 c 0
 521 546 521 652 362 652 c 2
 273 652 l 2
 226 652 224 645 224 612 c 2
 224 342 l 1
EndSplineSet
EndChar
StartChar: Q
Encoding: 81 81 49
Width: 776
Flags: MW
LayerCount: 2
Fore
SplineSet
56 339 m 0
 56 545 209 705 388 705 c 0
 570 705 721 543 721 339 c 0
 721 188 636 60 518 7 c 1
 542 -57 567 -91 614 -91 c 0
 657 -91 699 -61 705 -7 c 0
 706 3 707 11 716 11 c 0
 727 11 727 0 727 -10 c 0
 727 -61 708 -194 606 -194 c 0
 513 -194 499 -102 484 -7 c 1
 455 -16 420 -22 389 -22 c 0
 207 -22 56 137 56 339 c 0
156 339 m 0
 156 109 268 36 322 16 c 1
 321 18 308 37 308 64 c 0
 308 105 339 148 390 148 c 0
 422 148 446 133 465 111 c 0
 481 92 493 68 503 42 c 1
 609 120 621 261 621 339 c 0
 621 429 604 498 578 550 c 0
 530 644 450 680 388 680 c 0
 327 680 244 644 196 544 c 0
 172 493 156 426 156 339 c 0
330 64 m 0
 330 49 338 3 389 3 c 0
 411 3 443 7 477 26 c 1
 471 56 463 81 449 99 c 4
 435 116 416 126 390 126 c 0
 351 126 330 93 330 64 c 0
EndSplineSet
EndChar
StartChar: T
Encoding: 84 84 52
Width: 721
Flags: MW
LayerCount: 2
Fore
SplineSet
36 452 m 1
 55 677 l 1
 666 677 l 1
 685 452 l 1
 660 452 l 1
 646 613 631 646 480 646 c 0
 461 646 434 646 423 644 c 0
 405 640 405 626 405 606 c 2
 405 79 l 2
 405 61 405 49 420 41 c 4
 434 34 460 31 510 31 c 2
 550 31 l 1
 550 0 l 1
 509 3 406 3 360 3 c 0
 314 3 212 3 171 0 c 1
 171 31 l 1
 211 31 l 2
 268 31 294 35 306 44 c 0
 316 52 316 63 316 79 c 2
 316 606 l 2
 316 629 316 640 295 644 c 0
 285 646 259 646 241 646 c 0
 90 646 75 613 61 452 c 1
 36 452 l 1
EndSplineSet
EndChar
StartChar: V
Encoding: 86 86 54
Width: 750
Flags: W
HStem: 652 31<19 104.017 213.31 289 519 572.72 663.112 730>
LayerCount: 2
Fore
SplineSet
19 652 m 1
 19 683 l 1
 55 682 98 680 146 680 c 0
 184 680 253 680 289 683 c 1
 289 652 l 1
 264 652 207 652 207 623 c 0
 207 621 207 619 213 605 c 2
 404 100 l 1
 587 582 l 2
 589 588 592 594 592 602 c 0
 592 625 571 651 519 652 c 1
 519 683 l 1
 545 682 603 680 633 680 c 0
 659 680 699 681 730 683 c 1
 730 652 l 1
 723 652 716 651 710 651 c 4
 656 645 634 618 621 585 c 2
 398 -3 l 2
 393 -17 391 -22 374 -22 c 0
 361 -22 356 -19 349 0 c 2
 117 614 l 2
 103 652 84 652 19 652 c 1
EndSplineSet
EndChar
StartChar: W
Encoding: 87 87 55
Width: 1026
Flags: MW
LayerCount: 2
Fore
SplineSet
18 652 m 1
 18 683 l 1
 59 682 102 680 140 680 c 0
 178 680 246 680 282 683 c 1
 282 652 l 1
 256 652 198 652 198 622 c 0
 198 619 199 612 200 609 c 2
 361 117 l 1
 500 546 l 1
 478 616 l 2
 466 652 445 652 388 652 c 1
 388 683 l 1
 429 682 472 680 510 680 c 0
 548 680 616 680 652 683 c 1
 652 652 l 1
 626 652 568 652 568 622 c 0
 568 617 570 611 571 607 c 2
 731 117 l 1
 881 579 l 2
 883 585 886 593 886 599 c 0
 886 618 866 651 799 652 c 1
 799 683 l 1
 825 682 889 680 918 680 c 0
 948 680 979 681 1009 683 c 1
 1009 652 l 1
 994 652 979 651 964 646 c 4
 941 638 920 620 909 585 c 2
 718 -2 l 2
 714 -15 712 -22 698 -22 c 0
 685 -22 682 -12 679 -3 c 2
 513 506 l 1
 348 -2 l 2
 344 -15 342 -22 328 -22 c 0
 315 -22 312 -12 309 -3 c 2
 109 610 l 2
 97 647 93 652 18 652 c 1
EndSplineSet
EndChar
StartChar: X
Encoding: 88 88 56
Width: 750
Flags: W
HStem: 0 31<24 109.97 216.193 263 450 505.771 632.514 726> 652 31<37 131.136 257.229 313 445 491 597.134 684>
LayerCount: 2
Fore
SplineSet
24 0 m 1
 24 31 l 1
 38 31 51 33 62 34 c 0
 88 37 108 44 123 53 c 4
 149 68 161 86 169 97 c 2
 333 339 l 1
 149 617 l 2
 130 645 111 652 56 652 c 2
 37 652 l 1
 37 683 l 1
 74 681 136 680 167 680 c 0
 205 680 278 680 313 683 c 1
 313 652 l 1
 270 651 248 634 248 622 c 0
 248 618 253 610 255 607 c 2
 384 414 l 1
 498 583 l 2
 505 594 507 596 507 606 c 0
 507 629 485 651 445 652 c 1
 445 683 l 1
 485 680 533 680 573 680 c 0
 598 680 645 682 684 683 c 1
 684 652 l 1
 674 652 665 651 657 650 c 0
 634 648 615 644 600 638 c 0
 569 625 552 606 539 587 c 2
 402 386 l 1
 613 67 l 2
 634 36 655 31 707 31 c 2
 726 31 l 1
 726 0 l 1
 684 2 638 3 596 3 c 0
 558 3 485 3 450 0 c 1
 450 31 l 1
 493 32 515 49 515 61 c 0
 515 64 512 68 510 72 c 2
 352 311 l 1
 210 101 l 2
 203 90 200 86 200 77 c 0
 200 59 217 32 263 31 c 1
 263 0 l 1
 227 3 172 3 135 3 c 0
 102 3 60 1 24 0 c 1
EndSplineSet
EndChar
StartChar: Z
Encoding: 90 90 58
Width: 610
Flags: W
HStem: 0 34<159 433.047> 652 31<195.391 452>
VStem: 69 25<458 535.984> 535 25<166.678 267>
LayerCount: 2
Fore
SplineSet
56 17 m 0
 56 25 56 26 63 37 c 2
 452 652 l 1
 295 652 l 2
 131 652 101 571 94 458 c 1
 69 458 l 1
 80 683 l 1
 528 683 l 2
 548 683 554 683 554 667 c 0
 554 660 554 659 547 648 c 2
 159 34 l 1
 323 34 l 2
 508 34 527 128 535 267 c 1
 560 267 l 1
 543 0 l 1
 82 0 l 2
 61 0 56 0 56 17 c 0
EndSplineSet
EndChar
StartChar: bracketleft
Encoding: 91 91 59
Width: 277
Flags: MW
LayerCount: 2
Fore
SplineSet
104 -250 m 1
 104 750 l 1
 255 750 l 1
 255 727 l 1
 171 727 l 1
 171 -227 l 1
 255 -227 l 1
 255 -250 l 1
 104 -250 l 1
EndSplineSet
EndChar
StartChar: backslash
Encoding: 92 92 60
Width: 500
Flags: W
VStem: 57 26<727 746.931> 415 27<-247.215 -225>
LayerCount: 2
Fore
SplineSet
57 736 m 0
 57 743 61 748 66 748 c 0
 76 748 81 732 83 727 c 2
 437 -218 l 2
 439 -224 442 -231 442 -236 c 0
 442 -243 438 -248 432 -248 c 0
 422 -248 417 -230 415 -225 c 2
 61 721 l 2
 57 731 57 733 57 736 c 0
EndSplineSet
EndChar
StartChar: bracketright
Encoding: 93 93 61
Width: 277
Flags: W
HStem: -250 23<21 105> 727 23<21 105>
VStem: 105 67<-227 727>
LayerCount: 2
Fore
SplineSet
21 -227 m 1
 105 -227 l 1
 105 727 l 1
 21 727 l 1
 21 750 l 1
 172 750 l 1
 172 -250 l 1
 21 -250 l 1
 21 -227 l 1
EndSplineSet
EndChar
StartChar: asciicircum
Encoding: 94 94 62
Width: 610
Flags: MW
LayerCount: 2
Fore
SplineSet
117 484 m 1
 304 628 l 1
 492 484 l 1
 477 463 l 1
 304 575 l 1
 132 463 l 1
 117 484 l 1
EndSplineSet
EndChar
StartChar: underscore
Encoding: 95 95 63
Width: 777
Flags: MW
LayerCount: 2
Fore
SplineSet
84 -213 m 0
 84 -197 99 -193 114 -193 c 2
 662 -193 l 2
 676 -193 692 -195 692 -213 c 0
 692 -230 675 -232 664 -233 c 1
 113 -233 l 2
 89 -233 84 -221 84 -213 c 0
EndSplineSet
EndChar
StartChar: b
Encoding: 98 98 66
Width: 554
Flags: W
HStem: -11 22<245.638 342.862> 0 21G<106 131.5> 420 22<250.97 350.755> 652 31<28 98.4185> 674 20G<28 172>
VStem: 106 66<65.2175 365.947 377 646.709> 438 83<119.535 315.512>
LayerCount: 2
Fore
SplineSet
28 652 m 1x7e
 28 683 l 1
 172 694 l 1
 172 377 l 1
 188 395 231 442 309 442 c 0
 423 442 521 343 521 216 c 0
 521 87 417 -11 298 -11 c 0xbe
 224 -11 182 39 167 62 c 1
 140 15 132 1 131 0 c 1
 106 0 l 1
 106 596 l 2
 106 645 98 652 28 652 c 1x7e
175 114 m 2
 175 96 175 93 189 72 c 0
 213 35 249 11 294 11 c 0
 348 11 386 44 407 75 c 0
 436 120 438 180 438 217 c 0
 438 258 435 315 409 356 c 0
 385 394 349 420 304 420 c 0
 280 420 225 412 186 356 c 0
 175 340 175 339 175 320 c 2
 175 114 l 2
EndSplineSet
EndChar
StartChar: c
Encoding: 99 99 67
Width: 443
Flags: W
HStem: -11 25<207.085 314.526> 294 92<318.603 359> 423 25<204.328 318.919>
VStem: 34 83<117.321 314.234> 312 92<300.401 378.719> 389 26<87.7871 128.997>
LayerCount: 2
Fore
SplineSet
34 216 m 0xf4
 34 340 126 448 251 448 c 0
 328 448 404 409 404 341 c 0
 404 311 384 294 358 294 c 0
 330 294 312 314 312 340 c 0xf8
 312 353 318 383 359 386 c 1
 324 422 261 423 252 423 c 0
 199 423 117 381 117 218 c 0
 117 57 205 14 258 14 c 0
 295 14 360 26 389 119 c 0
 391 125 393 129 402 129 c 0
 405 129 415 129 415 119 c 0
 415 109 383 -11 249 -11 c 0
 133 -11 34 88 34 216 c 0xf4
EndSplineSet
EndChar
StartChar: d
Encoding: 100 100 68
Width: 554
Flags: W
HStem: -11 22<204.245 302.06> 0 31<456.581 527> 420 22<212.282 311.016> 652 31<305 375.419> 674 20G<305 449>
VStem: 34 83<115.488 311.465> 380 69<36.2905 55 66.1779 373.709 380 647.663>
LayerCount: 2
Fore
SplineSet
34 215 m 0xbe
 34 344 139 442 257 442 c 0
 311 442 354 416 383 380 c 1
 383 596 l 2
 383 645 375 652 305 652 c 1
 305 683 l 1
 449 694 l 1
 449 87 l 2
 449 38 457 31 527 31 c 1
 527 0 l 1x7e
 380 -11 l 1
 380 55 l 1
 355 23 310 -11 246 -11 c 0
 132 -11 34 88 34 215 c 0xbe
117 214 m 0
 117 173 120 116 146 75 c 0
 170 37 206 11 251 11 c 0xbe
 294 11 339 33 369 81 c 0
 380 98 380 100 380 118 c 2
 380 323 l 2
 380 341 380 343 369 360 c 0
 338 405 296 420 261 420 c 0
 207 420 169 387 148 356 c 0
 119 311 117 251 117 214 c 0
EndSplineSet
EndChar
StartChar: e
Encoding: 101 101 69
Width: 443
Flags: W
HStem: -11 25<200.371 309.106> 231 21<112 349> 426 22<193.379 281.003>
VStem: 28 83<122.175 231 252 318.446> 349 66<252 353.625> 389 26<90.6622 130.996>
LayerCount: 2
Fore
SplineSet
28 220 m 0xf4
 28 345 120 448 236 448 c 0
 285 448 323 433 351 409 c 4
 395 371 415 312 415 252 c 0xf8
 415 231 412 231 390 231 c 2
 111 231 l 1
 111 195 111 129 141 81 c 0
 164 44 204 14 254 14 c 0
 264 14 354 14 389 117 c 0
 391 125 393 131 402 131 c 0
 407 131 415 129 415 119 c 0
 415 100 370 -11 248 -11 c 0
 133 -11 28 86 28 220 c 0xf4
112 252 m 1
 349 252 l 1
 349 291 339 426 236 426 c 0
 215 426 173 416 144 371 c 0
 127 345 114 307 112 252 c 1
EndSplineSet
EndChar
StartChar: f
Encoding: 102 102 70
Width: 304
Flags: MW
LayerCount: 2
Fore
SplineSet
33 400 m 1
 33 431 l 1
 112 431 l 1
 112 546 l 2
 112 652 197 705 267 705 c 0
 320 705 357 672 357 635 c 0
 357 611 342 591 313 591 c 0
 286 591 270 611 270 634 c 0
 270 659 288 672 300 676 c 1
 285 683 270 683 267 683 c 0
 223 683 175 635 175 547 c 2
 175 431 l 1
 292 431 l 1
 292 400 l 1
 178 400 l 1
 178 78 l 2
 178 42 180 31 254 31 c 2
 275 31 l 1
 275 0 l 1
 235 3 188 3 148 3 c 0
 120 3 73 1 34 0 c 1
 34 31 l 1
 101 31 112 31 112 76 c 2
 112 400 l 1
 33 400 l 1
EndSplineSet
EndChar
StartChar: h
Encoding: 104 104 72
Width: 554
Flags: MW
LayerCount: 2
Fore
SplineSet
32 0 m 1
 32 31 l 1
 70 31 90 31 100 39 c 0
 108 45 110 56 110 76 c 2
 110 596 l 2
 110 645 102 652 32 652 c 1
 32 683 l 1
 176 694 l 1
 176 346 l 1
 177 346 l 1
 193 382 237 442 321 442 c 0
 379 442 412 422 426 405 c 0
 457 369 457 338 457 252 c 2
 457 61 l 1
 458 31 483 31 535 31 c 1
 535 0 l 1
 501 1 449 3 423 3 c 0
 396 3 345 1 310 0 c 1
 310 31 l 1
 348 31 368 31 378 39 c 4
 386 45 388 56 388 76 c 2
 388 309 l 2
 388 366 377 420 314 420 c 0
 250 420 179 364 179 260 c 2
 179 76 l 2
 179 56 181 44 190 38 c 0
 201 31 220 31 257 31 c 1
 257 0 l 1
 223 1 171 3 145 3 c 0
 118 3 67 1 32 0 c 1
EndSplineSet
EndChar
StartChar: i
Encoding: 105 105 73
Width: 276
Flags: W
HStem: 0 31<33 106.404 180.774 247> 400 31<37 104.079> 422 20G<37 177> 563 106<85.7705 170.867>
VStem: 75 106<573.462 658.309> 111 66<34.0171 395.048>
LayerCount: 2
Fore
SplineSet
33 0 m 1xf4
 33 31 l 1
 100 31 111 31 111 76 c 2
 111 345 l 2
 111 394 102 400 37 400 c 1
 37 431 l 1
 177 442 l 1
 177 75 l 2
 177 36 181 31 247 31 c 1
 247 0 l 1
 213 1 178 3 143 3 c 0
 119 3 65 1 33 0 c 1xf4
75 616 m 0xf8
 75 642 97 669 128 669 c 0
 156 669 181 648 181 616 c 0
 181 584 156 563 128 563 c 0
 97 563 75 589 75 616 c 0xf8
EndSplineSet
EndChar
StartChar: j
Encoding: 106 106 74
Width: 304
Flags: W
HStem: -205 22<21.6851 103.655> 400 31<58 136.363> 422 20G<58 210> 563 106<114.609 199.391>
VStem: -40 92<-163.091 -84.9654> 104 106<573.609 658.391> 144 66<-134.375 394.096>
LayerCount: 2
Fore
SplineSet
-40 -125 m 0xfa
 -40 -99 -22 -79 6 -79 c 0
 34 -79 52 -99 52 -125 c 0
 52 -152 32 -166 17 -170 c 1
 43 -183 66 -183 71 -183 c 0
 135 -183 144 -97 144 -52 c 2
 144 344 l 2
 144 374 141 389 120 395 c 4
 107 399 88 400 58 400 c 1
 58 431 l 1
 210 442 l 1
 210 -50 l 2
 210 -141 148 -205 73 -205 c 0
 16 -205 -40 -177 -40 -125 c 0xfa
104 616 m 0xfc
 104 645 128 669 157 669 c 0
 186 669 210 645 210 616 c 0
 210 587 186 563 157 563 c 0
 128 563 104 587 104 616 c 0xfc
EndSplineSet
EndChar
StartChar: k
Encoding: 107 107 75
Width: 526
Flags: W
HStem: 0 31<28 101.404 173.596 247 316 350.812 449.021 511> 400 31<306 332.902 424.016 488> 652 31<28 98.4185> 674 20G<28 172>
VStem: 106 66<34.0171 179 214 646.709>
LayerCount: 2
Fore
SplineSet
28 0 m 1
 28 31 l 1
 95 31 106 31 106 76 c 2
 106 596 l 2
 106 645 98 652 28 652 c 1
 28 683 l 1
 172 694 l 1
 172 214 l 1
 313 336 l 2
 321 343 335 355 335 375 c 0
 335 388 325 399 306 400 c 1
 306 431 l 1
 320 430 382 428 418 428 c 0
 446 428 459 428 488 431 c 1
 488 400 l 1
 467 399 425 397 362 346 c 0
 352 338 281 278 281 274 c 0
 281 271 286 265 287 263 c 2
 414 84 l 2
 445 41 466 33 492 31 c 6
 498 31 504 31 511 31 c 1
 511 0 l 1
 482 2 453 3 424 3 c 0
 403 3 344 1 316 0 c 1
 316 31 l 1
 335 31 352 35 352 54 c 0
 352 61 343 78 334 92 c 0
 296 149 280 169 233 234 c 1
 169 179 l 1
 169 76 l 2
 169 31 180 31 247 31 c 1
 247 0 l 1
 207 2 167 3 137 3 c 0
 108 3 61 1 28 0 c 1
EndSplineSet
EndChar
StartChar: l
Encoding: 108 108 76
Width: 276
Flags: MW
LayerCount: 2
Fore
SplineSet
33 0 m 1
 33 31 l 1
 70 31 89 31 100 38 c 0
 109 44 111 56 111 76 c 2
 111 596 l 2
 111 645 103 652 33 652 c 1
 33 683 l 1
 177 694 l 1
 177 76 l 2
 177 54 180 43 190 37 c 4
 201 31 221 31 255 31 c 1
 255 0 l 1
 218 1 169 3 144 3 c 0
 119 3 66 1 33 0 c 1
EndSplineSet
EndChar
StartChar: p
Encoding: 112 112 80
Width: 554
Flags: MW
LayerCount: 2
Fore
SplineSet
28 -163 m 1
 95 -163 106 -163 106 -118 c 2
 106 350 l 2
 106 394 99 400 28 400 c 1
 28 431 l 1
 172 442 l 1
 172 376 l 1
 192 398 234 442 312 442 c 0
 424 442 521 343 521 216 c 0
 521 87 417 -11 298 -11 c 0
 222 -11 180 43 175 59 c 1
 175 50 l 1
 175 -118 l 2
 175 -163 186 -163 253 -163 c 1
 253 -194 l 1
 218 -193 167 -191 140 -191 c 0
 114 -191 62 -193 28 -194 c 1
 28 -163 l 1
175 114 m 2
 175 94 175 93 189 72 c 0
 216 31 254 11 294 11 c 0
 368 11 438 95 438 216 c 0
 438 329 377 417 304 417 c 0
 253 417 204 388 175 337 c 1
 175 337 l 1
 175 114 l 2
EndSplineSet
EndChar
StartChar: q
Encoding: 113 113 81
Width: 526
Flags: MW
LayerCount: 2
Fore
SplineSet
34 215 m 0
 34 345 139 442 255 442 c 0
 335 442 376 379 389 351 c 1
 427 442 l 1
 449 442 l 1
 449 -118 l 2
 449 -141 452 -153 464 -158 c 4
 475 -163 495 -163 527 -163 c 1
 527 -194 l 1
 492 -193 441 -191 414 -191 c 0
 388 -191 336 -193 302 -194 c 1
 302 -163 l 1
 337 -163 357 -163 368 -156 c 0
 378 -150 380 -139 380 -118 c 2
 380 61 l 1
 358 32 317 -11 247 -11 c 0
 131 -11 34 90 34 215 c 0
117 215 m 0
 117 100 178 11 251 11 c 0
 298 11 330 38 343 52 c 0
 365 76 383 104 383 136 c 2
 383 277 l 2
 383 330 341 417 261 417 c 0
 187 417 117 334 117 215 c 0
EndSplineSet
EndChar
StartChar: r
Encoding: 114 114 82
Width: 390
Flags: W
HStem: 0 31<28 101.404 177.088 269> 400 31<28 98.4185> 420 22<247.606 300.378>
VStem: 106 66<35.9118 394.709> 278 86<342.484 417.946>
LayerCount: 2
Fore
SplineSet
28 0 m 1xb8
 28 31 l 1
 95 31 106 31 106 76 c 2
 106 344 l 2
 106 393 98 400 28 400 c 1
 28 431 l 1xd8
 167 442 l 1
 167 332 l 1
 181 375 217 442 290 442 c 0
 333 442 364 413 364 381 c 0
 364 349 339 337 321 337 c 0
 299 337 278 352 278 380 c 0
 278 406 298 418 301 419 c 1
 299 420 297 420 290 420 c 0
 214 420 172 331 172 232 c 2
 172 78 l 2
 172 42 174 31 248 31 c 2
 269 31 l 1
 269 0 l 1
 229 3 182 3 142 3 c 0
 114 3 67 1 28 0 c 1xb8
EndSplineSet
EndChar
StartChar: t
Encoding: 116 116 84
Width: 387
Flags: MW
LayerCount: 2
Fore
SplineSet
19 400 m 1
 19 422 l 1
 117 426 147 533 148 615 c 1
 173 615 l 1
 173 431 l 1
 316 431 l 1
 316 400 l 1
 173 400 l 1
 173 122 l 2
 173 105 173 14 240 14 c 0
 277 14 307 52 307 126 c 2
 307 181 l 1
 332 181 l 1
 332 124 l 2
 332 60 304 -11 233 -11 c 0
 197 -11 104 1 104 124 c 2
 104 400 l 1
 19 400 l 1
EndSplineSet
EndChar
StartChar: u
Encoding: 117 117 85
Width: 554
Flags: MW
LayerCount: 2
Fore
SplineSet
32 400 m 1
 32 431 l 1
 179 442 l 1
 179 110 l 2
 179 58 183 11 267 11 c 0
 340 11 388 79 388 166 c 2
 388 344 l 2
 388 393 380 400 310 400 c 1
 310 431 l 1
 457 442 l 1
 457 87 l 2
 457 38 465 31 535 31 c 1
 535 0 l 1
 391 -11 l 1
 391 79 l 1
 362 17 318 -11 262 -11 c 0
 110 -11 110 80 110 158 c 2
 110 308 l 2
 110 397 110 400 32 400 c 1
EndSplineSet
EndChar
StartChar: v
Encoding: 118 118 86
Width: 526
Flags: W
HStem: 400 31<19 87.374 171.152 225 346 383.875 453.926 508>
LayerCount: 2
Fore
SplineSet
19 400 m 1
 19 431 l 1
 49 429 89 428 116 428 c 0
 139 428 195 430 225 431 c 1
 225 400 l 1
 207 400 168 400 168 374 c 0
 168 372 168 370 174 357 c 2
 286 78 l 1
 388 333 l 2
 392 344 394 348 394 357 c 0
 394 376 383 399 346 400 c 1
 346 431 l 1
 363 430 409 428 433 428 c 0
 456 428 485 429 508 431 c 1
 508 400 l 1
 442 399 425 356 416 333 c 2
 285 8 l 2
 281 -2 277 -11 264 -11 c 0
 251 -11 249 -6 243 8 c 2
 99 363 l 2
 86 394 82 400 19 400 c 1
EndSplineSet
EndChar
StartChar: x
Encoding: 120 120 88
Width: 526
Flags: W
HStem: 0 31<12 81.6352 164.375 190 312 345.089 436.876 516> 400 31<17 95.4668 187.343 220 320 345.668 426.928 498>
LayerCount: 2
Fore
SplineSet
12 0 m 1
 12 31 l 1
 33 31 92 33 140 91 c 1
 234 210 l 1
 135 339 l 2
 88 399 87 400 17 400 c 1
 17 431 l 1
 44 429 91 428 112 428 c 0
 128 428 194 430 220 431 c 1
 220 400 l 1
 200 399 185 390 185 375 c 0
 185 369 185 367 194 357 c 1
 272 256 l 1
 334 334 l 2
 339 340 349 353 349 369 c 0
 349 385 341 398 320 400 c 1
 320 431 l 1
 333 430 386 428 416 428 c 0
 442 428 472 429 498 431 c 1
 498 400 l 1
 451 399 410 384 379 348 c 1
 355 322 317 273 287 235 c 1
 421 62 l 2
 444 33 462 31 516 31 c 1
 516 0 l 1
 486 2 447 3 420 3 c 0
 398 3 342 1 312 0 c 1
 312 31 l 1
 339 32 348 47 348 56 c 0
 348 62 335 78 327 89 c 2
 251 189 l 1
 207 137 180 106 168 84 c 5
 163 75 161 68 161 62 c 0
 161 47 168 34 190 31 c 1
 190 0 l 1
 166 1 124 3 95 3 c 0
 69 3 38 2 12 0 c 1
EndSplineSet
EndChar
StartChar: y
Encoding: 121 121 89
Width: 526
Flags: MW
LayerCount: 2
Fore
SplineSet
19 -124 m 0
 19 -94 41 -81 61 -81 c 0
 84 -81 103 -97 103 -123 c 0
 103 -139 95 -161 64 -165 c 1
 83 -183 106 -183 111 -183 c 0
 175 -183 203 -114 225 -59 c 0
 231 -46 245 -13 250 0 c 1
 100 365 l 2
 86 400 67 400 19 400 c 1
 19 431 l 1
 49 429 89 428 116 428 c 0
 133 428 199 430 225 431 c 1
 225 400 l 1
 206 400 169 400 169 374 c 0
 169 370 171 366 175 356 c 2
 286 87 l 1
 387 333 l 2
 392 345 393 347 393 357 c 0
 393 382 377 399 346 400 c 1
 346 431 l 1
 368 430 415 428 433 428 c 0
 456 428 485 429 508 431 c 1
 508 400 l 1
 492 400 441 399 415 336 c 2
 239 -91 l 2
 215 -148 174 -205 111 -205 c 0
 61 -205 19 -169 19 -124 c 0
EndSplineSet
EndChar
StartChar: z
Encoding: 122 122 90
Width: 443
Flags: MW
LayerCount: 2
Fore
SplineSet
28 14 m 0
 28 19 28 21 37 32 c 2
 316 409 l 1
 202 409 l 2
 92 409 73 372 67 270 c 1
 42 270 l 1
 53 431 l 1
 373 431 l 2
 391 431 399 431 399 418 c 0
 399 414 399 412 390 401 c 2
 112 25 l 1
 230 25 l 2
 346 25 367 69 376 187 c 1
 401 187 l 1
 384 0 l 1
 54 0 l 2
 35 0 28 0 28 14 c 0
EndSplineSet
EndChar
StartChar: braceleft
Encoding: 123 123 91
Width: 500
Flags: W
HStem: -250 24<355.589 424.988> 720 30<338.325 424.16>
VStem: 214 70<-175.853 187.118 312.628 678.199>
LayerCount: 2
Fore
SplineSet
73 250 m 0
 73 264 87 260 111 265 c 0
 155 273 204 305 212 357 c 0
 214 367 214 376 214 386 c 2
 214 604 l 2
 214 630 214 672 262 708 c 0
 284 724 336 750 407 750 c 0
 422 750 425 743 425 739 c 0
 425 724 401 730 369 720 c 0
 289 694 284 634 284 611 c 2
 284 385 l 2
 284 354 282 281 165 250 c 1
 278 221 284 148 284 121 c 2
 284 -101 l 2
 284 -113 284 -125 286 -137 c 0
 295 -180 338 -219 401 -226 c 0
 408 -227 425 -227 425 -238 c 0
 425 -248 417 -250 407 -250 c 2
 406 -250 l 2
 326 -250 225 -214 215 -131 c 0
 214 -121 214 -112 214 -102 c 2
 214 117 l 2
 214 151 203 175 188 193 c 4
 161 225 119 235 105 237 c 0
 91 239 73 237 73 250 c 0
EndSplineSet
EndChar
StartChar: bar
Encoding: 124 124 92
Width: 277
Flags: W
VStem: 118 40<-248.985 748.989>
LayerCount: 2
Fore
SplineSet
118 -219 m 2
 118 712 l 2
 118 734 120 749 138 749 c 0
 146 749 158 745 158 719 c 2
 158 -212 l 2
 158 -237 155 -249 138 -249 c 0
 119 -249 118 -228 118 -219 c 2
EndSplineSet
EndChar
StartChar: braceright
Encoding: 125 125 93
Width: 500
Flags: MW
LayerCount: 2
Fore
SplineSet
73 -239 m 0
 73 -223 97 -230 129 -220 c 0
 187 -201 205 -163 211 -136 c 0
 213 -126 214 -117 214 -111 c 2
 214 115 l 2
 214 136 210 218 333 250 c 1
 222 278 214 352 214 378 c 2
 214 601 l 2
 214 613 214 625 212 637 c 0
 203 680 160 719 97 726 c 0
 90 727 73 727 73 738 c 0
 73 748 81 750 91 750 c 2
 92 750 l 2
 172 750 274 715 283 631 c 0
 284 621 284 612 284 602 c 2
 284 383 l 2
 284 287 370 267 393 263 c 0
 407 261 425 262 425 250 c 0
 425 236 411 240 386 235 c 0
 343 227 295 195 286 143 c 0
 284 133 284 123 284 114 c 2
 284 -104 l 2
 284 -130 285 -172 236 -208 c 0
 192 -241 133 -250 96 -250 c 4
 94 -250 92 -250 91 -250 c 0
 75 -250 73 -243 73 -239 c 0
EndSplineSet
EndChar
StartChar: asciitilde
Encoding: 126 126 94
Width: 610
Flags: W
HStem: 574 46<315.995 470.214> 621 47<139.526 294.005>
LayerCount: 2
Fore
SplineSet
83 588 m 1
 116 626 144 668 208 668 c 0
 278 668 342 620 412 620 c 0
 460 620 484 642 510 668 c 1
 527 653 l 1
 495 614 463 574 402 574 c 0
 332 574 268 621 198 621 c 0
 151 621 126 599 100 574 c 1
 83 588 l 1
EndSplineSet
EndChar
StartChar: exclamdown
Encoding: 161 161 100
Width: 278
Flags: W
HStem: 395 105<124.5 151>
VStem: 85 105<434 462.5> 85 106<-181 -160.5 -182.5 -157.5>
LayerCount: 2
Fore
SplineSet
85 -164 m 0xa0
 85 -151 87 -138 89 -120 c 2
 124 287 l 2
 125 296 125 312 138 312 c 0
 154 312 152 292 160 197 c 2
 189 -144 l 2
 190 -150 191 -157 191 -164 c 0
 191 -201 161 -216 138 -216 c 0
 112 -216 85 -198 85 -164 c 0xa0
85 447 m 0xc0
 85 478 111 500 138 500 c 0
 165 500 190 478 190 447 c 0
 190 416 164 395 138 395 c 0
 107 395 85 421 85 447 c 0xc0
EndSplineSet
EndChar
StartChar: cent
Encoding: 162 162 101
Width: 500
Flags: MW
LayerCount: 2
Fore
SplineSet
33 215 m 0
 33 337 131 437 262 446 c 1
 262 533 l 1
 293 533 l 1
 293 446 l 1
 365 445 419 424 444 390 c 4
 454 376 460 360 460 342 c 0
 460 310 438 294 415 294 c 0
 387 294 369 315 369 340 c 0
 369 352 373 380 414 386 c 1
 395 400 366 418 293 421 c 1
 293 15 l 1
 391 22 420 68 436 99 c 0
 444 116 449 129 458 129 c 0
 465 129 470 124 470 118 c 0
 470 110 442 0 293 -10 c 1
 293 -97 l 1
 262 -97 l 1
 262 -10 l 1
 130 -1 33 97 33 215 c 0
117 216 m 0
 117 127 156 37 262 16 c 1
 262 420 l 1
 164 407 117 322 117 216 c 0
EndSplineSet
EndChar
StartChar: sterling
Encoding: 163 163 102
Width: 639
Flags: W
HStem: -11 44<391.335 538.126> -11 23<104.782 180.196> 94 45<103.54 226.507> 332 31<161.19 242 312 424.99> 475 91<496.754 551.843> 683 23<373.991 466.835>
VStem: 55 38<18.8782 79.4105> 242 70<128.139 332 363 610.02> 490 92<481.841 557.182> 583 27<87.1582 145.858>
LayerCount: 2
Fore
SplineSet
55 48 m 0xbf80
 55 102 110 139 174 139 c 2
 175 139 l 2
 183 139 204 138 240 127 c 1
 242 156 242 188 242 219 c 2
 242 332 l 1
 182 332 l 2
 174 332 164 331 159 339 c 0
 157.172368381 341.741447428 156.388560929 344.900424524 156.553191342 347.999999773 c 0
 156.748875143 351.684231976 158.284539524 355.284539524 161 358 c 0
 165 363 172 363 180 363 c 2
 242 363 l 1
 242 510 l 2
 242 516.865721782 242.241533845 523.531385228 242.709779109 530.000003026 c 0
 251.721395354 654.491814794 344.704526142 706 416 706 c 0
 518 706 582 610 582 525 c 0
 582 485 552 475 536 475 c 0
 511 475 490 494 490 520 c 0
 490 547 511 566 536 566 c 0
 542 566 547 565 552 564 c 1
 530 645 472 683 418 683 c 0
 376 683 348 656 333 630 c 0
 312 593 312 548 312 506 c 2
 312 363 l 1
 397 363 l 1
 411 362 425 362 425 348 c 0
 425 335 417 332 401 332 c 2
 312 332 l 1
 312 185 l 2
 312 151 310 133 298 102 c 1
 348 77 414 33 476 33 c 0
 537 33 575 77 583 122 c 0
 584 128 585 148 596 148 c 0
 598 148 600 147 603 146 c 0
 608 143 610 138 610 130 c 0
 610 79 562 -11 463 -11 c 0x7f80
 409 -11 368 10 275 60 c 1
 224 -6 161 -11 139 -11 c 0
 89 -11 55 13 55 48 c 0xbf80
93 47 m 0
 93 26 115 12 140 12 c 0xbf80
 175 12 210 37 228 81 c 1
 196 92 174 94 161 94 c 0
 158.599038427 94 156.265926572 93.9321502814 153.999997886 93.8005834478 c 4
 111.909261566 91.3566650053 93 66.9272299352 93 47 c 0
EndSplineSet
EndChar
StartChar: currency
Encoding: 164 164 106
Width: 736
Flags: W
HStem: -11 40<273.515 462.948> 524 40<273.141 460.047>
VStem: 80 40<181.889 371.651> 615 40<182.733 371.74>
LayerCount: 2
Fore
SplineSet
120 277 m 0
 120 146 225 29 368 29 c 0
 500 29 615 136 615 277 c 0
 615 409 508 524 368 524 c 0
 235 524 120 417 120 277 c 0
46 -24 m 0
 46 -15.4924279003 64.5498046875 0.97265625 151 88 c 9
 151 88 l 17
 89 159 80 235 80 277 c 0
 80 353 107 413 151 466 c 9
 151 466 l 17
 77.119140625 539.423828125 46 568.011040108 46 580 c 0
 46 589 55 598 63 598 c 2
 65 598 l 2
 78 598 80 592 135 538 c 2
 179 494 l 1
 180 494 l 1
 251 556 326 564 368 564 c 0
 370.687919373 564 373.354463272 563.966749261 376 563.900820702 c 0
 450.124572837 562.053586362 507.757485744 534.552658799 557 494 c 9
 557 494 l 17
 634.166992188 572.16796875 658.752257212 598 671 598 c 0
 676 598 689 594 689 579 c 0
 689 562 655 538 585 466 c 1
 585 465 l 1
 646 393 655 319 655 277 c 0
 655 234 646 160 585 89 c 1
 585 88 l 1
 689 -15 689 -15 689 -26 c 0
 689 -35 681 -45 670 -45 c 2
 668 -45 l 2
 659.371223358 -45 645.176757812 -29.3134765625 556 60 c 9
 556 60 l 17
 485 -2 410 -11 368 -11 c 0
 292 -11 228 18 180 60 c 1
 179 60 l 1
 88 -32 78 -45 65 -45 c 0
 58 -45 46 -41 46 -24 c 0
EndSplineSet
EndChar
StartChar: yen
Encoding: 165 165 95
Width: 750
Flags: MW
LayerCount: 2
Fore
SplineSet
11 652 m 1
 11 683 l 1
 49 682 88 680 139 680 c 0
 189 680 239 681 289 683 c 1
 289 652 l 1
 283 652 l 2
 265 652 220 652 220 626 c 0
 220 621 225 611 333 436 c 1
 481 436 l 5
 481 436 l 1
 580 597 582 596 582 614 c 0
 582 629 571 650 526 652 c 1
 526 683 l 1
 565 681 604 680 643 680 c 0
 681 680 709 682 738 683 c 1
 738 652 l 1
 727 652 716 651 707 650 c 0
 671 645 648 631 627 607 c 0
 597 573 571 519 518 436 c 1
 645 436 l 2
 667 436 679 433 679 425 c 0
 679 424 678 422 678 420 c 0
 674 413 664 413 654 413 c 2
 530 413 l 2
 507 413 505 415 493 395 c 0
 418 275 418 277 418 257 c 2
 418 242 l 1
 654 242 l 2
 665 242 678 241 678 230 c 0
 678 222 672 220 664 219 c 0
 661 219 659 219 656 219 c 2
 418 219 l 1
 418 77 l 2
 418 32 437 31 511 31 c 2
 521 31 l 1
 521 0 l 1
 479 1 437 3 381 3 c 0
 330 3 279 2 228 0 c 1
 228 31 l 1
 238 31 l 2
 317 31 331 35 331 78 c 2
 331 219 l 1
 93 219 l 2
 90 219 88 219 85 219 c 0
 77 220 70 222 70 230 c 0
 70 241 84 242 95 242 c 2
 331 242 l 1
 331 258 l 2
 331 277 326 283 256 395 c 0
 245 412 242 413 230 413 c 2
 95 413 l 2
 83 413 70 413 70 425 c 0
 70 429 73 431 79 433 c 0
 85 435 94 436 104 436 c 2
 231 436 l 1
 125 609 l 2
 100 648 90 652 11 652 c 1
347 413 m 1
 407 315 l 1
 467 413 l 1
 347 413 l 1
EndSplineSet
EndChar
StartChar: brokenbar
Encoding: 166 166 98
Width: 167
Flags: MW
LayerCount: 2
Fore
SplineSet
63 140 m 2
 63 153.297730353 64.8356017219 165.371726225 73.7715640693 169.999999821 c 4
 76.2594579643 171.288574367 79.2977303532 172 83 172 c 0
 94 172 103 162 103 142 c 2
 103 -218 l 2
 103 -225 103 -249 83 -249 c 0
 75 -249 63 -244 63 -219 c 2
 63 140 l 2
63 359 m 2
 63 718 l 2
 63 735.788942075 68.6173927837 743.747446779 74.7276924618 747 c 0
 77.5480976542 748.501320472 80.4735206385 749 83 749 c 0
 91 749 103 744 103 718 c 2
 103 359 l 2
 103 333 91 328 83 328 c 0
 75 328 63 333 63 359 c 2
EndSplineSet
EndChar
StartChar: section
Encoding: 167 167 105
Width: 444
Flags: W
HStem: -205 22<171.459 263.603> -118 69<115 149.334> 548 70<293.781 328> 682 23<178.171 272.495>
VStem: 69 45<204.916 333.487 501.233 629.449> 83 69<-114.097 -51.5696> 291 69<550.771 613.497> 329 45<-129.73 -2.12619 165.584 295.01>
LayerCount: 2
Fore
SplineSet
69 255 m 0xe4
 69 323 110 368 148 390 c 1
 110 426 69 475 69 550 c 0
 69 642 142 705 222 705 c 0
 303 705 360 645 360 586 c 0
 360 556 337 548 325 548 c 0
 307 548 291 563 291 583 c 0
 291 593 296 615 328 618 c 1
 302 673 244 682 223 682 c 0
 151 682 114 609 114 554 c 0xe8
 114 486 197 458 237 441 c 1
 296 414 374 346 374 245 c 0
 374 216 366 150 295 110 c 1
 334 73 374 24 374 -51 c 0
 374 -135 308 -205 221 -205 c 0
 140 -205 83 -145 83 -87 c 0
 83 -56 106 -49 118 -49 c 0
 136 -49 152 -63 152 -83 c 0xd4
 152 -93 147 -116 115 -118 c 1
 141 -174 199 -183 220 -183 c 0
 285.097180686 -183 321.583732 -122.508955042 327.981502109 -71.0000012844 c 4
 328.659913226 -65.5380596597 329 -60.1771144855 329 -55 c 0
 329 13 246 42 206 58 c 1
 146 85 69 153 69 255 c 0xe4
114 258 m 0
 114 184 205 162 254 136 c 0
 259 134 264 131 270 131 c 0
 286 131 329 178 329 241 c 0xe4
 329 257.866741884 324.094180048 272.204710596 316.000000628 284.548479931 c 0
 288.102436019 327.092768199 222.329734653 345.947577619 189 363 c 0
 184 366 179 369 173 369 c 0
 157 369 114 322 114 258 c 0
EndSplineSet
EndChar
StartChar: copyright
Encoding: 169 169 142
Width: 1111
Flags: MW
LayerCount: 2
Fore
SplineSet
277 239 m 0
 277 385 410 500 563 500 c 0
 625 500 669 478 705 445 c 1
 706 445 l 1
 736 477 755 499 765 499 c 0
 774 499 777 490 777 478 c 2
 777 314 l 2
 777 296 769 291 762 291 c 0
 756 291 750 294 748 298 c 0
 747.506037712 298.493962288 741.644103109 340.22371191 718 382.330875 c 0
 693.777892065 425.467391727 650.893581427 469 576 469 c 0
 535.445404634 469 483.240217495 457.349408227 442.906420852 419 c 0
 406.659442529 384.536342116 380 328.510268397 380 240 c 0
 380 167.710482448 397.289470076 117.577100623 422.335287025 83 c 0
 467.275481813 20.9576381838 537.187871724 9 577 9 c 0
 664 9 742 67 750 155 c 0
 752 172 759 179 765 179 c 0
 771 179 776 172 776 160 c 0
 776 93 710 -22 564 -22 c 0
 432 -22 277 74 277 239 c 0
55 250 m 0
 55 533 273 772 555 772 c 0
 823 772 1054 546 1054 250 c 0
 1054 -32 836 -272 554 -272 c 0
 286 -272 55 -45 55 250 c 0
95 249 m 0
 95 -14 300 -232 553 -232 c 0
 805 -232 1014 -20 1014 250 c 0
 1014 514 810 732 556 732 c 0
 308 732 95 524 95 249 c 0
EndSplineSet
EndChar
StartChar: ordfeminine
Encoding: 170 170 130
Width: 444
Flags: MW
LayerCount: 2
Fore
SplineSet
41 434 m 0
 41 500 151 526 270 528 c 1
 270 573 l 2
 270 706 223 743 191 743 c 0
 173 743 120 733 100 645 c 1
 105 646 111 646 116 646 c 0
 142 646 162 627 162 601 c 0
 162 577 144 555 116 555 c 0
 100 555 70 564 70 607 c 0
 70 619.010798653 71.9505041142 636.71706932 76.9193528053 655.999998788 c 4
 89.7395371238 705.752109458 122.652768992 766 194 766 c 0
 250.008723316 766 333.992866558 720.306814123 339.693595587 592 c 0
 339.896273457 587.438311174 340 582.772197569 340 578 c 2
 340 433 l 2
 340 417 342 402 375 402 c 1
 404 402 413 402 413 386 c 0
 413 373 395 370 384 370 c 2
 332 370 l 2
 319 370 l 2
 294 370 286 379 278 410 c 1
 263 389 236 364 172 364 c 0
 79 364 41 392 41 434 c 0
46 323 m 0
 46 333 56 335 65 335 c 2
 375 335 l 2
 387 335 397 333 397 324 c 0
 397 312 380 312 375 312 c 2
 66 312 l 2
 49 312 46 319 46 323 c 0
120 434 m 0
 120 404 151 387 182 387 c 0
 224.501360178 387 246.585738368 401.238158492 258 417.322032285 c 0
 268.607844246 432.269580675 270 448.811257598 270 457 c 2
 270 507 l 1
 191 504 120 481 120 434 c 0
EndSplineSet
EndChar
StartChar: guillemotleft
Encoding: 171 171 108
Width: 555
Flags: W
LayerCount: 2
Fore
SplineSet
113 215 m 0
 113 226 127 231 174 268 c 0
 293 362 343 429 358 429 c 0
 365 429 367 422 367 421 c 0
 367 407 272 294 185 215 c 1
 226 180 367 31 367 10 c 0
 367 8 365 2 358 2 c 0
 348 2 340 13 310 43 c 0
 214 136 122 200 116 207 c 0
 114 209 113 212 113 215 c 0
287 215 m 0
 287 224 297 229 330 260 c 1
 369.518274078 294.679301742 396.190460598 322.20382054 415 342.704699564 c 4
 442.835586288 373.043240816 453.451963115 388 463 388 c 0
 468 388 471 383 471 380 c 0
 471 364 396 271 342 215 c 1
 380 178 471 69 471 51 c 0
 471 48 468 43 463 43 c 0
 445 43 438 73 330 171 c 0
 290 207 287 206 287 215 c 0
EndSplineSet
EndChar
StartChar: logicalnot
Encoding: 172 172 143
Width: 667
Flags: MW
LayerCount: 2
Fore
SplineSet
56 336 m 0
 56 355 77 356 85 356 c 2
 579 356 l 2
 583.92446598 356 588.111720859 355.689595326 591.661122157 355 c 4
 606.130940165 352.188731839 610 343.07553402 610 323 c 2
 610 121 l 2
 610 107 607 91 590 91 c 0
 573 91 570 106 570 119 c 2
 570 316 l 1
 88 316 l 2
 72 316 56 319 56 336 c 0
EndSplineSet
EndChar
StartChar: softhyphen
Encoding: 173 173 141
Width: 167
Flags: W
HStem: 186 59<10 276 10 276>
LayerCount: 2
Fore
SplineSet
10 186 m 1
 10 245 l 1
 276 245 l 1
 276 186 l 1
 10 186 l 1
EndSplineSet
EndChar
StartChar: registered
Encoding: 174 174 144
Width: 1111
Flags: MW
LayerCount: 2
Fore
SplineSet
242 0 m 1
 242 31 l 1
 255 31 l 2
 302 31 325 33 336 44 c 0
 343 51 345 62 345 78 c 2
 345 400 l 2
 345 419 343 431 332 438 c 0
 320 445 297 447 254 447 c 2
 242 447 l 1
 242 478 l 1
 510 478 l 2
 700 478 762 400 762 349 c 0
 762 306 721 262 622 237 c 1
 719 205 708 151 732 63 c 0
 738 40 752 1 787 1 c 0
 846 1 847 83 850 90 c 0
 853 95 857 97 860 97 c 0
 867 97 873 90 873 80 c 0
 873 51 855 -22 783 -22 c 0
 771 -22 759 -21 748 -20 c 0
 677 -13 621 17 623 97 c 1
 623 138 l 2
 623 201 577 228 516 228 c 2
 431 228 l 1
 431 78 l 2
 431 59 432 48 444 41 c 4
 456 34 480 31 525 31 c 2
 534 31 l 1
 534 0 l 1
 485 2 437 3 388 3 c 0
 339 3 291 2 242 0 c 1
431 250 m 1
 506 250 l 2
 542 250 587 251 619 270 c 0
 643 284 659 309 659 349 c 0
 659 428 605 447 516 447 c 2
 476 447 l 2
 433 447 431 434 431 402 c 2
 431 250 l 1
55 250 m 0
 55 533 273 772 555 772 c 0
 823 772 1054 546 1054 250 c 0
 1054 -32 836 -272 554 -272 c 0
 286 -272 55 -45 55 250 c 0
95 249 m 0
 95 -14 300 -232 553 -232 c 0
 805 -232 1014 -20 1014 250 c 0
 1014 514 810 732 556 732 c 0
 308 732 95 524 95 249 c 0
EndSplineSet
EndChar
StartChar: macron
Encoding: 175 175 126
Width: 500
Flags: W
HStem: 649 32<69 429 69 429>
LayerCount: 2
Fore
SplineSet
69 649 m 1
 69 681 l 1
 429 681 l 1
 429 649 l 1
 69 649 l 1
EndSplineSet
EndChar
StartChar: degree
Encoding: 176 176 145
Width: 333
Flags: W
HStem: 462 40<147 185 147 196.5> 643 40<147 185>
VStem: 55 40<552.5 592 552.5 602.5> 236 41<552 591.5>
LayerCount: 2
Fore
SplineSet
55 572 m 0
 55 633 105 683 166 683 c 0
 231 683 277 629 277 573 c 0
 277 511 227 462 166 462 c 0
 102 462 55 513 55 572 c 0
95 572 m 0
 95 533 128 502 166 502 c 0
 204 502 236 532 236 572 c 0
 236 611 204 643 166 643 c 0
 128 643 95 612 95 572 c 0
EndSplineSet
EndChar
StartChar: plusminus
Encoding: 177 177 146
Width: 778
Flags: MW
LayerCount: 2
Fore
SplineSet
56 20 m 0
 56 28 60 39 84 40 c 1
 368 40 l 1
 368 313 l 1
 86 313 l 2
 82 313 77 313 73 314 c 0
 64 316 56 321 56 333 c 0
 56 352 74 353 86 353 c 2
 368 353 l 1
 368 635 l 2
 368 640 369 645 370 650 c 0
 372 658 377 665 388 665 c 0
 400 665 405 658 407 649 c 0
 408 644 408 639 408 635 c 2
 408 353 l 1
 690 353 l 2
 694 353 699 353 704 352 c 0
 713 350 720 345 720 333 c 0
 720 321 711 316 702 314 c 4
 698 313 694 313 690 313 c 2
 408 313 l 1
 408 40 l 1
 688 40 l 2
 702 40 720 39 720 19 c 0
 720 12 716 1 691 0 c 1
 86 0 l 2
 61 0 56 12 56 20 c 0
EndSplineSet
EndChar
StartChar: two.superior
Encoding: 178 178 147
Width: 444
Flags: MW
LayerCount: 2
Fore
SplineSet
50 347 m 1
 50 393 l 2
 50 413 57 415 74 426 c 0
 227 525 302 560 302 636 c 0
 302 698 255 741 191 741 c 0
 156 741 131 731 110 717 c 1
 133 713 155 696 155 665 c 0
 155 635 131 613 103 613 c 0
 75 613 50 633 50 667 c 0
 50 730 119 772 210 772 c 0
 316 772 394 718 394 637 c 0
 394 542 284 514 213 478 c 1
 118 425 l 1
 245 425 l 2
 277 425 309 426 325 427 c 0
 340.164028711 428.083144908 347.408937903 430.339492707 353.24731486 446 c 4
 358.189355028 459.256228 362.123586809 482.116803493 369 522 c 1
 394 522 l 1
 366 347 l 1
 50 347 l 1
EndSplineSet
EndChar
StartChar: three.superior
Encoding: 179 179 148
Width: 444
Flags: MW
LayerCount: 2
Fore
SplineSet
41 432 m 0
 41 468 67 489 97 489 c 0
 127 489 153 466 153 433 c 0
 153 401 131 387 114 380 c 1
 123 377 152 365 209 365 c 0
 280 365 298 411 298 454 c 0
 298 530 251 548 209 548 c 2
 188 548 l 2
 177 548 167 551 167 560 c 0
 167 565 171 568 178 570 c 0
 192 574 216 573 230 579 c 0
 261 592 281 632 281 678 c 0
 281 733 245 747 214 747 c 0
 187 747 135 735 105 673 c 1
 113 674 115 675 119 675 c 0
 147 675 170 654 170 624 c 0
 170 594 148 573 120 573 c 0
 102 573 69 584 69 627 c 0
 69 641 71 656 76 670 c 4
 94 724 144 772 219 772 c 0
 299 772 373 733 373 675 c 0
 373 630 343 590 271 563 c 1
 323 554 401 520 401 456 c 0
 401 401 336 336 215 336 c 0
 70 336 41 394 41 432 c 0
EndSplineSet
EndChar
StartChar: acute
Encoding: 180 180 215
Width: 500
Flags: W
HStem: 490 152<229 374.5>
VStem: 214 185<510 613.5>
LayerCount: 2
Fore
SplineSet
214 510 m 1
 340 633 345 642 364 642 c 0
 385 642 399 622 399 605 c 0
 399 582 392 582 270 513 c 0
 257 505 243 497 229 490 c 1
 214 510 l 1
EndSplineSet
EndChar
StartChar: mu
Encoding: 181 181 149
Width: 555
Flags: W
HStem: -195 31<31 103.853 183.831 256> -11 23<212.432 312.987> 0 31<464.814 534> 400 30<31 99.2557 309 376.531> 421 20G<31 179 309 456>
VStem: 109 70<-159.781 2 31.7517 394.002> 389 67<37.3739 77 80.5942 392.399>
LayerCount: 2
Fore
SplineSet
31 -164 m 1x8e
 41 -164 l 2
 107 -164 109 -154 109 -113 c 2
 109 340 l 2
 109 396 93 397 45 400 c 1
 31 400 l 1
 31 430 l 1
 179 441 l 1
 179 118 l 2
 179 103.796776835 179.13337623 89.8603061302 180.795075613 77.0000015323 c 0
 185.568075241 40.060570911 202.950435801 12 266 12 c 0xae
 314 12 387 48 387 174 c 0
 387 182 386 190 386 199 c 2
 386 350 l 1
 385 393 369 400 314 400 c 2
 309 400 l 1
 309 430 l 1
 456 441 l 1
 456 83 l 2
 456 39 472 31 529 31 c 2
 534 31 l 1
 534 0 l 1x1e
 389 -11 l 1
 389 32 l 5
 389 77 l 1
 359.749396233 12.2941189393 314.785333866 -6.8427321828 275.000001596 -10.3560238302 c 0
 269.900244472 -10.8063640205 264.885576909 -11 260 -11 c 0
 219 -11 194 -3 179 2 c 1
 179 -119 l 2
 179 -157 185 -164 251 -164 c 2
 256 -164 l 1
 256 -195 l 1xae
 218 -193 179 -192 140 -192 c 2
 136 -192 l 2x4e
 122 -192 89 -192 31 -195 c 1
 31 -164 l 1x8e
EndSplineSet
EndChar
StartChar: paragraph
Encoding: 182 182 216
Width: 611
Flags: MW
LayerCount: 2
Fore
SplineSet
55 463 m 0
 55 555 125 694 318 694 c 2
 548 694 l 2
 567 694 581 691 581 674 c 0
 581 664.629364669 576.392747806 659.594966696 570.000000294 656.92157627 c 0
 564.112955546 654.459666263 556.711728076 654 550 654 c 2
 499 654 l 1
 499 -155 l 1
 546 -155 l 2
 553.7202715 -155 561.646780343 -155 567.999999628 -156.87318621 c 0
 575.636538067 -159.124746854 581 -164.082672353 581 -175 c 0
 581 -195 555 -194 552 -195 c 1
 297 -195 l 2
 276 -195 268 -185 268 -175 c 0
 268 -165.683115826 271.906194882 -160.706448188 277.999999618 -158.048132348 c 4
 284.987402339 -155 294.851039965 -155 305 -155 c 2
 350 -155 l 1
 350 230 l 1
 190 238 55 323 55 463 c 0
390 -155 m 1
 459 -155 l 1
 459 654 l 1
 390 654 l 1
 390 -155 l 1
EndSplineSet
EndChar
StartChar: periodcentered
Encoding: 183 183 116
Width: 278
Flags: W
HStem: 189 105<122.5 151>
VStem: 85 105<228.5 255.5>
LayerCount: 2
Fore
SplineSet
85 242 m 0
 85 269 107 294 138 294 c 0
 165 294 190 273 190 242 c 0
 190 211 164 189 138 189 c 0
 107 189 85 215 85 242 c 0
EndSplineSet
EndChar
StartChar: cedilla
Encoding: 184 184 128
Width: 444
Flags: MW
LayerCount: 2
Fore
SplineSet
103 -181 m 1
 115 -181 l 2
 210 -181 269 -170 269 -126 c 0
 269 -104 252 -74 187 -71 c 1
 187 0 l 1
 257 0 l 1
 257 -54 l 1
 270 -57 339 -69 339 -126 c 0
 339 -200 213 -204 147 -204 c 2
 103 -204 l 1
 103 -181 l 1
EndSplineSet
EndChar
StartChar: one.superior
Encoding: 185 185 150
Width: 444
Flags: MW
LayerCount: 2
Fore
SplineSet
69 666 m 1
 69 697 l 1
 203 700 231 771 253 771 c 0
 268 771 267 755 267 740 c 2
 267 424 l 1
 268 385 278 378 355 378 c 2
 374 378 l 1
 374 347 l 1
 323 347 l 1
 362 348 l 1
 284 349 l 1
 160 349 l 1
 95 347 l 1
 83 347 l 1
 83 378 l 1
 102 378 l 2
 180 378 192 385 192 425 c 2
 192 696 l 1
 160 680 126 667 69 666 c 1
EndSplineSet
EndChar
StartChar: guillemotright
Encoding: 187 187 121
Width: 555
Flags: W
LayerCount: 2
Fore
SplineSet
82 51 m 0
 82 66 157 159 211 215 c 1
 161 265 82 365 82 380 c 0
 82 384 85 387 89 387 c 0
 94 387 102 383 108 376 c 0
 186 293 155 321 256 231 c 0
 263 225 267 220 267 215 c 0
 267 211 263 206 256 200 c 0
 146 102 171 122 108 54 c 0
 100 46 94 43 90 43 c 0
 87.9723384694 43 86.2735898415 43.8222822565 84.9704465201 44.9999999418 c 4
 83.0601755172 46.7264101585 82 49.2165969183 82 51 c 0
187 10 m 0
 187 26 290 144 369 215 c 1
 320 258 187 400 187 421 c 0
 187 422 189 429 196 429 c 0
 206 429 213 417 244 388 c 0
 326.660146732 307.262182262 384.274040755 265.53082366 414.999988276 241.757995116 c 0
 432.225168195 228.430782063 441 220.7475787 441 215 c 0
 441 205 427 199 380 162 c 0
 264 71 211 2 196 2 c 0
 189 2 187 8 187 10 c 0
EndSplineSet
EndChar
StartChar: onequarter
Encoding: 188 188 151
Width: 444
Flags: MW
LayerCount: 2
Fore
SplineSet
58 -63 m 1
 243 -63 l 1
 243 163 l 1
 58 -63 l 1
8 278 m 4
 8 296 25 298 40 298 c 6
 399 298 l 6
 408 298 417 297 424 294 c 4
 430 291 434 287 434 278 c 4
 434 270 431 258 405 258 c 6
 37 258 l 6
 13 258 8 270 8 278 c 4
27 -79 m 2
 27 -60 29 -62 47 -39 c 2
 259 220 l 2
 274 238 281 247 291 249 c 0
 293 249 295 250 298 250 c 0
 315 250 316 240 316 225 c 2
 316 -63 l 1
 416 -63 l 1
 416 -94 l 1
 316 -94 l 1
 316 -120 l 2
 316 -156 327 -164 398 -164 c 2
 413 -164 l 1
 413 -195 l 1
 374 -193 335 -192 283 -192 c 0
 235 -192 188 -193 141 -195 c 1
 141 -164 l 1
 155 -164 l 2
 225 -164 237 -157 238 -120 c 1
 238 -94 l 1
 27 -94 l 1
 27 -79 l 2
69 701 m 1
 69 732 l 1
 155 732 195 746 218 758 c 0
 233 766 241 772 251 772 c 0
 268 772 267 756 267 740 c 2
 267 415 l 2
 267 369 289 369 362 369 c 2
 374 369 l 1
 374 338 l 1
 324 340 274 341 224 341 c 0
 167 341 125 339 82 338 c 1
 82 369 l 1
 96 369 l 2
 179 369 192 374 192 416 c 2
 192 716 l 1
 152 704 110 701 69 701 c 1
EndSplineSet
EndChar
StartChar: onehalf
Encoding: 189 189 152
Width: 444
Flags: W
HStem: -195 78<144 352.37> 209 31<123.226 253.965> 258 40<8.01238 433.995> 338 31<82 184.318 274.33 374> 701 31<69 190.124>
VStem: 50 104<105.366 190.182> 192 75<375.057 716> 302 91<53.3089 174.74> 368 25<-65.3704 -20>
LayerCount: 2
Fore
SplineSet
49 -195 m 5
 49 -184 l 2
 49 -155 94 -136 222 -17 c 0
 231 -9 302 52 302 118 c 0
 302 173 256 209 187 209 c 0
 163 209 143 205 121 197 c 1
 135 191 154 177 154 148 c 0
 154 116 131 96 102 96 c 0
 70 96 50 120 50 149 c 0
 50 190 87 240 207 240 c 0
 356 240 393 170 393 120 c 0
 393 38 318 6 242 -46 c 1
 144 -117 l 1
 215 -117 l 2
 300 -117 336 -117 345 -108 c 0
 348.898653872 -104.455769207 352.169229148 -96.8918354029 355.034331379 -87.0000007658 c 0
 360.253076951 -68.9821556563 364.126538476 -43.2407691464 368 -20 c 1
 393 -20 l 1
 366 -195 l 1
 49 -195 l 5
8 278 m 0
 8 296 25 298 40 298 c 2
 399 298 l 2
 405.360125578 298 411.595401781 297.750301251 416.999999542 296.633303319 c 0
 426.891131168 294.589048767 434 289.639874422 434 278 c 0
 434 270 431 258 405 258 c 2
 37 258 l 2
 13 258 8 270 8 278 c 0
69 701 m 1
 69 732 l 1
 175.326512691 732 210.887614138 754.114191014 232 765.456911342 c 0
 239.281954382 769.369172729 244.845009123 772 251 772 c 0
 268 772 267 756 267 740 c 2
 267 415 l 2
 267 369 289 369 362 369 c 2
 374 369 l 1
 374 338 l 1
 324 340 274 341 224 341 c 0
 167 341 125 339 82 338 c 1
 82 369 l 1
 96 369 l 2
 179 369 192 374 192 416 c 2
 192 716 l 1
 152 704 110 701 69 701 c 1
EndSplineSet
EndChar
StartChar: threequarters
Encoding: 190 190 153
Width: 444
Flags: MW
LayerCount: 2
Fore
SplineSet
8 278 m 0
 8 296 25 298 40 298 c 2
 399 298 l 2
 407 298 414 298 420 296 c 0
 428 294 434 288 434 278 c 0
 434 270 431 258 405 258 c 2
 37 258 l 2
 13 258 8 270 8 278 c 0
27 -79 m 2
 27 -60 29 -62 47 -39 c 2
 259 220 l 2
 274 238 281 247 291 249 c 0
 293 249 295 250 298 250 c 0
 315 250 316 240 316 225 c 2
 316 -63 l 1
 416 -63 l 1
 416 -94 l 1
 316 -94 l 1
 316 -120 l 2
 316 -140 319 -151 334 -157 c 4
 346 -162 366 -164 398 -164 c 2
 413 -164 l 1
 413 -195 l 1
 374 -193 335 -192 283 -192 c 0
 235 -192 188 -193 141 -195 c 1
 141 -164 l 1
 155 -164 l 2
 192 -164 212 -162 224 -155 c 0
 235 -149 238 -138 238 -120 c 1
 238 -94 l 1
 27 -94 l 1
 27 -79 l 2
41 414 m 0
 41 449 68 470 97 470 c 0
 127 470 153 447 153 415 c 0
 153 380 128 367 112 360 c 1
 130 354 161 344 210 344 c 0
 254 344 298 363 298 440 c 0
 298 519 253 539 210 539 c 2
 187 539 l 2
 173 539 167 545 167 550 c 0
 167 558 172 561 180 562 c 0
 200 565 240 559 264 602 c 0
 268 609 282 642 282 675 c 0
 282 713 263 746 213 746 c 0
 154 746 121 713 114 706 c 1
 115 706 l 2
 160 706 171 674 171 656 c 0
 171 627 149 605 120 605 c 0
 93 605 69 624 69 657 c 0
 69 670 71 682 76 693 c 0
 84 714 100 731 120 744 c 4
 147 762 182 772 219 772 c 0
 299 772 374 732 374 672 c 0
 374 597 299 565 270 553 c 1
 330 542 401 504 401 441 c 0
 401 367 313 315 214 315 c 0
 161 315 93 326 60 363 c 0
 48 376 41 393 41 414 c 0
58 -63 m 1
 243 -63 l 1
 243 163 l 1
 58 -63 l 1
EndSplineSet
EndChar
StartChar: questiondown
Encoding: 191 191 124
Width: 472
Flags: W
HStem: -205 22<174.623 294.158> -115 91<330.713 378> 395 105<179.77 263.648>
VStem: 55 84<-143.612 3.86426> 169 105<405.387 489.23> 209 26<175.518 311.877> 324 92<-108.024 -30.8046>
LayerCount: 2
Fore
SplineSet
55 -69 m 0xec
 55 5 101 28 131 60 c 0
 199 132 209 211 209 275 c 2
 209 290 l 2
 209 308 217 315 224 312 c 0
 230.203005207 309.341569197 234.050258969 309.038889839 234.845916597 293 c 0
 234.948146882 290.939238924 235 288.618697177 235 286 c 2
 235 280 l 2
 235 206 230 117 170 28 c 0
 152 2 139 -14 139 -75 c 0
 139 -81.1221980744 139.053836985 -87.1367221779 139.239721289 -92.9999979822 c 4
 140.845215472 -143.64147231 152.301285525 -183 224 -183 c 0
 275 -183 340 -168 378 -115 c 1
 373 -115 l 2
 337 -115 324 -91 324 -69 c 0
 324 -43 345 -24 369 -24 c 0
 386 -24 416 -34 416 -73 c 0
 416 -152 325 -205 225 -205 c 0
 81 -205 55 -122 55 -69 c 0xec
169 447 m 0x50
 169 478 195 500 222 500 c 0
 249 500 274 478 274 447 c 0
 274 416 248 395 222 395 c 0
 191 395 169 421 169 447 c 0x50
EndSplineSet
EndChar
StartChar: Aacute
Encoding: 193 193 155
Width: 750
Flags: W
HStem: 0 31<32 102.845 193.94 249 442 518.781 627.316 717> 228 31<233 458> 696 20G<367 383>
LayerCount: 2
Fore
SplineSet
32 0 m 1
 32 31 l 1
 45 31 57 32 68 34 c 4
 104 41 130 59 144 98 c 2
 351 696 l 2
 356 710 359 716 375 716 c 0
 391 716 393 709 398 696 c 2
 614 71 l 2
 625 38 639 31 699 31 c 2
 717 31 l 1
 717 0 l 1
 675 2 629 3 586 3 c 0
 548 3 478 3 442 0 c 1
 442 31 l 1
 469 31 525 31 525 61 c 0
 525 65 523 71 522 75 c 2
 469 228 l 1
 222 228 l 1
 176 97 l 2
 175 95 174 85 174 82 c 0
 174 56 199 31 249 31 c 1
 249 0 l 1
 217 1 165 3 134 3 c 0
 98 3 55 1 32 0 c 1
233 259 m 1
 458 259 l 1
 345 584 l 1
 233 259 l 1
286 765 m 5
 434 857 439 862 453 862 c 4
 475 862 488 842 488 825 c 4
 488 795 466 794 342 755 c 4
 327 751 312 746 296 742 c 5
 286 765 l 5
EndSplineSet
EndChar
StartChar: Adieresis
Encoding: 196 196 158
Width: 750
Flags: MW
LayerCount: 2
Fore
SplineSet
32 0 m 1
 32 31 l 1
 45 31 57 32 68 34 c 4
 104 41 130 59 144 98 c 2
 351 696 l 2
 356 710 359 716 375 716 c 0
 391 716 393 709 398 696 c 2
 614 71 l 2
 625 38 639 31 699 31 c 2
 717 31 l 1
 717 0 l 1
 675 2 629 3 586 3 c 0
 548 3 478 3 442 0 c 1
 442 31 l 1
 469 31 525 31 525 61 c 0
 525 65 523 71 522 75 c 2
 469 228 l 1
 222 228 l 1
 176 97 l 2
 175 95 174 85 174 82 c 0
 174 56 199 31 249 31 c 1
 249 0 l 1
 217 1 165 3 134 3 c 0
 98 3 55 1 32 0 c 1
233 259 m 1
 458 259 l 1
 345 584 l 1
 233 259 l 1
224 814 m 0
 224 841 246 866 277 866 c 0
 304 866 329 845 329 814 c 0
 329 783 303 761 277 761 c 0
 246 761 224 787 224 814 c 0
419 813 m 0
 419 844 445 866 471 866 c 0
 503 866 524 840 524 814 c 0
 524 787 502 761 472 761 c 0
 446 761 419 783 419 813 c 0
EndSplineSet
EndChar
StartChar: Aring
Encoding: 197 197 159
Width: 750
Flags: W
HStem: 0 31<32 32> 228 31<232 458 232 469 221 458> 717 21G<360.5 389> 891 22<374 388.5>
VStem: 279 25<787.5 829.5> 445 25<787.5 831 787.5 840>
LayerCount: 2
Fore
SplineSet
32 0 m 1
 32 31 l 1
 122 33 135 73 151 121 c 2
 329 632 l 2
 336 654 344 675 351 697 c 1
 292 719 279 771 279 804 c 0
 279 855 314 912 374 913 c 0
 433 913 470 858 470 804 c 0
 470 771 457 719 398 697 c 1
 405 675 413 654 420 633 c 2
 608 90 l 2
 627 37 628 31 713 31 c 2
 717 31 l 1
 717 0 l 1
 653 3 614 3 589 3 c 0
 540 3 491 2 442 0 c 1
 442 31 l 1
 444 31 l 2
 476 31 523 32 523 63 c 0
 523 67 522 72 521 77 c 0
 511 107 478 197 469 228 c 1
 221 228 l 1
 205 176 174 100 174 81 c 0
 174 62 191 33 248 31 c 1
 248 0 l 1
 209 2 170 3 131 3 c 0
 112 3 82 3 32 0 c 1
232 259 m 1
 458 259 l 1
 345 584 l 1
 232 259 l 1
304 805 m 0
 304 730 346 717 375 717 c 0
 403 717 445 731 445 803 c 0
 445 877 403 891 374 891 c 0
 346 891 304 877 304 805 c 0
EndSplineSet
EndChar
StartChar: AE
Encoding: 198 198 129
Width: 903
Flags: MW
LayerCount: 2
Fore
SplineSet
32 0 m 1
 32 31 l 1
 122 33 136 72 153 121 c 2
 344 651 l 1
 258 652 l 1
 258 683 l 1
 819 683 l 1
 847 458 l 1
 821 458 l 1
 803 596 789 652 635 652 c 2
 565 652 l 2
 561 652 555 653 548 653 c 0
 502 653 500 639 499 613 c 1
 499 344 l 1
 574 344 l 2
 605 344 636 345 658 360 c 0
 671 369 681 384 684 408 c 0
 687 425 687 443 687 460 c 1
 712 460 l 1
 712 196 l 1
 687 196 l 1
 687 207 l 2
 687 257 678 284 657 298 c 0
 639 311 611 313 574 313 c 2
 499 313 l 1
 499 68 l 1
 500 33 515 31 552 31 c 2
 641 31 l 2
 732 31 779 54 806 99 c 4
 829 137 838 190 849 258 c 1
 874 258 l 1
 832 0 l 1
 339 0 l 1
 339 31 l 1
 347 31 l 2
 401 31 415 35 416 71 c 1
 416 313 l 1
 255 313 l 1
 240 267 175 98 175 81 c 0
 175 71 180 58 192 48 c 0
 203 39 221 32 248 31 c 1
 248 0 l 1
 210 2 171 3 132 3 c 0
 112 3 82 3 32 0 c 1
266 344 m 1
 416 344 l 1
 416 599 l 2
 416 624 417 642 376 649 c 1
 266 344 l 1
EndSplineSet
EndChar
StartChar: Ccedilla
Encoding: 199 199 160
Width: 721
Flags: W
HStem: -219.2 23<285 409.625> -86.2002 95.2002<376 434> -22 6.7998<369 439> 674 31<334.79 488.01>
VStem: 56 103<214.685 467.376> 369 70<-74.6681 -15.2002> 451 70<-176.375 -102.847> 633 32<420.002 501.272> 640 25<166.392 249.995>
LayerCount: 2
Fore
SplineSet
56 342 m 0xe8
 56 546 217 705 404 705 c 0
 500 705 551 655 588 619 c 1
 638 693 l 2
 646 705 650 705 654 705 c 0
 665 705 665 698 665 681 c 2xe8
 665 444 l 2
 665 423 665 420 649 420 c 0
 635 420 635 423 633 437 c 0xf0
 613 583 524 674 415 674 c 0
 376 674 285 660 223 576 c 0
 186 526 159 452 159 341 c 0
 159 237 182 165 216 116 c 4
 279 23 376 9 416 9 c 0
 525 9 632 91 640 234 c 0
 641 244 641 250 652 250 c 0
 665 250 665 243 665 233 c 0
 665 117 567 -22 404 -22 c 0
 218 -22 56 135 56 342 c 0xe8
285 -196.200195312 m 1
 297 -196.200195312 l 2
 392 -196.200195312 451 -185.200195312 451 -141.200195312 c 0
 451 -119.200195312 434 -89.2001953125 369 -86.2001953125 c 1
 369 -15.2001953125 l 1
 439 -15.2001953125 l 1
 439 -69.2001953125 l 1
 452 -72.2001953125 521 -84.2001953125 521 -141.200195312 c 0
 521 -215.200195312 395 -219.200195312 329 -219.200195312 c 2
 285 -219.200195312 l 1
 285 -196.200195312 l 1
EndSplineSet
EndChar
StartChar: Egrave
Encoding: 200 200 161
Width: 680
Flags: MW
LayerCount: 2
Fore
SplineSet
33 0 m 1
 33 31 l 1
 57 31 l 2
 94 31 113 33 124 40 c 4
 135 47 136 59 136 78 c 2
 136 602 l 2
 136 620 136 632 126 639 c 0
 116 647 96 649 57 649 c 2
 33 649 l 1
 33 680 l 1
 596 680 l 1
 624 455 l 1
 599 455 l 1
 583 594 556 649 403 649 c 2
 274 649 l 2
 227 649 225 642 225 609 c 2
 225 369 l 1
 315 369 l 2
 412 369 423 400 423 486 c 1
 448 486 l 1
 448 221 l 1
 423 221 l 1
 423 306 412 338 315 338 c 2
 225 338 l 1
 225 71 l 2
 225 38 227 31 274 31 c 2
 407 31 l 2
 579 31 602 104 627 258 c 1
 652 258 l 1
 610 0 l 1
 33 0 l 1
234 825 m 4
 234 841 246 862 268 862 c 6
 269 862 l 6
 282 862 281 861 436 765 c 5
 425 742 l 5
 425 742 263 790 252 796 c 4
 246 799 234 808 234 825 c 4
EndSplineSet
EndChar
StartChar: Eacute
Encoding: 201 201 162
Width: 680
Flags: MW
LayerCount: 2
Fore
SplineSet
33 0 m 1
 33 31 l 1
 57 31 l 2
 94 31 113 33 124 40 c 4
 135 47 136 59 136 78 c 2
 136 602 l 2
 136 620 136 632 126 639 c 0
 116 647 96 649 57 649 c 2
 33 649 l 1
 33 680 l 1
 596 680 l 1
 624 455 l 1
 599 455 l 1
 583 594 556 649 403 649 c 2
 274 649 l 2
 227 649 225 642 225 609 c 2
 225 369 l 1
 315 369 l 2
 412 369 423 400 423 486 c 1
 448 486 l 1
 448 221 l 1
 423 221 l 1
 423 306 412 338 315 338 c 2
 225 338 l 1
 225 71 l 2
 225 38 227 31 274 31 c 2
 407 31 l 2
 579 31 602 104 627 258 c 1
 652 258 l 1
 610 0 l 1
 33 0 l 1
300 765 m 1
 417 838 445 857 458 861 c 4
 462 862 464 862 467 862 c 0
 489 862 502 842 502 825 c 0
 502 801 488 795 419 774 c 0
 402 769 381 763 356 755 c 0
 341 751 326 746 310 742 c 1
 300 765 l 1
EndSplineSet
EndChar
StartChar: Edieresis
Encoding: 203 203 164
Width: 680
Flags: MW
LayerCount: 2
Fore
SplineSet
33 0 m 1
 33 31 l 1
 57 31 l 2
 94 31 113 33 124 40 c 4
 135 47 136 59 136 78 c 2
 136 602 l 2
 136 620 136 632 126 639 c 0
 116 647 96 649 57 649 c 2
 33 649 l 1
 33 680 l 1
 596 680 l 1
 624 455 l 1
 599 455 l 1
 583 594 556 649 403 649 c 2
 274 649 l 2
 227 649 225 642 225 609 c 2
 225 369 l 1
 315 369 l 2
 412 369 423 400 423 486 c 1
 448 486 l 1
 448 221 l 1
 423 221 l 1
 423 306 412 338 315 338 c 2
 225 338 l 1
 225 71 l 2
 225 38 227 31 274 31 c 2
 407 31 l 2
 579 31 602 104 627 258 c 1
 652 258 l 1
 610 0 l 1
 33 0 l 1
197 813 m 4
 197 844 223 866 250 866 c 4
 277 866 302 844 302 813 c 4
 302 782 276 761 250 761 c 4
 219 761 197 787 197 813 c 4
391 813 m 4
 391 844 417 866 444 866 c 4
 471 866 496 844 496 813 c 4
 496 782 470 761 444 761 c 4
 413 761 391 787 391 813 c 4
EndSplineSet
EndChar
StartChar: Igrave
Encoding: 204 204 165
Width: 361
Flags: MW
LayerCount: 2
Fore
SplineSet
28 0 m 1
 28 31 l 1
 54 31 l 2
 90 31 111 33 122 39 c 0
 135 46 136 59 136 78 c 2
 136 605 l 2
 136 624 135 637 122 644 c 0
 111 650 90 652 54 652 c 2
 28 652 l 1
 28 683 l 1
 63 680 142 680 181 680 c 0
 219 680 298 680 333 683 c 1
 333 652 l 1
 307 652 l 2
 264 652 244 649 234 640 c 0
 226 633 225 622 225 605 c 2
 225 78 l 2
 225 60 226 48 236 41 c 4
 247 34 267 31 307 31 c 2
 333 31 l 1
 333 0 l 1
 298 3 219 3 180 3 c 0
 142 3 63 3 28 0 c 1
53 825 m 0
 53 841 66 862 88 862 c 0
 101 862 98 862 209 793 c 2
 254 765 l 1
 244 741 l 1
 229 745 214 750 96 787 c 0
 75 794 53 800 53 825 c 0
EndSplineSet
EndChar
StartChar: Iacute
Encoding: 205 205 166
Width: 361
Flags: MW
LayerCount: 2
Fore
SplineSet
28 0 m 1
 28 31 l 1
 54 31 l 2
 133 31 136 42 136 78 c 2
 136 605 l 2
 136 641 133 652 54 652 c 2
 28 652 l 1
 28 683 l 1
 63 680 142 680 181 680 c 0
 219 680 298 680 333 683 c 1
 333 652 l 1
 307 652 l 2
 228 652 225 641 225 605 c 2
 225 78 l 2
 225 42 228 31 307 31 c 2
 333 31 l 1
 333 0 l 1
 298 3 219 3 180 3 c 0
 142 3 63 3 28 0 c 1
81 765 m 1
 226 855 233 862 248 862 c 0
 270 862 282 841 282 825 c 0
 282 799 259 793 240 787 c 0
 151 759 106 745 92 741 c 1
 81 765 l 1
EndSplineSet
EndChar
StartChar: Icircumflex
Encoding: 206 206 167
Width: 361
Flags: MW
LayerCount: 2
Fore
SplineSet
28 0 m 1
 28 31 l 1
 54 31 l 2
 90 31 111 33 122 39 c 0
 135 46 136 59 136 78 c 2
 136 605 l 2
 136 624 135 637 122 644 c 0
 111 650 90 652 54 652 c 2
 28 652 l 1
 28 683 l 1
 63 680 142 680 181 680 c 0
 219 680 298 680 333 683 c 1
 333 652 l 1
 307 652 l 2
 264 652 244 649 234 640 c 0
 226 633 225 622 225 605 c 2
 225 78 l 2
 225 60 226 48 236 41 c 4
 247 34 267 31 307 31 c 2
 333 31 l 1
 333 0 l 1
 298 3 219 3 180 3 c 0
 142 3 63 3 28 0 c 1
46 762 m 1
 179 902 l 1
 180 902 l 1
 313 761 l 1
 295 744 l 1
 180 849 l 1
 179 849 l 1
 64 744 l 1
 46 762 l 1
EndSplineSet
EndChar
StartChar: Idieresis
Encoding: 207 207 168
Width: 361
Flags: MW
LayerCount: 2
Fore
SplineSet
28 0 m 1
 28 31 l 1
 54 31 l 2
 133 31 136 42 136 78 c 2
 136 605 l 2
 136 641 133 652 54 652 c 2
 28 652 l 1
 28 683 l 1
 63 680 142 680 181 680 c 0
 219 680 298 680 333 683 c 1
 333 652 l 1
 307 652 l 2
 228 652 225 641 225 605 c 2
 225 78 l 2
 225 42 228 31 307 31 c 2
 333 31 l 1
 333 0 l 1
 298 3 219 3 180 3 c 0
 142 3 63 3 28 0 c 1
30 813 m 0
 30 844 56 866 82 866 c 0
 110 866 135 844 135 813 c 0
 135 783 109 761 83 761 c 0
 52 761 30 785 30 813 c 0
224 813 m 0
 224 844 249 866 276 866 c 0
 302 866 329 844 329 813 c 0
 329 783 303 761 277 761 c 0
 246 761 224 785 224 813 c 0
EndSplineSet
EndChar
StartChar: Ograve
Encoding: 210 210 171
Width: 777
Flags: W
HStem: -22 26<327.838 449.052> 680 25<322.713 449.023> 796 66<278.455 352.572>
VStem: 56 103<212.237 467.533> 618 103<212.787 467.764>
LayerCount: 2
Fore
SplineSet
56 339 m 0
 56 545 209 705 388 705 c 0
 570 705 721 543 721 339 c 0
 721 137 570 -22 388 -22 c 0
 210 -22 56 134 56 339 c 0
159 353 m 0
 159 251 179 175 210 121 c 4
 258 37 330 4 389 4 c 0
 443 4 513 33 561 111 c 0
 595 166 618 244 618 353 c 0
 618 458 594 532 559 583 c 0
 510 655 439 680 388 680 c 0
 337 680 262 655 212 575 c 0
 180 525 159 453 159 353 c 0
275 825 m 4
 275 841 287 862 309 862 c 6
 310 862 l 6
 323 862 322 861 477 765 c 5
 466 742 l 5
 466 742 304 790 293 796 c 4
 287 799 275 808 275 825 c 4
EndSplineSet
EndChar
StartChar: Oacute
Encoding: 211 211 172
Width: 777
Flags: MW
LayerCount: 2
Fore
SplineSet
56 339 m 0
 56 545 209 705 388 705 c 0
 570 705 721 543 721 339 c 0
 721 137 570 -22 388 -22 c 0
 210 -22 56 134 56 339 c 0
159 353 m 0
 159 251 179 175 210 121 c 0
 258 37 330 4 389 4 c 0
 443 4 513 33 561 111 c 0
 595 166 618 244 618 353 c 0
 618 458 594 532 559 583 c 0
 510 655 439 680 388 680 c 0
 337 680 262 655 212 575 c 0
 180 525 159 453 159 353 c 0
300 765 m 1
 411.489296881 834.30415752 441.830380896 854.238423297 456 859.856042938 c 4
 460.64029078 861.6957105 463.54628484 862 467 862 c 0
 489 862 502 841 502 825 c 0
 502 802.572291692 488.027719446 795.793537604 430 777.92315255 c 0
 410.408037602 771.889554894 385.793986213 764.591569476 355 755 c 0
 340 750 325 745 310 741 c 1
 300 765 l 1
EndSplineSet
EndChar
StartChar: Ocircumflex
Encoding: 212 212 173
Width: 777
Flags: MW
LayerCount: 2
Fore
SplineSet
56 339 m 0
 56 545 209 705 388 705 c 0
 570 705 721 543 721 339 c 0
 721 137 570 -22 388 -22 c 0
 210 -22 56 134 56 339 c 0
159 353 m 0
 159 251 179 175 210 121 c 4
 258 37 330 4 389 4 c 0
 443 4 513 33 561 111 c 0
 595 166 618 244 618 353 c 0
 618 458 594 532 559 583 c 0
 510 655 439 680 388 680 c 0
 337 680 262 655 212 575 c 0
 180 525 159 453 159 353 c 0
255 761 m 1
 255 762 l 1
 388 902 l 1
 389 902 l 1
 522 762 l 1
 522 761 l 1
 505 744 l 1
 504 744 l 1
 389 849 l 1
 388 849 l 1
 273 744 l 1
 272 744 l 1
 255 761 l 1
EndSplineSet
EndChar
StartChar: Otilde
Encoding: 213 213 174
Width: 777
Flags: W
HStem: -22 26<327.838 449.052> 680 25<322.713 449.023> 807 47<382.826 536.953> 845 46<239.278 391.074>
VStem: 56 103<212.237 467.533> 618 103<212.787 467.764>
LayerCount: 2
Fore
SplineSet
56 339 m 0
 56 545 209 705 388 705 c 0
 570 705 721 543 721 339 c 0
 721 137 570 -22 388 -22 c 0
 210 -22 56 134 56 339 c 0
159 353 m 0
 159 251 179 175 210 121 c 4
 258 37 330 4 389 4 c 0
 443 4 513 33 561 111 c 0
 595 166 618 244 618 353 c 0
 618 458 594 532 559 583 c 0
 510 655 439 680 388 680 c 0
 337 680 262 655 212 575 c 0
 180 525 159 453 159 353 c 0
194 823 m 5xa0
 225 857 248 891 304 891 c 4x60
 366 891 421 854 483 854 c 4
 520 854 540 867 566 892 c 5
 583 876 l 5
 552 841 528 807 473 807 c 4xa0
 411 807 355 845 294 845 c 4x60
 257 845 237 832 211 807 c 5
 194 823 l 5xa0
EndSplineSet
EndChar
StartChar: Odieresis
Encoding: 214 214 175
Width: 777
Flags: W
HStem: -22 26<327.838 449.052> 680 25<322.713 449.023> 761 105<249.462 333.369 443.462 526.87>
VStem: 56 103<212.237 467.533> 239 105<771.695 855.23> 433 105<771.695 855.23> 618 103<212.787 467.764>
LayerCount: 2
Fore
SplineSet
56 339 m 0
 56 545 209 705 388 705 c 0
 570 705 721 543 721 339 c 0
 721 137 570 -22 388 -22 c 0
 210 -22 56 134 56 339 c 0
159 353 m 0
 159 251 179 175 210 121 c 4
 258 37 330 4 389 4 c 0
 443 4 513 33 561 111 c 0
 595 166 618 244 618 353 c 0
 618 458 594 532 559 583 c 0
 510 655 439 680 388 680 c 0
 337 680 262 655 212 575 c 0
 180 525 159 453 159 353 c 0
239 813 m 0
 239 844 264 866 291 866 c 0
 318 866 344 844 344 813 c 0
 344 783 317 761 292 761 c 0
 260 761 239 785 239 813 c 0
433 813 m 0
 433 844 458 866 485 866 c 0
 511 866 538 844 538 813 c 0
 538 783 512 761 486 761 c 0
 454 761 433 785 433 813 c 0
EndSplineSet
EndChar
StartChar: multiply
Encoding: 215 215 176
Width: 778
Flags: MW
LayerCount: 2
Fore
SplineSet
148 471 m 0
 148 483 160 490 165 490 c 2
 168 490 l 2
 180 490 195 472 197 470 c 2
 389 278 l 1
 389 278 l 1
 581 470 l 2
 589 478 598 490 610 490 c 0
 625 490 628 476 628 473 c 0
 628 466 627 462 619 453 c 0
 605 437 570 405 480 313 c 1
 417 250 l 1
 606 61 l 2
 615 52 628 41 628 29 c 0
 628 17 619 10 610 10 c 0
 604 10 600 10 580 30 c 2
 388 222 l 5
 388 222 l 1
 201 34 l 2
 191 24 179 10 167 10 c 0
 157 10 149 18 149 28 c 0
 149 33 150 37 153 42 c 0
 160 52 200 88 360 250 c 1
 172 439 l 2
 162 448 148 459 148 471 c 0
EndSplineSet
EndChar
StartChar: Oslash
Encoding: 216 216 132
Width: 778
Flags: W
HStem: -22 23<318.07 456.488> 683 22<325.162 455.741>
VStem: 55 90<213.396 465.263> 632 89<215.427 467.591>
LayerCount: 2
Fore
SplineSet
55 339 m 0
 55 537 201 705 388 705 c 0
 464 705 527 678 577 641 c 1
 643 739 l 1
 643 739 l 1
 664 725 l 1
 597 626 l 1
 597 625 l 1
 676 554 721 451 721 339 c 0
 721 141 574 -22 388 -22 c 0
 309 -22 248 7 199 41 c 1
 133 -56 l 1
 112 -42 l 1
 180 58 l 1
 156 78 55 170 55 339 c 0
145 338 m 0
 145 193 179 135 205 96 c 1
 553 607 l 1
 553 607 l 1
 517 645 465 683 388 683 c 0
 286 683 219 614 189 558 c 0
 152 490 145 411 145 338 c 0
223 75 m 1
 261 37 310 1 388 1 c 0
 488 1 558 65 591 130 c 0
 622.715162085 190.631927515 630.937252661 260.835106386 631.899094621 325.999996008 c 0
 631.968388071 330.69463418 632 335.363123055 632 340 c 0
 632 487 597 546 570 586 c 1
 223 76 l 1
 223 75 l 1
EndSplineSet
EndChar
StartChar: Uacute
Encoding: 218 218 178
Width: 750
Flags: MW
LayerCount: 2
Fore
SplineSet
33 652 m 1
 33 683 l 1
 68 680 143 680 181 680 c 0
 219 680 293 680 328 683 c 1
 328 652 l 1
 304 652 l 2
 227 652 225 641 225 605 c 2
 225 224 l 2
 225 34 343 9 390 9 c 0
 485 9 582 89 582 231 c 2
 582 578 l 2
 582 595 581 620 556 636 c 0
 545 643 531 648 510 650 c 0
 501 651 491 652 479 652 c 1
 479 683 l 1
 515 682 563 680 598 680 c 0
 632 680 680 682 716 683 c 1
 716 652 l 1
 704 652 693 651 684 650 c 0
 661 647 646 642 635 634 c 0
 613 618 613 594 613 574 c 2
 613 254 l 2
 613 214 613 205 610 185 c 0
 593 71 503 -22 388 -22 c 0
 252 -22 136 87 136 228 c 2
 136 605 l 2
 136 641 134 652 57 652 c 2
 33 652 l 1
328 765 m 1
 432.210820158 829.779699017 465.52294645 851.42522764 481 858.563013055 c 0
 487.50342719 861.562296322 490.857780285 862 495 862 c 0
 517 862 530 841 530 825 c 0
 530 800.639850989 513.516198338 794.74155984 442 773.03970876 c 4
 425.442601202 768.015305739 405.935394023 762.143811253 383 755 c 0
 368 750 353 745 338 741 c 1
 328 765 l 1
EndSplineSet
EndChar
StartChar: Udieresis
Encoding: 220 220 180
Width: 750
Flags: MW
LayerCount: 2
Fore
SplineSet
33 652 m 1
 33 683 l 1
 68 680 143 680 181 680 c 0
 219 680 293 680 328 683 c 1
 328 652 l 1
 304 652 l 2
 227 652 225 641 225 605 c 2
 225 224 l 2
 225 34 343 9 390 9 c 0
 485 9 582 89 582 231 c 2
 582 578 l 2
 582 595 581 620 556 636 c 0
 545 643 531 648 510 650 c 0
 501 651 491 652 479 652 c 1
 479 683 l 1
 515 682 563 680 598 680 c 0
 632 680 680 682 716 683 c 1
 716 652 l 1
 704 652 693 651 684 650 c 0
 661 647 646 642 635 634 c 4
 613 618 613 594 613 574 c 2
 613 254 l 2
 613 214 613 205 610 185 c 0
 593 71 503 -22 388 -22 c 0
 252 -22 136 87 136 228 c 2
 136 605 l 2
 136 641 134 652 57 652 c 2
 33 652 l 1
224 814 m 0
 224 841 246 866 277 866 c 0
 304 866 329 845 329 814 c 0
 329 783 303 761 277 761 c 0
 246 761 224 787 224 814 c 0
419 813 m 0
 419 844 445 866 472 866 c 0
 503 866 524 840 524 814 c 0
 524 787 502 761 472 761 c 0
 446 761 419 783 419 813 c 0
EndSplineSet
EndChar
StartChar: Thorn
Encoding: 222 222 182
Width: 625
Flags: MW
LayerCount: 2
Fore
SplineSet
35 0 m 1
 35 31 l 1
 51 31 l 2
 88 31 110 33 122 39 c 4
 134 45 138 56 138 73 c 1
 138 610 l 1
 138 628 134 638 122 644 c 0
 109 650 87 652 50 652 c 2
 35 652 l 1
 35 683 l 1
 82 681 128 680 175 680 c 2
 325 683 l 1
 325 652 l 1
 314 652 l 2
 276 652 253 650 240 645 c 0
 225 639 222 627 222 605 c 2
 222 552 l 1
 351 552 l 2
 501 552 568 446 568 365 c 0
 568 300 523 208 408 184 c 0
 390 180 371 178 350 178 c 2
 222 178 l 1
 222 78 l 2
 222 60 223 48 234 41 c 0
 246 33 269 31 315 31 c 2
 325 31 l 1
 325 0 l 1
 275 2 225 3 175 3 c 2
 168 3 l 2
 150 3 109 3 35 0 c 1
222 209 m 1
 300 209 l 2
 308 209 315 208 323 208 c 0
 426 208 468 296 468 366 c 0
 468 438 425 521 342 521 c 2
 222 521 l 1
 222 209 l 1
EndSplineSet
EndChar
StartChar: germandbls
Encoding: 223 223 140
Width: 500
Flags: W
HStem: -11 23<299.322 379.301> 0 21G<149 172> 2 29<27 99.4329> 400 30<27 105> 682 23<213.399 309.524>
VStem: 105 67<35.1207 400 430 642.518> 227 50<290.456 403.62> 227 24.46<90.6607 162.762> 363 25<465.306 623.677> 417 49<43.6833 163.686>
LayerCount: 2
Fore
SplineSet
27 0 m 1x7f
 27 31 l 1
 35 31 l 2x7f
 100 31 105 39 105 77 c 2
 105 400 l 1
 27 400 l 1
 27 430 l 1
 105 430 l 1
 105 554 l 2
 105 559.16417664 105.145720759 564.162595917 105.430165634 569 c 0
 111.810448231 677.506103463 187.987540205 705 255 705 c 0
 261.531258206 705 268.114588352 704.687568356 274.671343403 704 c 0
 332.364432726 697.950064889 388 662.855941774 388 556 c 0
 388 426 344 428 328 426 c 0
 318 425 277 417 277 351 c 0
 277 267 345 274 377 263 c 0
 398.1479342 255.56964474 424.196180171 238.338665939 442.634272058 210 c 0
 456.455094605 188.757906428 466 161.274736864 466 127 c 0
 466 44 417 -11 337 -11 c 0
 308 -11 291 -3 270 16 c 1
 262 8 250 -9 239 -9 c 0
 229 -9 227 2 227 12 c 2
 227 137 l 1
 228 148 227 158 235 163 c 0
 237 164 239 165 241 165 c 0
 245.757033146 165 248.980328161 160.883123965 251.459958681 154.000000568 c 0
 264.096742713 118.921974566 257.419348817 12 336 12 c 0xbf
 389 12 417 49 417 101 c 0
 417 143 394 173 368 186 c 0
 344 198 312 194 282 213 c 1
 265 225 227 258 227 324 c 0
 227 350.285131998 232.864189665 398.427698202 269.893490614 425.99999928 c 0
 283.579355724 436.190599255 301.522402329 443.571283 325 446 c 1
 344 449 363 457 363 554 c 0
 363 665 300 682 259 682 c 0
 177 682 172 610 172 561 c 2
 172 0 l 1
 149 2 l 1
 99 2 l 1
 27 0 l 1x7f
EndSplineSet
EndChar
StartChar: agrave
Encoding: 224 224 183
Width: 457
Flags: MW
LayerCount: 2
Fore
SplineSet
42 95 m 0
 42 139 67 191 142 225 c 1
 205 255 275 258 326 261 c 1
 326 298 l 2
 326 387 269 426 220 426 c 0
 188 426 139 415 112 380 c 1
 158 379 163 346 163 334 c 0
 163 308 145 288 117 288 c 0
 91 288 71 305 71 335 c 0
 71 357 79 377 92 394 c 4
 119 427 167 448 222 448 c 0
 270 448 320 432 359 393 c 0
 395 356 395 317 395 275 c 2
 395 75 l 2
 395 70 399 25 432 25 c 0
 445 25 457 27 457 11 c 0
 457 -6 445 -6 425 -6 c 2
 411 -6 l 2
 364 -6 337 36 333 76 c 1
 314 29 268 -11 202 -11 c 0
 139 -11 42 14 42 95 c 0
119 96 m 0
 119 46 160 11 209 11 c 0
 254 11 326 45 326 140 c 2
 326 240 l 1
 161 234 119 151 119 96 c 0
155 605 m 0
 155 622 169 642 190 642 c 0
 199 642 205 639 222 624 c 4
 241 607 273 574 340 510 c 1
 325 490 l 1
 307 499 235 540 191 565 c 0
 182 570 155 581 155 605 c 0
EndSplineSet
EndChar
StartChar: aacute
Encoding: 225 225 184
Width: 457
Flags: W
HStem: -11 22<164.178 255.693> -6 31<406.652 456.965> 240 21<251.411 326> 288 92<112 156.397> 426 22<161.955 263.37>
VStem: 42 77<41.1944 162.511> 71 92<294.401 372.697> 326 69<62.5586 240 259.822 375.091>
LayerCount: 2
Fore
SplineSet
42 95 m 0xbd
 42 139 67 191 142 225 c 1
 205 255 275 258 326 261 c 1
 326 298 l 2
 326 387 269 426 220 426 c 0
 188 426 139 415 112 380 c 1
 158 379 163 346 163 334 c 0
 163 308 145 288 117 288 c 0
 91 288 71 305 71 335 c 0
 71 357.040935497 78.6952240112 376.962896266 91.9999986872 393.723045634 c 4
 118.535417216 427.149961078 167.384192587 448 222 448 c 0
 270 448 320 432 359 393 c 0
 395 356 395 317 395 275 c 2
 395 75 l 2
 395 70 399 25 432 25 c 0
 445 25 457 27 457 11 c 0
 457 -6 445 -6 425 -6 c 2
 411 -6 l 2x7b
 364 -6 337 36 333 76 c 1
 314 29 268 -11 202 -11 c 0
 139 -11 42 14 42 95 c 0xbd
119 96 m 0xbd
 119 46 160 11 209 11 c 0
 254 11 326 45 326 140 c 2
 326 240 l 1
 161 234 119 151 119 96 c 0xbd
158 510 m 5
 284 633 289 642 308 642 c 4
 329 642 343 622 343 605 c 4
 343 582 336 582 214 513 c 4
 201 505 187 497 173 490 c 5
 158 510 l 5
EndSplineSet
EndChar
StartChar: acircumflex
Encoding: 226 226 185
Width: 457
Flags: MW
LayerCount: 2
Fore
SplineSet
87 500 m 1
 221 649 l 1
 222 649 l 1
 355 500 l 1
 337 482 l 1
 222 596 l 1
 221 596 l 1
 105 482 l 1
 87 500 l 1
42 95 m 0
 42 139 67 191 142 225 c 1
 205 255 275 258 326 261 c 1
 326 298 l 2
 326 387 269 426 220 426 c 0
 188 426 139 415 112 380 c 1
 158 379 163 346 163 334 c 0
 163 308 145 288 117 288 c 0
 91 288 71 305 71 335 c 0
 71 357.040935497 78.6952240112 376.962896266 91.9999986872 393.723045634 c 4
 118.535417216 427.149961078 167.384192587 448 222 448 c 0
 270 448 320 432 359 393 c 0
 395 356 395 317 395 275 c 2
 395 75 l 2
 395 70 399 25 432 25 c 0
 445 25 457 27 457 11 c 0
 457 -6 445 -6 425 -6 c 2
 411 -6 l 2
 364 -6 337 36 333 76 c 1
 314 29 268 -11 202 -11 c 0
 139 -11 42 14 42 95 c 0
119 96 m 0
 119 46 160 11 209 11 c 0
 254 11 326 45 326 140 c 2
 326 240 l 1
 161 234 119 151 119 96 c 0
EndSplineSet
EndChar
StartChar: atilde
Encoding: 227 227 186
Width: 457
Flags: MW
LayerCount: 2
Fore
SplineSet
78 551 m 1
 112 591 143 630 186 630 c 0
 233 630 267 583 314 583 c 0
 346 583 369 605 394 631 c 1
 411 616 l 1
 377 577 346 537 303 537 c 0
 257 537 222 584 175 584 c 0
 136 584 104 546 95 537 c 1
 78 551 l 1
42 95 m 0
 42 139 67 191 142 225 c 1
 205 255 275 258 326 261 c 1
 326 298 l 2
 326 387 269 426 220 426 c 0
 188 426 139 415 112 380 c 1
 158 379 163 346 163 334 c 0
 163 308 145 288 117 288 c 0
 91 288 71 305 71 335 c 0
 71 357 79 377 92 394 c 4
 119 427 167 448 222 448 c 0
 270 448 320 432 359 393 c 0
 395 356 395 317 395 275 c 2
 395 75 l 2
 395 70 399 25 432 25 c 0
 445 25 457 27 457 11 c 0
 457 -6 445 -6 425 -6 c 2
 411 -6 l 2
 364 -6 337 36 333 76 c 1
 314 29 268 -11 202 -11 c 0
 139 -11 42 14 42 95 c 0
119 96 m 0
 119 46 160 11 209 11 c 0
 254 11 326 45 326 140 c 2
 326 240 l 1
 161 234 119 151 119 96 c 0
EndSplineSet
EndChar
StartChar: adieresis
Encoding: 228 228 187
Width: 457
Flags: MW
LayerCount: 2
Fore
SplineSet
42 95 m 0
 42 139 67 191 142 225 c 1
 205 255 275 258 326 261 c 1
 326 298 l 2
 326 387 269 426 220 426 c 0
 188 426 139 415 112 380 c 1
 158 379 163 346 163 334 c 0
 163 308 145 288 117 288 c 0
 91 288 71 305 71 335 c 0
 71 357 79 377 92 394 c 4
 119 427 167 448 222 448 c 0
 270 448 320 432 359 393 c 0
 395 356 395 317 395 275 c 2
 395 75 l 2
 395 70 399 25 432 25 c 0
 445 25 457 27 457 11 c 0
 457 -6 445 -6 425 -6 c 2
 411 -6 l 2
 364 -6 337 36 333 76 c 1
 314 29 268 -11 202 -11 c 0
 139 -11 42 14 42 95 c 0
119 96 m 0
 119 46 160 11 209 11 c 0
 254 11 326 45 326 140 c 2
 326 240 l 1
 161 234 119 151 119 96 c 0
100 606 m 0
 100 637 125 659 152 659 c 0
 178 659 205 637 205 606 c 0
 205 575 179 554 153 554 c 0
 122 554 100 578 100 606 c 0
294 606 m 4
 294 637 320 659 347 659 c 4
 374 659 399 637 399 606 c 4
 399 575 373 554 347 554 c 4
 316 554 294 580 294 606 c 4
EndSplineSet
EndChar
StartChar: aring
Encoding: 229 229 188
Width: 457
Flags: MW
LayerCount: 2
Fore
SplineSet
42 95 m 0
 42 139 67 191 142 225 c 1
 205 255 275 258 326 261 c 1
 326 298 l 2
 326 387 269 426 220 426 c 0
 188 426 139 415 112 380 c 1
 158 379 163 346 163 334 c 0
 163 308 145 288 117 288 c 0
 91 288 71 305 71 335 c 0
 71 357 79 377 92 394 c 4
 119 427 167 448 222 448 c 0
 270 448 320 432 359 393 c 0
 395 356 395 317 395 275 c 2
 395 75 l 2
 395 70 399 25 432 25 c 0
 445 25 457 27 457 11 c 0
 457 -6 445 -6 425 -6 c 2
 411 -6 l 2
 364 -6 337 36 333 76 c 1
 314 29 268 -11 202 -11 c 0
 139 -11 42 14 42 95 c 0
119 96 m 0
 119 46 160 11 209 11 c 0
 254 11 326 45 326 140 c 2
 326 240 l 1
 161 234 119 151 119 96 c 0
126 580 m 0
 126 621 165 661 221 661 c 0
 267 661 317 631 317 580 c 0
 317 540 279 500 222 500 c 0
 176 500 126 530 126 580 c 0
151 580 m 0
 151 559 159 522 220 522 c 0
 272 522 292 545 292 580 c 0
 292 602 284 638 223 638 c 0
 171 638 151 615 151 580 c 0
EndSplineSet
EndChar
StartChar: ccedilla
Encoding: 231 231 189
Width: 444
Flags: W
HStem: -204 23<131 256.23> -71 86<215.762 281.511> 294 92<319.943 360> 421 26<202.889 320.927>
VStem: 33 84<119.378 314.136> 215 70<-59.2973 -3.56177> 297 71<-160.877 -87.4293> 313 92<301 377.615>
LayerCount: 2
Fore
SplineSet
33 216 m 0xfc
 33 337 124 447 251 447 c 0
 334 447 405 405 405 342 c 0
 405 305 376 294 359 294 c 0
 334 294 313 312 313 340 c 0xfa
 313 380 352 385 360 386 c 1
 350 394 317 421 253 421 c 0
 212.131321471 421 155.224587808 397.515704982 129.964953208 315 c 4
 121.848899689 288.487269773 117 255.880309654 117 216 c 0
 117 62 202 15 259 15 c 0
 289 15 347 26 379 91 c 0
 385 103 389 121 396 126 c 0
 403 131 415 128 415 117 c 0
 415 98 383 13 285 -8 c 1
 285 -54 l 1
 298 -57 368 -68 368 -126 c 0
 368 -188 291 -204 144 -204 c 2
 131 -204 l 1
 131 -181 l 1
 163 -181 l 2
 210 -181 297 -177 297 -126 c 0
 297 -104 280 -74 215 -71 c 1
 215 -8 l 1
 108 11 33 106 33 216 c 0xfc
EndSplineSet
EndChar
StartChar: egrave
Encoding: 232 232 190
Width: 444
Flags: W
HStem: -11 25<200.371 309.106> 231 21<112 349> 426 22<193.379 281.003>
VStem: 28 83<122.175 231 252 318.446> 349 66<252 353.625> 389 26<90.6622 130.996>
LayerCount: 2
Fore
SplineSet
28 220 m 0xf4
 28 345 120 448 236 448 c 0
 285 448 323 433 351 409 c 0
 395 371 415 312 415 252 c 0xf8
 415 231 412 231 390 231 c 2
 111 231 l 1
 111 195 111 129 141 81 c 0
 164 44 204 14 254 14 c 0
 264 14 354 14 389 117 c 0
 391 125 393 131 402 131 c 0
 407 131 415 129 415 119 c 0
 415 100 370 -11 248 -11 c 0
 133 -11 28 86 28 220 c 0xf4
112 252 m 1
 349 252 l 1
 349 291 339 426 236 426 c 0
 215 426 173 416 144 371 c 0
 127 345 114 307 112 252 c 1
155 605 m 0
 155 622 169 642 190 642 c 0
 192.859273417 642 195.391529055 641.775175277 198 641.036249922 c 0
 212.06171243 637.05286039 228.33828659 618.129403515 310 538.948071509 c 4
 319.14957141 530.076407895 329.119954597 520.448297569 340 510 c 1
 325 490 l 1
 307 499 235 540 191 565 c 0
 182 570 155 581 155 605 c 0
EndSplineSet
EndChar
StartChar: ecircumflex
Encoding: 234 234 192
Width: 444
Flags: MW
LayerCount: 2
Fore
SplineSet
28 220 m 0
 28 345 120 448 236 448 c 0
 285 448 323 433 351 409 c 4
 395 371 415 312 415 252 c 0
 415 231 412 231 390 231 c 2
 111 231 l 1
 111 195 111 129 141 81 c 0
 164 44 204 14 254 14 c 0
 264 14 354 14 389 117 c 0
 391 125 393 131 402 131 c 0
 407 131 415 129 415 119 c 0
 415 100 370 -11 248 -11 c 0
 133 -11 28 86 28 220 c 0
112 252 m 1
 349 252 l 1
 349 291 339 426 236 426 c 0
 215 426 173 416 144 371 c 0
 127 345 114 307 112 252 c 1
87 500 m 1
 221 649 l 1
 222 649 l 1
 355 500 l 1
 337 482 l 1
 337 482 l 5
 222 596 l 1
 221 596 l 1
 105 482 l 1
 105 482 l 1
 87 500 l 1
EndSplineSet
EndChar
StartChar: edieresis
Encoding: 235 235 205
Width: 444
Flags: W
HStem: -11 25<200.371 309.106> 231 21<112 349> 426 22<193.379 281.003> 554 105<81.7705 165.648 276.073 360.648>
VStem: 28 83<122.175 231 252 318.446> 71 105<564.387 648.23> 266 105<564.695 648.979> 349 66<252 353.625> 389 26<90.6622 130.996>
LayerCount: 2
Fore
SplineSet
28 220 m 0xf4
 28 345 120 448 236 448 c 0
 285 448 323 433 351 409 c 4
 395 371 415 312 415 252 c 0xf8
 415 231 412 231 390 231 c 2
 111 231 l 1
 111 195 111 129 141 81 c 0
 164 44 204 14 254 14 c 0
 264 14 354 14 389 117 c 0
 391 125 393 131 402 131 c 0
 407 131 415 129 415 119 c 0
 415 100 370 -11 248 -11 c 0
 133 -11 28 86 28 220 c 0xf4
112 252 m 1
 349 252 l 1
 349 291 339 426 236 426 c 0
 215 426 173 416 144 371 c 0
 127 345 114 307 112 252 c 1
71 606 m 0
 71 637 97 659 124 659 c 0
 151 659 176 637 176 606 c 0
 176 575 150 554 124 554 c 0
 93 554 71 580 71 606 c 0
266 606 m 0x16
 266 637 291 659 318 659 c 0
 346 659 371 637 371 606 c 0
 371 576 345 554 319 554 c 0
 288 554 266 578 266 606 c 0x16
EndSplineSet
EndChar
StartChar: igrave
Encoding: 236 236 193
Width: 277
Flags: W
HStem: 0 31<35 108.404 182.774 249> 400 31<39 106.079> 422 20G<39 179>
VStem: 113 66<34.0171 395.048>
LayerCount: 2
Fore
SplineSet
35 0 m 1
 35 31 l 1
 102 31 113 31 113 76 c 2
 113 345 l 2
 113 394 104 400 39 400 c 1
 39 431 l 1
 179 442 l 1
 179 75 l 2
 179 36 183 31 249 31 c 1
 249 0 l 1
 215 1 180 3 145 3 c 0
 121 3 67 1 35 0 c 1
-4 605 m 0xf0
 -4 622 10 642 31 642 c 0
 51 642 55 631 180 510 c 1
 165 490 l 1
 138 504 139 505 32 565 c 0
 23 570 -4 581 -4 605 c 0xf0
EndSplineSet
EndChar
StartChar: iacute
Encoding: 237 237 194
Width: 277
Flags: W
HStem: 0 31<33 106.404 180.774 247> 400 31<37 104.079> 422 20G<37 177>
VStem: 111 66<34.0171 395.048>
LayerCount: 2
Fore
SplineSet
33 0 m 1
 33 31 l 1
 100 31 111 31 111 76 c 2
 111 345 l 2
 111 394 102 400 37 400 c 1
 37 431 l 1
 177 442 l 1
 177 75 l 2
 177 36 181 31 247 31 c 1
 247 0 l 1
 213 1 178 3 143 3 c 0
 119 3 65 1 33 0 c 1
80 510 m 1xf0
 208 635 211 642 230 642 c 0
 251 642 265 622 265 605 c 0
 265 582 245 575 196 547 c 0
 116 501 105 495 95 490 c 1
 80 510 l 1xf0
EndSplineSet
EndChar
StartChar: icircumflex
Encoding: 238 238 195
Width: 277
Flags: MW
LayerCount: 2
Fore
SplineSet
10 500 m 1
 144 649 l 1
 145 649 l 1
 278 500 l 1
 260 482 l 1
 145 596 l 1
 144 596 l 1
 28 482 l 1
 10 500 l 1
34 0 m 1
 34 31 l 1
 101 31 112 31 112 76 c 2
 112 345 l 2
 112 394 103 400 38 400 c 1
 38 431 l 1
 178 442 l 1
 178 75 l 2
 178 36 182 31 248 31 c 1
 248 0 l 1
 214 1 179 3 144 3 c 0
 120 3 66 1 34 0 c 1
EndSplineSet
EndChar
StartChar: idieresis
Encoding: 239 239 196
Width: 333
Flags: W
HStem: 0 31<61 134.404 208.774 275> 400 31<65 132.079> 422 20G<65 205> 554 105<31.7705 115.648 225.77 309.648>
VStem: 21 105<564.387 648.23> 139 66<34.0171 395.048> 215 105<564.387 648.23>
LayerCount: 2
Fore
SplineSet
61 0 m 1
 61 31 l 1
 128 31 139 31 139 76 c 2
 139 345 l 2
 139 394 130 400 65 400 c 1
 65 431 l 1
 205 442 l 1
 205 75 l 2
 205 36 209 31 275 31 c 1
 275 0 l 1
 241 1 206 3 171 3 c 0
 147 3 93 1 61 0 c 1
21 606 m 4
 21 637 47 659 74 659 c 4
 101 659 126 637 126 606 c 4
 126 575 100 554 74 554 c 4
 43 554 21 580 21 606 c 4
215 606 m 4
 215 637 241 659 268 659 c 4
 295 659 320 637 320 606 c 4
 320 575 294 554 268 554 c 4
 237 554 215 580 215 606 c 4
EndSplineSet
EndChar
StartChar: eth
Encoding: 240 240 197
Width: 500
Flags: MW
LayerCount: 2
Fore
SplineSet
27 213 m 0
 27 345 131 447 247 447 c 0
 321 447 363 381 371 370 c 1
 340 472 287 530 237 579 c 1
 237 579 l 5
 130 517 l 1
 116 512 l 1
 109 511 105 515 103 520 c 1
 104 525 l 1
 105 529 l 1
 139 554 180 573 217 596 c 1
 119 665 89 662 70 672 c 1
 64 674 62 678 62 681 c 0
 62 687 68 693 79 693 c 0
 86 693 96 691 105 690 c 0
 205 672 251 627 266 627 c 0
 281 627 373 692 389 692 c 0
 396 692 402 684 399 677 c 0
 395 669 378 661 287 609 c 1
 320 584 347 557 369 531 c 0
 464 418 471 302 471 253 c 2
 471 223 l 2
 471 63 350 -11 249 -11 c 0
 131 -11 27 84 27 213 c 0
111 222 m 0
 111 175 115 135 130 100 c 0
 143 71 169 37 208 22 c 0
 220 17 234 15 249 15 c 0
 278 15 314 26 342 59 c 0
 368 89 387 138 387 214 c 0
 387 333 326 424 248 424 c 0
 226 424 175 416 140 359 c 0
 119 326 114 285 112 253 c 0
 111 241 111 231 111 222 c 0
EndSplineSet
EndChar
StartChar: ntilde
Encoding: 241 241 198
Width: 555
Flags: W
HStem: 0 31<32 105.404 183.596 257 310 383.404 460.605 535> 400 31<32 102.419> 420 22<265.663 353.632> 537 46<291.278 394.041> 584 46<169.952 274.115>
VStem: 110 69<34.0171 394.709> 388 69<34.4093 393.263>
LayerCount: 2
Fore
SplineSet
116 551 m 1
 150 591 181 630 224 630 c 0
 271 630 305 583 352 583 c 0
 384 583 407 605 432 631 c 1
 449 616 l 1
 415 577 384 537 341 537 c 0
 295 537 260 584 213 584 c 0
 174 584 142 546 133 537 c 1
 116 551 l 1
32 0 m 1xb8
 32 31 l 1
 99 31 110 31 110 76 c 2
 110 344 l 2
 110 393 102 400 32 400 c 1
 32 431 l 1xd8
 173 442 l 1
 173 337 l 1
 201 399 248 442 321 442 c 0
 379 442 412 422 426 405 c 0
 457 369 457 338 457 252 c 2
 457 61 l 1
 458 31 483 31 535 31 c 1
 535 0 l 1
 501 1 449 3 423 3 c 0
 396 3 345 1 310 0 c 1
 310 31 l 1
 377 31 388 31 388 76 c 2
 388 309 l 2
 388 366 377 420 314 420 c 0
 250 420 179 364 179 260 c 2
 179 76 l 2
 179 31 190 31 257 31 c 1
 257 0 l 1
 223 1 171 3 145 3 c 0
 118 3 67 1 32 0 c 1xb8
EndSplineSet
EndChar
StartChar: ograve
Encoding: 242 242 199
Width: 500
Flags: W
HStem: -11 25<194.976 303.41> 426 22<198.857 300.319>
VStem: 28 83<117.95 313.472> 388 83<118.022 313.836>
LayerCount: 2
Fore
SplineSet
28 214 m 0
 28 339 125 448 250 448 c 0
 371 448 471 342 471 214 c 0
 471 87 370 -11 249 -11 c 0
 132 -11 28 85 28 214 c 0
111 222 m 0
 111 186 111 125 136 81 c 0
 163 35 207 14 250 14 c 0
 300 14 344 43 366 88 c 0
 388 132 388 186 388 222 c 0
 388 260 388 318 362 361 c 0
 336 404 293 426 249 426 c 0
 209 426 162 405 135 359 c 1
 111 315 111 261 111 222 c 0
155 605 m 0
 155 622 169 642 190 642 c 0
 199.028710606 642 204.796716603 639.758265582 220 626.166809654 c 4
 238.474356879 609.651074153 270.880876816 576.376300835 340 510 c 1
 325 490 l 1
 307 499 235 540 191 565 c 0
 182 570 155 581 155 605 c 0
EndSplineSet
EndChar
StartChar: ocircumflex
Encoding: 244 244 201
Width: 500
Flags: MW
LayerCount: 2
Fore
SplineSet
115 500 m 1
 249 649 l 1
 250 649 l 1
 383 500 l 1
 365 482 l 1
 250 596 l 1
 249 596 l 1
 133 482 l 1
 115 500 l 1
28 214 m 0
 28 339 125 448 250 448 c 0
 371 448 471 342 471 214 c 0
 471 87 370 -11 249 -11 c 0
 132 -11 28 85 28 214 c 0
111 222 m 0
 111 186 111 125 136 81 c 0
 163 35 207 14 250 14 c 0
 300 14 344 43 366 88 c 0
 388 132 388 186 388 222 c 0
 388 260 388 318 362 361 c 0
 336 404 293 426 249 426 c 0
 209 426 162 405 135 359 c 1
 111 315 111 261 111 222 c 0
EndSplineSet
EndChar
StartChar: otilde
Encoding: 245 245 202
Width: 500
Flags: W
HStem: -11 25<194.976 303.41> 426 22<198.857 300.319> 537 46<257.278 360.041> 584 46<135.952 240.115>
VStem: 28 83<117.95 313.472> 388 83<118.022 313.836>
LayerCount: 2
Fore
SplineSet
82 551 m 1
 116 591 147 630 190 630 c 0
 237 630 271 583 318 583 c 0
 350 583 373 605 398 631 c 1
 415 616 l 1
 381 577 350 537 307 537 c 0
 261 537 226 584 179 584 c 0
 140 584 108 546 99 537 c 1
 82 551 l 1
28 214 m 0
 28 339 125 448 250 448 c 0
 371 448 471 342 471 214 c 0
 471 87 370 -11 249 -11 c 0
 132 -11 28 85 28 214 c 0
111 222 m 0
 111 186 111 125 136 81 c 0
 163 35 207 14 250 14 c 0
 300 14 344 43 366 88 c 0
 388 132 388 186 388 222 c 0
 388 260 388 318 362 361 c 0
 336 404 293 426 249 426 c 0
 209 426 162 405 135 359 c 1
 111 315 111 261 111 222 c 0
EndSplineSet
EndChar
StartChar: odieresis
Encoding: 246 246 203
Width: 500
Flags: W
HStem: -11 25<194.976 303.41> 426 22<198.857 300.319> 554 105<109.77 193.648 304.387 388.867>
VStem: 28 83<117.95 313.472> 99 105<564.387 648.23> 294 105<564.387 648.979> 388 83<118.022 313.836>
LayerCount: 2
Fore
SplineSet
28 214 m 0
 28 339 125 448 250 448 c 0
 371 448 471 342 471 214 c 0
 471 87 370 -11 249 -11 c 0
 132 -11 28 85 28 214 c 0
111 222 m 0
 111 186 111 125 136 81 c 0
 163 35 207 14 250 14 c 0
 300 14 344 43 366 88 c 0
 388 132 388 186 388 222 c 0
 388 260 388 318 362 361 c 0
 336 404 293 426 249 426 c 0
 209 426 162 405 135 359 c 1
 111 315 111 261 111 222 c 0
99 606 m 0xe8
 99 637 125 659 152 659 c 0
 178 659 204 637 204 606 c 0
 204 575 178 554 152 554 c 0
 121 554 99 578 99 606 c 0xe8
294 606 m 0xe4
 294 637 319 659 346 659 c 0
 374 659 399 637 399 606 c 0
 399 575 374 554 346 554 c 0
 315 554 294 581 294 606 c 0xe4
EndSplineSet
EndChar
StartChar: divide
Encoding: 247 247 204
Width: 778
Flags: MW
LayerCount: 2
Fore
SplineSet
56 250 m 0
 56 261 63 267 72 269 c 0
 77 270 82 270 88 270 c 2
 689 270 l 2
 695 270 701 270 706 268 c 4
 714 266 720 261 720 250 c 0
 720 233 704 230 692 230 c 2
 85 230 l 2
 61 230 56 242 56 250 c 0
325 35 m 0
 325 70 354 97 388 97 c 0
 421 97 451 71 451 35 c 0
 451 -2 421 -28 388 -28 c 0
 351 -28 325 3 325 35 c 0
325 465 m 0
 325 500 354 528 388 528 c 0
 421 528 451 502 451 465 c 0
 451 429 421 403 388 403 c 0
 351 403 325 434 325 465 c 0
EndSplineSet
EndChar
StartChar: oslash
Encoding: 248 248 138
Width: 500
Flags: MW
LayerCount: 2
Fore
SplineSet
34 213 m 0
 34 336 126 447 249 447 c 0
 292 447 324 434 353 418 c 1
 419 533 l 1
 419 533 l 1
 439 522 l 1
 439 522 l 1
 372 405 l 1
 392 389 464 328 464 213 c 0
 464 91 371 -11 249 -11 c 0
 229 -11 193 -8 147 16 c 1
 79 -103 l 1
 59 -92 l 1
 59 -92 l 1
 128 28 l 1
 68 71 34 139 34 213 c 0
104 213 m 0
 104 113 127 81 146 59 c 1
 337 391 l 1
 313 410 288 424 250 424 c 0
 197 424 152 394 128 348 c 0
 110 314 105 272 104 241 c 0
 104 230 104 220 104 213 c 0
163 42 m 1
 187 25 212 12 249 12 c 0
 297 12 349 38 375 93 c 0
 384 114 395 147 395 213 c 0
 395 221 395 229 395 237 c 0
 393 301 380 338 354 373 c 1
 353 373 l 1
 163 42 l 1
EndSplineSet
EndChar
StartChar: ugrave
Encoding: 249 249 211
Width: 555
Flags: W
HStem: -11 22<215.4 313.528> 0 31<464.581 535> 400 31<32 101.966 310 380.419> 422 20G<32 179 310 457>
VStem: 110 69<41.2321 394.985> 388 69<36.2905 394.709>
LayerCount: 2
Fore
SplineSet
32 400 m 1xbc
 32 431 l 1
 179 442 l 1
 179 110 l 2
 179 58 183 11 267 11 c 0xbc
 340 11 388 79 388 166 c 2
 388 344 l 2
 388 393 380 400 310 400 c 1
 310 431 l 1
 457 442 l 1
 457 87 l 2
 457 38 465 31 535 31 c 1
 535 0 l 1x7c
 391 -11 l 1
 391 79 l 1
 362 17 318 -11 262 -11 c 0
 110 -11 110 80 110 158 c 2
 110 308 l 2
 110 397 110 400 32 400 c 1xbc
174 605 m 0
 174 622 188 642 209 642 c 0
 217.828014266 642 223.538675097 639.856819513 238 627.05644598 c 4
 256.30102565 610.857379441 288.616489875 577.590513691 359 510 c 1
 344 490 l 1
 326 499 254 540 210 565 c 0
 201 570 174 581 174 605 c 0
EndSplineSet
EndChar
StartChar: uacute
Encoding: 250 250 206
Width: 555
Flags: MW
LayerCount: 2
Fore
SplineSet
32 400 m 1
 32 431 l 1
 179 442 l 1
 179 110 l 2
 179 58 183 11 267 11 c 0
 340 11 388 79 388 166 c 2
 388 344 l 2
 388 393 380 400 310 400 c 1
 310 431 l 1
 457 442 l 1
 457 87 l 2
 457 38 465 31 535 31 c 1
 535 0 l 1
 391 -11 l 1
 391 79 l 1
 362 17 318 -11 262 -11 c 0
 110 -11 110 80 110 158 c 2
 110 308 l 2
 110 397 110 400 32 400 c 1
191 510 m 1
 317 633 322 642 341 642 c 0
 362 642 376 622 376 605 c 0
 376 582 369 582 247 513 c 0
 234 505 220 497 206 490 c 1
 191 510 l 1
EndSplineSet
EndChar
StartChar: ucircumflex
Encoding: 251 251 207
Width: 555
Flags: MW
LayerCount: 2
Fore
SplineSet
148 500 m 1
 282 649 l 1
 283 649 l 1
 416 500 l 1
 398 482 l 1
 283 596 l 1
 282 596 l 1
 166 482 l 1
 148 500 l 1
32 400 m 1
 32 431 l 1
 179 442 l 1
 179 110 l 2
 179 58 183 11 267 11 c 0
 340 11 388 79 388 166 c 2
 388 344 l 2
 388 393 380 400 310 400 c 1
 310 431 l 1
 457 442 l 1
 457 87 l 2
 457 38 465 31 535 31 c 1
 535 0 l 1
 391 -11 l 1
 391 79 l 1
 362 17 318 -11 262 -11 c 0
 110 -11 110 80 110 158 c 2
 110 308 l 2
 110 397 110 400 32 400 c 1
EndSplineSet
EndChar
StartChar: udieresis
Encoding: 252 252 208
Width: 555
Flags: MW
LayerCount: 2
Fore
SplineSet
32 400 m 1
 32 431 l 1
 179 442 l 1
 179 110 l 2
 179 78 181 48 201 30 c 4
 214 18 234 11 267 11 c 0
 340 11 388 79 388 166 c 2
 388 344 l 2
 388 393 380 400 310 400 c 1
 310 431 l 1
 457 442 l 1
 457 87 l 2
 457 38 465 31 535 31 c 1
 535 0 l 1
 391 -11 l 1
 391 79 l 1
 362 17 318 -11 262 -11 c 0
 217 -11 185 -3 163 10 c 0
 110 41 110 103 110 158 c 2
 110 308 l 2
 110 397 110 400 32 400 c 1
132 606 m 0
 132 637 158 659 185 659 c 0
 212 659 237 637 237 606 c 0
 237 575 211 554 185 554 c 0
 154 554 132 580 132 606 c 0
327 606 m 0
 327 637 353 659 380 659 c 0
 407 659 432 637 432 606 c 0
 432 575 406 554 380 554 c 0
 354 554 327 575 327 606 c 0
EndSplineSet
EndChar
StartChar: thorn
Encoding: 254 254 210
Width: 555
Flags: MW
LayerCount: 2
Fore
SplineSet
27 -164 m 1
 32 -164 l 2
 95 -164 105 -158 105 -119 c 2
 105 610 l 2
 105 661 82 663 27 663 c 1
 27 663 l 1
 27 694 l 1
 172 705 l 1
 172 376 l 1
 226 440 294 441 311 441 c 0
 423 441 521 344 521 216 c 0
 521 80 409 -11 299 -11 c 0
 224 -11 187 36 175 50 c 1
 175 -110 l 2
 175 -156 178 -164 246 -164 c 2
 252 -164 l 1
 252 -195 l 1
 214 -193 175 -192 136 -192 c 2
 132 -192 l 2
 118 -192 85 -192 27 -195 c 1
 27 -164 l 1
175 115 m 2
 175 111.160921349 175.341933777 107.304156468 175.999999778 103.455054252 c 4
 183.912557881 57.1736099871 237.530112808 12 292 12 c 0
 376 12 438 105 438 215 c 0
 438 323 382 416 302 416 c 0
 232 416 183 360 176 335 c 0
 174 329 175 322 175 315 c 2
 175 115 l 2
EndSplineSet
EndChar
StartChar: abreve
Encoding: 259 259 490
Width: 457
Flags: W
HStem: -11 22<164.178 255.693> -6 31<406.652 456.965> 240 21<251.411 326> 288 92<112 156.397> 426 22<163.05 263.37> 503 38<174.668 325.67>
VStem: 42 77<41.1944 162.511> 71 92<294.401 372.632> 99 23<599.49 639> 326 69<62.5586 240 259.822 375.091> 377 23<599.375 639>
LayerCount: 2
Fore
SplineSet
99 639 m 1x32c0
 122 639 l 1
 127 564 201 541 249 541 c 0
 281 541 371 554 377 639 c 1
 400 639 l 1
 396 547 318 503 249 503 c 0
 173 503 103 554 99 639 c 1x32c0
42 95 m 0xbd
 42 139 67 191 142 225 c 1
 205 255 275 258 326 261 c 1
 326 298 l 2
 326 387 269 426 220 426 c 0
 188 426 139 415 112 380 c 1
 158 379 163 346 163 334 c 0
 163 308 145 288 117 288 c 0
 91 288 71 305 71 335 c 0
 71 401 140 448 222 448 c 0
 270 448 320 432 359 393 c 0
 395 356 395 317 395 275 c 2
 395 75 l 2
 395 70 399 25 432 25 c 0
 445 25 457 27 457 11 c 0
 457 -6 445 -6 425 -6 c 2
 411 -6 l 2x7b
 364 -6 337 36 333 76 c 1
 314 29 268 -11 202 -11 c 0
 139 -11 42 14 42 95 c 0xbd
119 96 m 0xbd
 119 46 160 11 209 11 c 0
 254 11 326 45 326 140 c 2
 326 240 l 1
 161 234 119 151 119 96 c 0xbd
EndSplineSet
EndChar
StartChar: Aogonek
Encoding: 260 260 458
Width: 750
Flags: W
HStem: -217 46<571.9 670.896> 0 31<32 101.387 194.23 248 442 516.053 629.278 717> 228 31<232 458> 696 20G<366.5 384>
VStem: 500 45<-143.531 -52.9491>
LayerCount: 2
Fore
SplineSet
32 0 m 1
 32 31 l 1
 127 33 138 83 150 116 c 2
 349 690 l 2
 354 705 359 716 374 716 c 0
 394 716 395 701 405 675 c 2
 614 74 l 2
 629 32 647 31 711 31 c 2
 717 31 l 1
 717 0 l 1
 693 1 668 2 644 2 c 2
 642 2 l 2
 637 2 632 3 628 3 c 2
 627 3 l 2
 616.472916499 3 603.997834202 -2.73577423143 591.9956884 -11.9999993422 c 4
 567.513971825 -30.8969646993 545 -64.4747398139 545 -94 c 0
 545 -140 590 -171 628 -171 c 0
 675 -171 689 -128 696 -121 c 0
 700 -117 706 -115 710 -119 c 0
 712 -120 713 -123 713 -127 c 0
 713 -153 676 -217 608 -217 c 0
 556 -217 500 -180 500 -118 c 0
 500 -64 544 -23 574 3 c 1
 442 0 l 1
 442 31 l 1
 444 31 l 2
 476 31 523 32 523 63 c 0
 523 67 522 72 521 77 c 0
 511 107 478 197 469 228 c 1
 221 228 l 1
 205 176 174 100 174 81 c 0
 174 62 191 33 248 31 c 1
 248 0 l 1
 209 2 170 3 131 3 c 0
 112 3 82 3 32 0 c 1
232 259 m 1
 458 259 l 1
 345 584 l 1
 232 259 l 1
EndSplineSet
EndChar
StartChar: aogonek
Encoding: 261 261 466
Width: 500
Flags: MW
LayerCount: 2
Fore
SplineSet
41 96 m 0
 41 162 96 254 326 261 c 1
 326 299 l 2
 326 371 280 424 219 424 c 0
 152 424 120 388 112 380 c 1
 152 380 162 350 162 334 c 0
 162 308 142 288 117 288 c 0
 90 288 70 308 70 337 c 0
 70 357.788349388 77.3645429254 376.530992408 89.9999988081 392.410104853 c 4
 116.872471961 426.181029055 167.585660785 447 222 447 c 0
 277.321196872 447 378.548916094 420.646255688 393.999999707 318.557582829 c 0
 395.306778707 309.923409512 396 300.747506517 396 291 c 2
 396 94 l 2
 396 87.6663261825 396 73.5551721967 399.333384982 60.000000497 c 0
 403.368139107 43.5927192404 412.286132812 25 432 25 c 0
 445 25 457 27 457 11 c 0
 457 -6 445 -6 425 -6 c 2
 393 -6 l 2
 379 -6 331 -51 331 -95 c 0
 331 -137 372 -172 415 -172 c 0
 466 -172 474 -127 486 -120 c 0
 493 -117 500 -122 500 -130 c 0
 500 -148 471 -217 395 -217 c 0
 343 -217 286 -180 286 -121 c 0
 286 -69 324 -28 370 7 c 1
 348 25 339 39 334 75 c 1
 319 45 282 -11 203 -11 c 0
 139 -11 41 14 41 96 c 0
119 97 m 0
 119 46 161 12 209 12 c 0
 248 12 326 38 326 144 c 2
 326 240 l 1
 219.855973195 235.413529706 163.94006969 199.917445073 137.999999776 159.952235445 c 0
 124.349605181 138.921417744 119 116.653027606 119 97 c 0
EndSplineSet
EndChar
StartChar: Cacute
Encoding: 262 262 479
Width: 722
Flags: W
HStem: -22 31<335.313 489.838> 674 31<334.79 488.01> 741 24<320.792 326.549>
VStem: 56 103<214.685 467.376> 633 32<420.002 501.272> 640 25<166.392 249.995>
LayerCount: 2
Fore
SplineSet
313 765 m 1
 462 857 466 862 481 862 c 0
 484.893585989 862 488.512160426 861.278094673 491.823854824 860.000000148 c 0
 506.373736499 854.384710242 515 838.033458294 515 825 c 0
 515 800.536820218 499.041408932 794.691996682 427 772.763495405 c 4
 410.69466549 767.800356094 391.516402221 762.01330561 369 755 c 0
 354 750 339 745 324 741 c 1
 313 765 l 1
56 342 m 0xe8
 56 546 217 705 404 705 c 0
 500 705 551 655 588 619 c 1
 638 693 l 2
 646 705 650 705 654 705 c 0
 665 705 665 698 665 681 c 2xe8
 665 444 l 2
 665 423 665 420 649 420 c 0
 635 420 635 423 633 437 c 0xf0
 613 583 524 674 415 674 c 0
 376 674 285 660 223 576 c 0
 186 526 159 452 159 341 c 0
 159 237 182 165 216 116 c 0
 279 23 376 9 416 9 c 0
 525 9 632 91 640 234 c 0
 641 244 641 250 652 250 c 0
 665 250 665 243 665 233 c 0
 665 117 567 -22 404 -22 c 0
 218 -22 56 135 56 342 c 0xe8
EndSplineSet
EndChar
StartChar: cacute
Encoding: 263 263 492
Width: 444
Flags: W
HStem: -11 25<207.085 314.526> 294 92<318.603 359> 423 25<204.328 318.919>
VStem: 34 83<117.321 314.234> 312 92<300.401 378.719> 389 26<87.7871 128.997>
LayerCount: 2
Fore
SplineSet
173 510 m 1x28
 299 633 304 642 323 642 c 0
 344 642 358 622 358 605 c 0
 358 582 351 582 229 513 c 0
 216 505 202 497 188 490 c 1
 173 510 l 1x28
34 216 m 0xf4
 34 340 126 448 251 448 c 0
 328 448 404 409 404 341 c 0
 404 311 384 294 358 294 c 0
 330 294 312 314 312 340 c 0xf8
 312 353 318 383 359 386 c 1
 324 422 261 423 252 423 c 0
 199 423 117 381 117 218 c 0
 117 57 205 14 258 14 c 0
 295 14 360 26 389 119 c 0
 391 125 393 129 402 129 c 0
 405 129 415 129 415 119 c 0
 415 109 383 -11 249 -11 c 0
 133 -11 34 88 34 216 c 0xf4
EndSplineSet
EndChar
StartChar: ccircumflex
Encoding: 265 265 510
Width: 444
Flags: MW
LayerCount: 2
Fore
SplineSet
117 514 m 1
 251 663 l 1
 252 663 l 1
 385 514 l 1
 367 496 l 1
 252 610 l 1
 251 610 l 1
 135 496 l 1
 117 514 l 1
34 216 m 0
 34 340 126 448 251 448 c 0
 304 448 356 430 384 396 c 4
 397 381 404 362 404 341 c 0
 404 311 384 294 358 294 c 0
 330 294 312 314 312 340 c 0
 312 353 318 383 359 386 c 1
 324 422 261 423 252 423 c 0
 199 423 117 381 117 218 c 0
 117 57 205 14 258 14 c 0
 295 14 360 26 389 119 c 0
 391 125 393 129 402 129 c 0
 405 129 415 129 415 119 c 0
 415 109 383 -11 249 -11 c 0
 133 -11 34 88 34 216 c 0
EndSplineSet
EndChar
StartChar: Cdotaccent
Encoding: 266 266 531
Width: 722
Flags: MW
LayerCount: 2
Fore
SplineSet
351 808 m 0
 351 839 377 861 404 861 c 0
 431 861 456 839 456 808 c 0
 456 777 430 756 404 756 c 0
 373 756 351 782 351 808 c 0
56 342 m 0
 56 546 217 705 404 705 c 0
 500 705 551 655 588 619 c 1
 638 693 l 2
 646 705 650 705 654 705 c 0
 665 705 665 698 665 681 c 2
 665 444 l 2
 665 423 665 420 649 420 c 0
 635 420 635 423 633 437 c 0
 613 583 524 674 415 674 c 0
 376 674 285 660 223 576 c 0
 186 526 159 452 159 341 c 0
 159 237 182 165 216 116 c 4
 279 23 376 9 416 9 c 0
 525 9 632 91 640 234 c 0
 641 244 641 250 652 250 c 0
 665 250 665 243 665 233 c 0
 665 117 567 -22 404 -22 c 0
 218 -22 56 135 56 342 c 0
EndSplineSet
EndChar
StartChar: cdotaccent
Encoding: 267 267 550
Width: 444
Flags: W
HStem: -11 25<207.085 314.526> 294 92<318.603 359> 423 25<204.328 318.919> 497 105<209.77 293.648>
VStem: 34 83<117.321 314.234> 199 105<507.387 591.23> 312 92<300.401 378.719> 389 26<87.7871 128.997>
LayerCount: 2
Fore
SplineSet
199 549 m 0
 199 580 225 602 252 602 c 0
 279 602 304 580 304 549 c 0
 304 518 278 497 252 497 c 0
 221 497 199 523 199 549 c 0
34 216 m 0xf4
 34 340 126 448 251 448 c 0
 328 448 404 409 404 341 c 0
 404 311 384 294 358 294 c 0
 330 294 312 314 312 340 c 0xf8
 312 353 318 383 359 386 c 1
 324 422 261 423 252 423 c 0
 199 423 117 381 117 218 c 0
 117 57 205 14 258 14 c 0
 295 14 360 26 389 119 c 0
 391 125 393 129 402 129 c 0
 405 129 415 129 415 119 c 0
 415 109 383 -11 249 -11 c 0
 133 -11 34 88 34 216 c 0xf4
EndSplineSet
EndChar
StartChar: Ccaron
Encoding: 268 268 480
Width: 722
Flags: W
HStem: -22 31<335.313 489.838> 674 31<334.79 488.01> 794 62<385.009 446.421>
VStem: 56 103<214.685 467.376> 633 32<420.002 501.272> 640 25<166.392 249.995>
LayerCount: 2
Fore
SplineSet
263 919 m 1
 275 935 l 1
 381 873 405 856 418 856 c 0
 428 856 503 906 557 935 c 1
 569 919 l 1
 425 797 423 794 416 794 c 0
 404 794 322 872 263 919 c 1
56 342 m 0xe8
 56 546 217 705 404 705 c 0
 500 705 551 655 588 619 c 1
 638 693 l 2
 646 705 650 705 654 705 c 0
 665 705 665 698 665 681 c 2xe8
 665 444 l 2
 665 423 665 420 649 420 c 0
 635 420 635 423 633 437 c 0xf0
 613 583 524 674 415 674 c 0
 376 674 285 660 223 576 c 0
 186 526 159 452 159 341 c 0
 159 237 182 165 216 116 c 4
 279 23 376 9 416 9 c 0
 525 9 632 91 640 234 c 0
 641 244 641 250 652 250 c 0
 665 250 665 243 665 233 c 0
 665 117 567 -22 404 -22 c 0
 218 -22 56 135 56 342 c 0xe8
EndSplineSet
EndChar
StartChar: ccaron
Encoding: 269 269 493
Width: 444
Flags: W
HStem: -11 25<207.085 314.526> 294 92<318.603 359> 423 25<204.328 318.919>
VStem: 34 83<117.321 314.234> 312 92<300.401 378.719> 389 26<87.7871 128.997>
LayerCount: 2
Fore
SplineSet
90 631 m 1xe8
 90 631 l 1
 103 646 l 1
 103 646 l 1
 237 556 236 556 243 556 c 0
 254 556 273 573 383 646 c 1
 383 646 l 1
 396 631 l 1
 396 631 l 1
 243 484 l 1
 243 484 l 5
 90 631 l 1xe8
34 216 m 0xf4
 34 340 126 448 251 448 c 0
 328 448 404 409 404 341 c 0
 404 311 384 294 358 294 c 0
 330 294 312 314 312 340 c 0xf8
 312 353 318 383 359 386 c 1
 324 422 261 423 252 423 c 0
 199 423 117 381 117 218 c 0
 117 57 205 14 258 14 c 0
 295 14 360 26 389 119 c 0
 391 125 393 129 402 129 c 0
 405 129 415 129 415 119 c 0
 415 109 383 -11 249 -11 c 0
 133 -11 34 88 34 216 c 0xf4
EndSplineSet
EndChar
StartChar: Dcaron
Encoding: 270 270 482
Width: 763
Flags: MW
LayerCount: 2
Fore
SplineSet
182 919 m 1
 193 935 l 1
 194 935 l 1
 300 873 324 856 336 856 c 0
 346 856 423 907 476 935 c 1
 487 919 l 1
 344 797 342 794 334 794 c 0
 323 794 240 872 182 919 c 1
35 0 m 1
 35 31 l 1
 59 31 l 2
 96 31 115 33 126 40 c 4
 137 47 138 59 138 78 c 2
 138 605 l 2
 138 624 137 636 126 643 c 0
 115 650 96 652 59 652 c 2
 35 652 l 1
 35 683 l 1
 401 683 l 2
 572 683 707 526 707 336 c 0
 707 148 569 0 401 0 c 2
 35 0 l 1
224 71 m 2
 224 38 226 31 273 31 c 2
 374 31 l 2
 475 31 532 89 552 116 c 0
 588 165 607 225 607 336 c 0
 607 414 598 500 555 559 c 0
 504 630 435 652 373 652 c 2
 273 652 l 2
 226 652 224 645 224 612 c 2
 224 71 l 2
EndSplineSet
EndChar
StartChar: dcaron
Encoding: 271 271 495
Width: 675
Flags: MW
LayerCount: 2
Fore
SplineSet
495 683 m 0
 495 709 512 736 548 736 c 0
 585 736 614 700 614 651 c 0
 614 561 538 503 522 503 c 0
 519 503 511 505 511 513 c 0
 511 524 528 525 554 555 c 0
 577 582 591 616 591 652 c 1
 585 646 573 631 547 631 c 0
 518 631 495 652 495 683 c 0
34 215 m 0
 34 344 139 442 257 442 c 0
 311 442 354 416 383 380 c 1
 383 596 l 2
 383 645 375 652 305 652 c 1
 305 683 l 1
 449 694 l 1
 449 87 l 2
 449 38 457 31 527 31 c 1
 527 0 l 1
 380 -11 l 1
 380 55 l 1
 355 23 310 -11 246 -11 c 0
 132 -11 34 88 34 215 c 0
117 214 m 0
 117 173 120 116 146 75 c 0
 170 37 206 11 251 11 c 0
 294 11 339 33 369 81 c 0
 380 98 380 100 380 118 c 2
 380 323 l 2
 380 341 380 343 369 360 c 0
 338 405 296 420 261 420 c 0
 207 420 169 387 148 356 c 0
 119 311 117 251 117 214 c 0
EndSplineSet
EndChar
StartChar: Dcroat
Encoding: 272 272 520
Width: 764
Flags: MW
LayerCount: 2
Fore
SplineSet
34 0 m 1
 34 31 l 1
 45 31 l 2
 122 31 136 36 137 76 c 1
 137 320 l 1
 119 320 101 319 84 319 c 0
 70.1794974443 319 60.6902032988 319.10828021 54 319.6455164 c 0
 40.3589210306 320.740921272 38.3547020767 323.619655431 35 331 c 1
 35 336 l 2
 35 345 43 350 59 350 c 1
 67 351 76 351 85 351 c 0
 102 351 119 350 137 350 c 1
 137 607 l 1
 136 645 126 652 45 652 c 2
 34 652 l 1
 34 683 l 1
 381 683 l 2
 440 683 489 677 548 641 c 0
 648 579 707 458 707 336 c 0
 707 165 591 21 435 2 c 0
 419 0 403 0 386 0 c 2
 34 0 l 1
224 67 m 2
 224 31 239 31 294 31 c 2
 367 31 l 2
 482 31 536 92 558 125 c 0
 596.899914197 181.088248377 605.519394101 250.27073861 606.809473761 316.999996021 c 4
 606.945449312 324.033319529 607 331.039389218 607 338 c 0
 607 414 600 496 555 560 c 0
 534 589 480 652 367 652 c 2
 350 652 l 2
 331 652 313 653 294 653 c 2
 284 653 l 2
 239 653 224 651 224 616 c 2
 224 350 l 1
 390 350 l 1
 401 349 412 347 412 335 c 0
 412 323 401 321 389 320 c 1
 224 320 l 1
 224 67 l 2
EndSplineSet
EndChar
StartChar: dbar
Encoding: 273 273 496
Width: 555
Flags: W
HStem: -11 23<203.371 302.949> 0 31<459.11 528> 418 23<208.15 312.325> 531 31<168 383 450 516> 652 31<305 374.868> 674 20G<305 450>
VStem: 33 84<118.905 311.524> 380 70<36.8484 55 65.2682 372.939 380 531 562 647.853>
LayerCount: 2
Fore
SplineSet
33 215 m 0xbe
 33 348 142 441 256 441 c 0
 307 441 345 422 383 380 c 1
 383 531 l 1
 168 531 l 1
 168 562 l 1
 383 562 l 1
 383 590 l 1
 382 645 377 652 305 652 c 1
 305 652 l 1
 305 683 l 1
 450 694 l 1
 450 562 l 1
 516 562 l 1
 516 531 l 1
 450 531 l 1xbd
 450 87 l 2
 450 40 462 31 522 31 c 2
 528 31 l 1
 528 0 l 1x7e
 380 -11 l 1
 379 55 l 1
 329 -8 265 -11 245 -11 c 0
 137 -11 33 83 33 215 c 0xbe
117.908811996 182 m 0
 120.630875399 133.073953003 129.872786021 97.0656506622 151 67 c 0
 173.258235844 35.6735939968 202.312480782 18.6188070896 231.999998127 13.5946441199 c 0
 238.324452886 12.5243258769 244.677647793 12 251 12 c 0
 291.41115524 12 328.156254124 32.6632267358 351.999998623 58.2127127427 c 4
 358.286602282 64.9490494883 363.676358552 72.0250582357 367.999999077 79.1515722077 c 0
 375.683363804 91.8158086939 380 104.639537601 380 116 c 2
 380 325 l 2xbe
 380 336.741415632 374.940010682 350.105846705 366.000001017 362.969349073 c 0
 362.055050505 368.645615895 357.354588378 374.224342647 352.00000141 379.523033138 c 0
 330.216874904 401.078765812 297.608219674 418 261 418 c 0
 208 418 170 387 149 355 c 0
 125.991653416 320.913560616 118.959230392 279.565337795 117.38277644 239.000002618 c 0
 117.109281872 231.962436571 117 224.948433724 117 218 c 0
 117 205.255790406 117.280994599 193.284315959 117.908811996 182 c 0
EndSplineSet
EndChar
StartChar: dcroat
Encoding: 273 273 496
Width: 555
Flags: MW
LayerCount: 2
Fore
SplineSet
33 215 m 0
 33 348 142 441 256 441 c 0
 307 441 345 422 383 380 c 1
 383 531 l 1
 168 531 l 1
 168 562 l 1
 383 562 l 1
 383 590 l 1
 382 645 377 652 305 652 c 1
 305 652 l 1
 305 683 l 1
 450 694 l 1
 450 562 l 1
 516 562 l 1
 516 531 l 1
 450 531 l 1
 450 87 l 2
 450 40 462 31 522 31 c 2
 528 31 l 1
 528 0 l 1
 380 -11 l 1
 379 55 l 1
 329 -8 265 -11 245 -11 c 0
 137 -11 33 83 33 215 c 0
118 182 m 0
 121 133 130 97 151 67 c 0
 173 36 202 19 232 14 c 0
 238 13 245 12 251 12 c 0
 291 12 328 32 352 58 c 4
 358 65 364 72 368 79 c 0
 376 92 380 105 380 116 c 2
 380 325 l 2
 380 337 375 350 366 363 c 0
 362 369 357 375 352 380 c 0
 330 402 298 418 261 418 c 0
 208 418 170 387 149 355 c 0
 126 321 119 280 117 239 c 0
 117 232 117 225 117 218 c 0
 117 205 117 193 118 182 c 0
EndSplineSet
EndChar
StartChar: Emacron
Encoding: 274 274 351
Width: 680
Flags: MW
LayerCount: 2
Fore
SplineSet
38 775 m 0
 38 791 53 795 68 795 c 2
 616 795 l 2
 630 795 646 793 646 775 c 0
 646 758 629 756 618 755 c 1
 67 755 l 2
 43 755 38 767 38 775 c 0
33 0 m 1
 33 31 l 1
 57 31 l 2
 134 31 136 42 136 78 c 2
 136 602 l 2
 136 638 134 649 57 649 c 2
 33 649 l 1
 33 680 l 1
 596 680 l 1
 624 455 l 1
 599 455 l 1
 583 594 556 649 403 649 c 2
 274 649 l 2
 227 649 225 642 225 609 c 2
 225 369 l 1
 315 369 l 2
 412 369 423 400 423 486 c 1
 448 486 l 1
 448 221 l 1
 423 221 l 1
 423 306 412 338 315 338 c 2
 225 338 l 1
 225 71 l 2
 225 38 227 31 274 31 c 2
 407 31 l 2
 579 31 602 104 627 258 c 1
 652 258 l 1
 610 0 l 1
 33 0 l 1
EndSplineSet
EndChar
StartChar: emacron
Encoding: 275 275 346
Width: 444
Flags: W
HStem: -11 25<229 259 229 309> 231 21<112 349 112 390 111 349> 426 22<219 287.5> 537 32<57 417 57 417>
VStem: 28 83<213 231 213 282.5> 349 66<252 271.5>
LayerCount: 2
Fore
SplineSet
57 537 m 1
 57 569 l 1
 417 569 l 1
 417 537 l 1
 57 537 l 1
28 220 m 0xf4
 28 345 120 448 236 448 c 0
 285 448 323 433 351 409 c 4
 395 371 415 312 415 252 c 0xf8
 415 231 412 231 390 231 c 2
 111 231 l 1
 111 195 111 129 141 81 c 0
 164 44 204 14 254 14 c 0
 264 14 354 14 389 117 c 0
 391 125 393 131 402 131 c 0
 407 131 415 129 415 119 c 0
 415 100 370 -11 248 -11 c 0
 133 -11 28 86 28 220 c 0xf4
112 252 m 1
 349 252 l 1
 349 291 339 426 236 426 c 0
 215 426 173 416 144 371 c 0
 127 345 114 307 112 252 c 1
EndSplineSet
EndChar
StartChar: edotaccent
Encoding: 279 279 551
Width: 444
Flags: MW
LayerCount: 2
Fore
SplineSet
184 549 m 0
 184 580 210 602 237 602 c 0
 264 602 289 580 289 549 c 0
 289 518 263 497 237 497 c 0
 206 497 184 523 184 549 c 0
28 220 m 0
 28 345 120 448 236 448 c 0
 285 448 323 433 351 409 c 4
 395 371 415 312 415 252 c 0
 415 231 412 231 390 231 c 2
 111 231 l 1
 111 195 111 129 141 81 c 0
 164 44 204 14 254 14 c 0
 264 14 354 14 389 117 c 0
 391 125 393 131 402 131 c 0
 407 131 415 129 415 119 c 0
 415 100 370 -11 248 -11 c 0
 133 -11 28 86 28 220 c 0
112 252 m 1
 349 252 l 1
 349 291 339 426 236 426 c 0
 215 426 173 416 144 371 c 0
 127 345 114 307 112 252 c 1
EndSplineSet
EndChar
StartChar: Eogonek
Encoding: 280 280 481
Width: 680
Flags: MW
LayerCount: 2
Fore
SplineSet
33 0 m 1
 33 31 l 1
 48 31 l 2
 116 31 135 35 136 74 c 1
 136 608 l 1
 135 643 120 650 48 650 c 2
 33 650 l 1
 33 680 l 1
 597 680 l 1
 624 455 l 1
 599 455 l 1
 587 545 571 594 536 620 c 4
 505 643 458 649 387 650 c 1
 295 650 l 2
 234 650 226 647 225 613 c 1
 225 369 l 1
 305 369 l 2
 354 369 410 369 420 433 c 0
 423 450 423 468 423 485 c 1
 448 485 l 1
 448 221 l 1
 423 221 l 1
 423 229 l 2
 423 317 399 338 310 338 c 2
 225 338 l 1
 225 69 l 1
 226 31 238 31 298 31 c 2
 391 31 l 2
 497 31 566 43 601 142 c 0
 614 179 620 219 627 258 c 1
 652 258 l 1
 610 0 l 1
 532 0 l 2
 514 0 507 -3 486 -24 c 0
 467 -42 451 -66 451 -94 c 0
 451 -140 496 -171 533 -171 c 0
 588 -171 596 -116 610 -116 c 0
 612 -116 614 -117 617 -119 c 1
 618 -121 619 -123 619 -127 c 0
 619 -151 583 -217 514 -217 c 0
 462 -217 406 -180 406 -118 c 0
 406 -94 414 -52 477 0 c 1
 33 0 l 1
EndSplineSet
EndChar
StartChar: eogonek
Encoding: 281 281 494
Width: 444
Flags: MW
LayerCount: 2
Fore
SplineSet
27 219 m 0
 27 337 112 447 237 447 c 0
 345 447 415 369 415 251 c 0
 415 235 411 230 389 230 c 2
 111 230 l 1
 111 216 l 2
 111 146 127 99 149 69 c 4
 181 25 227 15 254 15 c 0
 309 15 362 50 385 106 c 0
 392 125 399 131 404 131 c 0
 410 131 414 122 414 118 c 0
 414 104 402 80 391 64 c 0
 377 43 357 26 337 11 c 0
 298 -19 258 -45 258 -94 c 0
 258 -139 303 -171 340 -171 c 0
 395 -171 403 -116 418 -116 c 0
 420 -116 427 -118 427 -128 c 0
 427 -146 396 -217 321 -217 c 0
 271 -217 213 -181 213 -118 c 0
 213 -68 252 -29 272 -10 c 1
 264 -10 256 -11 248 -11 c 0
 133 -11 27 85 27 219 c 0
112 252 m 1
 348 252 l 1
 348 308 337 347 321 373 c 0
 297 413 262 424 234 424 c 0
 205 423 169 408 143 367 c 0
 126 340 114 303 112 252 c 1
EndSplineSet
EndChar
StartChar: Ecaron
Encoding: 282 282 354
Width: 680
Flags: W
HStem: 0 31<33 130.733 227.165 510.422> 338 31<225 391.799> 649 31<33 130.733 227.165 508.96> 794 62<287.458 348.529>
VStem: 136 89<36.1642 338 369 643.836> 423 25<221 301.856 404.721 486>
LayerCount: 2
Fore
SplineSet
165 919 m 1xea
 177 935 l 1
 178 935 l 1
 284 873 307 856 320 856 c 0
 330 856 406 907 459 935 c 1
 471 919 l 1
 327 797 325 794 318 794 c 0
 307 794 224 872 165 919 c 1xea
33 0 m 1
 33 31 l 1
 57 31 l 2
 134 31 136 42 136 78 c 2
 136 602 l 2
 136 638 134 649 57 649 c 2
 33 649 l 1
 33 680 l 1
 596 680 l 1
 624 455 l 1
 599 455 l 1
 583 594 556 649 403 649 c 2
 274 649 l 2
 227 649 225 642 225 609 c 2
 225 369 l 1
 315 369 l 2
 412 369 423 400 423 486 c 1
 448 486 l 1
 448 221 l 1
 423 221 l 1
 423 306 412 338 315 338 c 2
 225 338 l 1
 225 71 l 2
 225 38 227 31 274 31 c 2
 407 31 l 2
 579 31 602 104 627 258 c 1
 652 258 l 1
 610 0 l 1
 33 0 l 1
EndSplineSet
EndChar
StartChar: Gbreve
Encoding: 286 286 533
Width: 785
Flags: W
HStem: -22 31<341.844 498.663> 1 21G<651.5 661.5> 242 31<452 569.883 669.733 735> 674 31<334.447 487.81> 753 38<332.058 479.787>
VStem: 56 103<215.109 467.899> 256 23<853.246 891> 533 23<852.913 891> 577 89<62.6429 235.548> 634 32<420.002 501.606>
LayerCount: 2
Fore
SplineSet
256 891 m 1
 279 891 l 1
 284 818 354 791 406 791 c 0
 447 791 527 811 533 891 c 1
 556 891 l 1
 554 804 480 753 406 753 c 0
 331 753 258 805 256 891 c 1
56 342 m 0xf4
 56 547 218 705 404 705 c 0
 503 705 557 651 589 619 c 1
 639 693 l 2
 647 705 651 705 655 705 c 0
 666 705 666 698 666 681 c 2
 666 444 l 2
 666 423 666 420 650 420 c 0
 636 420 636 423 634 437 c 0xf4
 614 584 523 674 416 674 c 0
 380 674 293 662 231 587 c 0
 190 538 159 461 159 342 c 0
 159 237 183 165 218 115 c 0
 282 24 380 9 422 9 c 0
 443 9 521 14 558 65 c 4
 570 81 577 103 577 130 c 2
 577 194 l 2
 577 231 574 242 484 242 c 2
 452 242 l 1
 452 273 l 1
 488 270 573 270 613 270 c 0
 643 270 698 272 735 273 c 1
 735 242 l 1
 670 242 666 237 666 198 c 2xf8
 666 24 l 2
 666 9 666 1 657 1 c 0
 646 1 606 41 593 63 c 1
 559 4 479 -22 406 -22 c 0
 216 -22 56 137 56 342 c 0xf4
EndSplineSet
EndChar
StartChar: gbreve
Encoding: 287 287 553
Width: 500
Flags: W
HStem: -206 23<173.116 324.394> 7 59<121.756 379.027> 149 23<178.688 261.076> 419 23<182.924 265.374> 431 22<385.686 442.756> 503 38<173.767 323.457>
VStem: 28 52<-129.007 -23.2897> 60 75<222.744 367.565> 76 30<88.9565 167.881> 99 23<600.376 639> 309 75<223.435 368.455> 377 22<603.024 639> 419 52<-128.162 -27.0745> 427 58<375.099 429.807>
LayerCount: 2
Fore
SplineSet
99 639 m 1xe450
 122 639 l 1
 128 554 218 541 249 541 c 0
 279 541 370 554 377 639 c 1
 399 639 l 1
 395 547 318 503 249 503 c 0
 177 503 103 550 99 639 c 1xe450
28 -79 m 0xecc0
 28 -39 60 4 120 21 c 1
 89 41 76 79 76 110 c 0xe980
 76 145 94 178 107 193 c 1
 82 214 60 252 60 296 c 0
 60 373 129 442 222 442 c 0xf280
 244 442 286 439 328 406 c 1
 370 447 414 453 434 453 c 0
 473 453 485 421 485 404 c 0
 485 381 466 374 456 374 c 0
 440 374 427 386 427 403 c 0
 427 415 432 426 443 430 c 1
 440 431 435 431 433 431 c 0
 415 431 379 426 343 392 c 1
 368 369 384 332 384 295 c 0
 384 218 315 149 222 149 c 0
 203 149 162 152 123 180 c 1
 106 160 106 137 106 133 c 0xe9a0
 106 101 127 70 159 66 c 0
 166 65 209 65 234 65 c 0
 295 65 353 65 406 37 c 0
 457 9 471 -42 471 -77 c 0
 471 -155 367 -206 249 -206 c 0
 127 -206 28 -151 28 -79 c 0xecc0
80 -79 m 0xe4c0
 80 -132 149 -183 250 -183 c 0
 348 -183 419 -133 419 -79 c 0
 419 7 307 7 221 7 c 2
 162 7 l 1
 118 4 80 -33 80 -79 c 0xe4c0
135 295 m 0xf280
 135 272 135 172 222 172 c 0
 262 172 285 200 293 212 c 0
 308 237 309 269 309 296 c 0
 309 319 309 419 222 419 c 0
 182 419 159 391 151 379 c 0
 136 354 135 322 135 295 c 0xf280
EndSplineSet
EndChar
StartChar: Gcommaaccent
Encoding: 290 290 534
Width: 784
Flags: MW
LayerCount: 2
Fore
SplineSet
56 342 m 0
 56 547 218 705 404 705 c 0
 503 705 557 651 589 619 c 1
 639 693 l 2
 647 705 651 705 655 705 c 0
 666 705 666 698 666 681 c 2
 666 444 l 2
 666 423 666 420 650 420 c 0
 636 420 636 423 634 437 c 0
 614 584 523 674 416 674 c 0
 380 674 293 662 231 587 c 0
 190 538 159 461 159 342 c 0
 159 237 183 165 218 115 c 0
 282 24 380 9 422 9 c 0
 443 9 521 14 558 65 c 0
 570 81 577 103 577 130 c 2
 577 194 l 2
 577 231 574 242 484 242 c 2
 452 242 l 1
 452 273 l 1
 488 270 573 270 613 270 c 0
 643 270 698 272 735 273 c 1
 735 242 l 1
 670 242 666 237 666 198 c 2
 666 24 l 2
 666 9 666 1 657 1 c 0
 646 1 606 41 593 63 c 1
 559 4 479 -22 406 -22 c 0
 216 -22 56 137 56 342 c 0
371 -110 m 0
 371 -90 385 -73 407 -73 c 0
 430 -73 452 -93 452 -145 c 0
 452 -211 408 -281 388 -281 c 0
 385 -281 382 -277 382 -274 c 0
 382 -272.559465245 383.120575806 -270.57939399 385.038881739 -268 c 4
 396.437199551 -252.673585187 436 -216.187615007 436 -146 c 2
 436 -134 l 1
 433.720005495 -136.279994505 431.375833522 -138.239101667 429.000000586 -139.893579741 c 0
 421.997523013 -144.769951908 414.720005495 -147 408 -147 c 0
 389 -147 371 -131 371 -110 c 0
EndSplineSet
EndChar
StartChar: Hbar
Encoding: 294 294 521
Width: 750
Flags: MW
LayerCount: 2
Fore
SplineSet
33 0 m 1
 33 31 l 1
 57 31 l 2
 86 31 104 32 116 36 c 4
 135 42 136 56 136 78 c 2
 136 516 l 1
 58 516 l 2
 44 516 33 518 33 532 c 0
 33 546 45 548 65 548 c 2
 136 548 l 1
 136 605 l 2
 136 623 136 635 126 642 c 0
 116 650 96 652 57 652 c 2
 33 652 l 1
 33 683 l 1
 68 680 143 680 181 680 c 0
 219 680 293 680 328 683 c 1
 328 652 l 1
 304 652 l 2
 270 652 251 650 240 645 c 0
 226 638 225 625 225 605 c 2
 225 548 l 1
 524 548 l 1
 524 605 l 2
 524 624 523 636 512 643 c 0
 501 650 482 652 445 652 c 2
 421 652 l 1
 421 683 l 1
 456 680 531 680 569 680 c 0
 607 680 681 680 716 683 c 1
 716 652 l 1
 692 652 l 2
 658 652 639 650 628 645 c 0
 614 638 613 625 613 605 c 2
 613 548 l 1
 687 548 l 2
 702 548 716 547 716 532 c 0
 716 518 703 516 690 516 c 2
 613 516 l 1
 613 78 l 2
 613 60 614 48 624 41 c 0
 634 34 654 31 692 31 c 2
 716 31 l 1
 716 0 l 1
 681 3 606 3 568 3 c 0
 530 3 456 3 421 0 c 1
 421 31 l 1
 445 31 l 2
 480 31 499 33 510 39 c 0
 523 46 524 58 524 78 c 2
 524 340 l 1
 225 340 l 1
 225 78 l 2
 225 58 226 45 240 38 c 0
 251 33 270 31 304 31 c 2
 328 31 l 1
 328 0 l 1
 293 3 218 3 180 3 c 0
 142 3 68 3 33 0 c 1
225 371 m 1
 524 371 l 1
 524 516 l 1
 225 516 l 1
 225 371 l 1
EndSplineSet
EndChar
StartChar: hbar
Encoding: 295 295 585
Width: 583
Flags: MW
LayerCount: 2
Fore
SplineSet
26 547 m 0
 26 561 38 563 58 563 c 2
 136 563 l 1
 136 590 l 1
 135 646 130 653 58 653 c 1
 58 653 l 1
 58 684 l 1
 203 695 l 1
 203 563 l 1
 315 563 l 2
 330 563 344 562 344 547 c 0
 344 533 331 532 318 532 c 2
 203 532 l 1
 203 415 l 1
 204 346 l 1
 219 379 261 441 348 441 c 0
 482 441 484 342 484 293 c 2
 484 74 l 2
 484 30 504 33 547 31 c 1
 561 31 l 1
 561 0 l 1
 523 2 484 3 445 3 c 2
 441 3 l 2
 427 3 394 3 336 0 c 1
 336 31 l 1
 346 31 l 2
 409 31 414 40 414 77 c 2
 414 302 l 2
 414 365 402 417 342 418 c 1
 341 418 l 2
 288 418 206 379 206 251 c 2
 206 73 l 2
 206 37 217 31 276 31 c 2
 284 31 l 1
 284 0 l 1
 245 2 206 3 168 3 c 2
 163 3 l 2
 149 3 117 3 58 0 c 1
 58 31 l 1
 67 31 l 2
 110 31 134 32 136 67 c 1
 136 532 l 1
 51 532 l 2
 37 532 26 533 26 547 c 0
EndSplineSet
EndChar
StartChar: Itilde
Encoding: 296 296 359
Width: 361
Flags: MW
LayerCount: 2
Fore
SplineSet
30 809 m 1
 63 849 84 880 123 880 c 0
 166 880 200 844 244 844 c 0
 276 844 296 868 308 880 c 1
 330 862 l 1
 296 822 275 791 237 791 c 0
 193 791 160 827 116 827 c 0
 84 827 63 803 51 791 c 1
 30 809 l 1
28 0 m 1
 28 31 l 1
 54 31 l 2
 90 31 111 33 122 39 c 0
 135 46 136 59 136 78 c 2
 136 605 l 2
 136 624 135 637 122 644 c 0
 111 650 90 652 54 652 c 2
 28 652 l 1
 28 683 l 1
 63 680 142 680 181 680 c 0
 219 680 298 680 333 683 c 1
 333 652 l 1
 307 652 l 2
 264 652 244 649 234 640 c 0
 226 633 225 622 225 605 c 2
 225 78 l 2
 225 60 226 48 236 41 c 4
 247 34 267 31 307 31 c 2
 333 31 l 1
 333 0 l 1
 298 3 219 3 180 3 c 0
 142 3 63 3 28 0 c 1
EndSplineSet
EndChar
StartChar: itilde
Encoding: 297 297 371
Width: 277
Flags: MW
LayerCount: 2
Fore
SplineSet
-5 556 m 1
 28 597 50 627 88 627 c 0
 132 627 165 591 209 591 c 0
 241 591 262 615 274 627 c 1
 295 609 l 1
 262 569 240 539 202 539 c 0
 158 539 125 574 81 574 c 0
 49 574 28 551 16 538 c 1
 -5 556 l 1
33 0 m 1
 33 31 l 1
 100 31 111 31 111 76 c 2
 111 345 l 2
 111 394 102 400 37 400 c 1
 37 431 l 1
 177 442 l 1
 177 75 l 2
 177 36 181 31 247 31 c 1
 247 0 l 1
 213 1 178 3 143 3 c 0
 119 3 65 1 33 0 c 1
EndSplineSet
EndChar
StartChar: Imacron
Encoding: 298 298 349
Width: 361
Flags: W
HStem: 0 31<28 54> 3 28 652 28 755 32<-1 359 -1 359>
VStem: 136 89<78 605>
LayerCount: 2
Fore
SplineSet
-1 755 m 1x10
 -1 787 l 1
 359 787 l 1
 359 755 l 1
 -1 755 l 1x10
28 0 m 1
 28 31 l 1
 54 31 l 2
 133 31 136 42 136 78 c 2
 136 605 l 2
 136 641 133 652 54 652 c 2
 28 652 l 1
 28 683 l 1
 63 680 142 680 181 680 c 0
 219 680 298 680 333 683 c 1
 333 652 l 1
 307 652 l 2
 228 652 225 641 225 605 c 2
 225 78 l 2
 225 42 228 31 307 31 c 2
 333 31 l 1
 333 0 l 1
 298 3 219 3 180 3 c 0
 142 3 63 3 28 0 c 1
EndSplineSet
EndChar
StartChar: imacron
Encoding: 299 299 344
Width: 277
Flags: W
HStem: 0 31<33 66.5> 400 31<37 69.5> 537 32<-41 319 -41 319>
VStem: 111 66<76 345 345 369.5>
LayerCount: 2
Fore
SplineSet
-41 537 m 1
 -41 569 l 1
 319 569 l 1
 319 537 l 1
 -41 537 l 1
33 0 m 1xf4
 33 31 l 1
 100 31 111 31 111 76 c 2
 111 345 l 2
 111 394 102 400 37 400 c 1
 37 431 l 1
 177 442 l 1
 177 75 l 2
 177 36 181 31 247 31 c 1
 247 0 l 1
 213 1 178 3 143 3 c 0
 119 3 65 1 33 0 c 1xf4
EndSplineSet
EndChar
StartChar: Iogonek
Encoding: 302 302 537
Width: 361
Flags: MW
LayerCount: 2
Fore
SplineSet
28 0 m 1
 28 31 l 1
 54 31 l 2
 133 31 136 42 136 78 c 2
 136 605 l 2
 136 641 133 652 54 652 c 2
 28 652 l 1
 28 683 l 1
 63 680 142 680 181 680 c 0
 219 680 298 680 333 683 c 1
 333 652 l 1
 307 652 l 2
 228 652 225 641 225 605 c 2
 225 78 l 2
 225 42 228 31 307 31 c 2
 333 31 l 1
 333 0 l 1
 305 2 254 3 213 3 c 1
 201 -1 144 -45 144 -94 c 0
 144 -140 189 -171 226 -171 c 0
 281 -171 289 -116 303 -116 c 0
 307 -116 312 -118 312 -127 c 0
 312 -151 276 -217 207 -217 c 0
 155 -217 99 -180 99 -118 c 0
 99 -94 109 -48 170 3 c 1
 130 3 61 3 28 0 c 1
EndSplineSet
EndChar
StartChar: iogonek
Encoding: 303 303 555
Width: 277
Flags: W
HStem: -217 46<130.838 229.006> 0 31<33 106.404 180.774 247> 400 31<37 104.079> 422 20G<37 177> 563 106<85.7705 170.867>
VStem: 59 45<-143.531 -51.136> 75 106<573.462 658.309> 111 66<34.0171 395.048>
LayerCount: 2
Fore
SplineSet
33 0 m 1xfa
 33 31 l 1
 100 31 111 31 111 76 c 2
 111 345 l 2
 111 394 102 400 37 400 c 1
 37 431 l 1
 177 442 l 1
 177 75 l 2
 177 36 181 31 247 31 c 1
 247 0 l 1
 228 0 209 2 189 2 c 1
 183 0 154 -8 139 -24 c 1
 120 -42 104 -66 104 -94 c 0
 104 -140 149 -171 186 -171 c 0
 241 -171 249 -116 263 -116 c 0
 267 -116 272 -118 272 -127 c 0
 272 -151 236 -217 167 -217 c 0
 115 -217 59 -180 59 -118 c 0
 59 -94 69 -48 129 3 c 1
 33 0 l 1xfa
75 616 m 0xf4
 75 642 97 669 128 669 c 0
 156 669 181 648 181 616 c 0
 181 584 156 563 128 563 c 0
 97 563 75 589 75 616 c 0xf4
EndSplineSet
EndChar
StartChar: Idotaccent
Encoding: 304 304 536
Width: 361
Flags: MW
LayerCount: 2
Fore
SplineSet
127 819 m 0
 127 850 153 872 180 872 c 0
 207 872 232 850 232 819 c 0
 232 788 206 767 180 767 c 0
 149 767 127 793 127 819 c 0
28 0 m 1
 28 31 l 1
 54 31 l 2
 90 31 111 33 122 39 c 0
 135 46 136 59 136 78 c 2
 136 605 l 2
 136 624 135 637 122 644 c 0
 111 650 90 652 54 652 c 2
 28 652 l 1
 28 683 l 1
 63 680 142 680 181 680 c 0
 219 680 298 680 333 683 c 1
 333 652 l 1
 307 652 l 2
 264 652 244 649 234 640 c 0
 226 633 225 622 225 605 c 2
 225 78 l 2
 225 60 226 48 236 41 c 4
 247 34 267 31 307 31 c 2
 333 31 l 1
 333 0 l 1
 298 3 219 3 180 3 c 0
 142 3 63 3 28 0 c 1
EndSplineSet
EndChar
StartChar: dotlessi
Encoding: 305 305 136
Width: 277
Flags: MW
LayerCount: 2
Fore
SplineSet
33 0 m 1
 33 31 l 1
 71 31 91 31 101 39 c 0
 109 45 111 56 111 76 c 2
 111 345 l 2
 111 394 102 400 37 400 c 1
 37 431 l 1
 177 442 l 1
 177 75 l 2
 177 57 178 46 185 40 c 4
 194 32 211 31 247 31 c 1
 247 0 l 1
 213 1 178 3 143 3 c 0
 119 3 65 1 33 0 c 1
EndSplineSet
EndChar
StartChar: IJ
Encoding: 306 306 522
Width: 861
Flags: MW
LayerCount: 2
Fore
SplineSet
388 111 m 0
 388 155 421 169 444 169 c 0
 473 169 499 147 499 114 c 0
 499 85 478 58 442 58 c 0
 440 58 437 58 435 59 c 1
 473 5 526 1 544 1 c 0
 605 1 638 63 646 113 c 0
 648 129 648 146 648 162 c 2
 648 606 l 2
 648 626 644 637 628 644 c 0
 612 651 583 652 534 652 c 2
 515 652 l 1
 515 683 l 1
 571 682 628 680 684 680 c 0
 722 680 761 681 812 683 c 1
 812 652 l 1
 807 652 l 2
 774 652 756 650 746 643 c 4
 737 637 735 626 735 608 c 1
 735 161 l 1
 735 161 735 132 733 118 c 0
 718 37 638 -22 548 -22 c 0
 467 -22 388 31 388 111 c 0
28 0 m 1
 28 31 l 1
 43 31 l 2
 86 31 109 33 122 41 c 0
 132 48 136 58 136 75 c 1
 136 610 l 1
 135 629 131 639 116 645 c 0
 102 650 80 652 43 652 c 2
 28 652 l 1
 28 683 l 1
 77 681 125 680 175 680 c 0
 228 680 280 681 333 683 c 1
 333 652 l 1
 318 652 l 2
 278 652 255 650 242 644 c 0
 229 638 225 628 225 610 c 1
 225 74 l 1
 225 56 229 45 242 39 c 0
 255 33 278 31 318 31 c 2
 333 31 l 1
 333 0 l 1
 259 3 214 3 185 3 c 0
 132 3 80 2 28 0 c 1
EndSplineSet
EndChar
StartChar: ij
Encoding: 307 307 526
Width: 583
Flags: MW
LayerCount: 2
Fore
SplineSet
251 -126 m 0
 251 -96 275 -79 297 -79 c 0
 320 -79 343 -97 343 -125 c 0
 343 -143 335 -160 307 -170 c 1
 331 -181 348 -182 358 -182 c 0
 393.752749195 -182 419.360585097 -155.913080102 426.187590071 -84 c 0
 427.380505673 -71.4342796667 428 -57.469382945 428 -42 c 2
 428 339 l 2
 428 391 417 400 349 400 c 2
 342 400 l 1
 342 430 l 1
 495 441 l 1
 495 -42 l 2
 495 -91.2091483494 482.492674284 -126.843272446 464.030697371 -152.000000245 c 0
 435.220791533 -191.257061527 391.910364993 -205 359 -205 c 0
 302 -205 251 -174 251 -126 c 0
389 615 m 0
 389 646 415 668 442 668 c 0
 469 668 494 646 494 615 c 0
 494 584 468 563 442 563 c 0
 411 563 389 589 389 615 c 0
45 0 m 1
 45 31 l 1
 53 31 l 2
 112 31 122 37 123 74 c 1
 123 333 l 2
 123 393 116 399 49 400 c 1
 49 430 l 1
 190 441 l 1
 190 74 l 2
 190 38 198 31 253 31 c 2
 260 31 l 1
 260 0 l 1
 225 2 191 3 156 3 c 0
 119 3 82 2 45 0 c 1
88 615 m 0
 88 646 114 668 141 668 c 0
 167 668 193 646 193 615 c 0
 193 584 167 563 141 563 c 0
 110 563 88 587 88 615 c 0
EndSplineSet
EndChar
StartChar: Jcircumflex
Encoding: 308 308 507
Width: 513
Flags: MW
LayerCount: 2
Fore
SplineSet
182 773 m 1
 316 922 l 1
 318 922 l 1
 450 773 l 1
 432 755 l 1
 318 869 l 1
 316 869 l 1
 200 755 l 1
 182 773 l 1
41 112 m 0
 41 156 75 170 97 170 c 0
 125 170 153 150 153 114 c 0
 153 88 141 58 89 58 c 1
 125 0 193 0 199 0 c 0
 252 0 302 56 302 148 c 2
 302 604 l 2
 302 623 302 636 286 643 c 0
 273 649 248 652 204 652 c 2
 168 652 l 1
 168 683 l 1
 206 680 294 680 336 680 c 0
 383 680 421 681 465 683 c 1
 465 652 l 1
 426 652 406 652 396 642 c 0
 390 636 388 627 388 611 c 2
 388 167 l 2
 388 133 388 131 387 123 c 0
 376 48 303 -22 201 -22 c 0
 126 -22 64 21 46 79 c 4
 43 90 41 100 41 112 c 0
EndSplineSet
EndChar
StartChar: jcircumflex
Encoding: 309 309 513
Width: 305
Flags: W
HStem: -205 22<21.6851 103.655> 400 31<58 136.19> 422 20G<58 210>
VStem: -40 92<-163.091 -84.9654> 144 66<-134.375 394.175>
LayerCount: 2
Fore
SplineSet
27 532 m 1x10
 161 681 l 1
 162 681 l 1
 295 532 l 1
 277 514 l 1
 162 628 l 1
 161 628 l 1
 45 514 l 1
 27 532 l 1x10
-40 -125 m 0
 -40 -99 -22 -79 6 -79 c 0
 34 -79 52 -99 52 -125 c 0
 52 -152 32 -166 17 -170 c 1
 43 -183 66 -183 71 -183 c 0
 135 -183 144 -97 144 -52 c 2
 144 344 l 2
 144 372.096410643 141.040951845 386.383929898 124 393.460861896 c 4
 111.321616837 398.726064 90.8484975616 400 58 400 c 1
 58 431 l 1
 210 442 l 1
 210 -50 l 2
 210 -141 148 -205 73 -205 c 0
 16 -205 -40 -177 -40 -125 c 0
EndSplineSet
EndChar
StartChar: Kcommaaccent
Encoding: 310 310 538
Width: 777
Flags: MW
LayerCount: 2
Fore
SplineSet
363 -110 m 0
 363 -90 377 -73 399 -73 c 0
 422 -73 444 -93 444 -145 c 0
 444 -211 400 -281 380 -281 c 0
 377 -281 374 -277 374 -274 c 0
 374 -272.559465245 375.120575806 -270.57939399 377.038881739 -268 c 4
 388.437199551 -252.673585187 428 -216.187615007 428 -146 c 2
 428 -134 l 1
 426.04052188 -135.95947812 424.033641852 -137.681946703 422.000000583 -139.177726083 c 0
 414.693006084 -144.552150699 407.04052188 -147 400 -147 c 0
 381 -147 363 -131 363 -110 c 0
33 0 m 1
 33 31 l 1
 57 31 l 2
 134 31 136 42 136 78 c 2
 136 605 l 2
 136 641 134 652 57 652 c 2
 33 652 l 1
 33 683 l 1
 68 680 143 680 181 680 c 0
 219 680 293 680 328 683 c 1
 328 652 l 1
 304 652 l 2
 227 652 225 641 225 605 c 2
 225 287 l 1
 538 586 l 2
 546 593 556 603 556 619 c 0
 556 628 550 651 510 652 c 1
 510 683 l 1
 544 680 601 680 637 680 c 0
 664 680 696 680 722 683 c 1
 722 652 l 1
 713 652 704 651 696 650 c 0
 630 640 587 599 580 592 c 2
 400 419 l 1
 631 79 l 2
 657 40 676 32 717 31 c 0
 723 31 729 31 736 31 c 1
 736 0 l 1
 694 2 656 3 621 3 c 0
 583 3 513 3 478 0 c 1
 478 31 l 1
 498 31 537 31 537 61 c 0
 537 73 528 86 522 95 c 2
 341 363 l 1
 225 253 l 1
 225 78 l 2
 225 42 227 31 304 31 c 2
 328 31 l 1
 328 0 l 1
 293 3 218 3 180 3 c 0
 142 3 68 3 33 0 c 1
EndSplineSet
EndChar
StartChar: kcommaaccent
Encoding: 311 311 556
Width: 527
Flags: W
HStem: -147 74<247.545 308.696> 0 31<28 101.404 173.596 247 316 350.812 449.021 511> 400 31<306 332.902 424.016 488> 652 31<28 98.4185> 674 20G<28 172>
VStem: 106 66<34.0171 179 214 646.709> 309 16<-194.094 -135.622>
LayerCount: 2
Fore
SplineSet
244 -110 m 0x82
 244 -90 258 -73 280 -73 c 0
 303 -73 325 -93 325 -145 c 0
 325 -211 281 -281 261 -281 c 0
 258 -281 255 -277 255 -274 c 0
 255 -272.559465245 256.120575806 -270.57939399 258.038881739 -268 c 4
 269.437199551 -252.673585187 309 -216.187615007 309 -146 c 2
 309 -134 l 1
 307.04052188 -135.95947812 305.033641852 -137.681946703 303.000000583 -139.177726083 c 0
 295.693006084 -144.552150699 288.04052188 -147 281 -147 c 0
 262 -147 244 -131 244 -110 c 0x82
28 0 m 1
 28 31 l 1
 95 31 106 31 106 76 c 2
 106 596 l 2
 106 645 98 652 28 652 c 1
 28 683 l 1
 172 694 l 1
 172 214 l 1
 313 336 l 2
 321 343 335 355 335 375 c 0
 335 388 325 399 306 400 c 1
 306 431 l 1
 320 430 382 428 418 428 c 0
 446 428 459 428 488 431 c 1
 488 400 l 1
 467 399 425 397 362 346 c 0
 352 338 281 278 281 274 c 0
 281 271 286 265 287 263 c 2
 414 84 l 2
 445 41 466 33 492 31 c 2
 498 31 504 31 511 31 c 1
 511 0 l 1
 482 2 453 3 424 3 c 0
 403 3 344 1 316 0 c 1
 316 31 l 1
 335 31 352 35 352 54 c 0
 352 61 343 78 334 92 c 0
 296 149 280 169 233 234 c 1
 169 179 l 1
 169 76 l 2
 169 31 180 31 247 31 c 1
 247 0 l 1
 207 2 167 3 137 3 c 0
 108 3 61 1 28 0 c 1
EndSplineSet
EndChar
StartChar: kra
Encoding: 312 312 527
Width: 531
Flags: MW
LayerCount: 2
Fore
SplineSet
25 0 m 1
 25 23 l 1
 63 23 84 24 94 35 c 4
 101 42 103 53 103 69 c 2
 103 362 l 2
 103 380 100 391 92 398 c 0
 81 407 61 408 25 408 c 1
 25 430 l 1
 58 429 111 428 136 428 c 0
 162 428 215 429 248 430 c 1
 248 408 l 1
 213 408 193 406 182 398 c 0
 173 391 170 381 170 362 c 2
 170 230 l 1
 192 230 l 2
 239 230 293 359 323 394 c 0
 343 417 360 430 393 430 c 0
 443 430 475 403 475 364 c 0
 475 331 449 319 432 319 c 0
 410 319 388 337 388 363 c 0
 388 393 416 404 418 404 c 1
 417 405 408 408 394 408 c 0
 369 408 355 384 334 352 c 0
 301 301 277 251 277 251 c 1
 442 37 418 23 477 23 c 2
 512 23 l 1
 512 0 l 1
 487 2 463 3 438 3 c 0
 433 3 411 0 406 0 c 0
 383 0 381 10 352 46 c 0
 330 73 320 94 239 204 c 1
 170 205 l 1
 170 69 l 2
 170 52 173 41 180 34 c 0
 191 24 211 23 248 23 c 1
 248 0 l 1
 215 1 163 3 137 3 c 0
 112 3 58 1 25 0 c 1
EndSplineSet
EndChar
StartChar: Lacute
Encoding: 313 313 478
Width: 625
Flags: MW
LayerCount: 2
Fore
SplineSet
88 765 m 1
 236 857 241 862 255 862 c 0
 277 862 290 842 290 825 c 0
 290 802.873457383 278.032393844 796.522395607 222 779.065425141 c 4
 202.061563498 772.853577435 176.543623848 765.235494597 144 755 c 0
 129 751 114 746 98 742 c 1
 88 765 l 1
33 0 m 1
 33 31 l 1
 57 31 l 2
 134 31 136 42 136 78 c 2
 136 605 l 2
 136 641 134 652 57 652 c 2
 33 652 l 1
 33 683 l 1
 68 680 146 680 185 680 c 0
 226 680 317 680 353 683 c 1
 353 652 l 1
 320 652 l 2
 225 652 225 638 225 604 c 2
 225 71 l 2
 225 38 227 31 274 31 c 2
 356 31 l 2
 532 31 546 156 557 258 c 1
 582 258 l 1
 554 0 l 1
 33 0 l 1
EndSplineSet
EndChar
StartChar: lacute
Encoding: 314 314 491
Width: 277
Flags: W
HStem: 0 31<33 106.404 181.596 255> 652 31<33 103.419> 674 20G<33 177> 741 24<103.792 109.285>
VStem: 111 66<34.0171 646.709>
LayerCount: 2
Fore
SplineSet
96 765 m 1xf0
 242 855 249 862 263 862 c 0
 265.81702917 862 268.486494538 861.655684462 270.999998295 861.021639144 c 0
 288.116068578 856.704015111 298 838.951251513 298 825 c 0
 298 802.356492042 285.466637825 796.234234225 226 777.823299014 c 4
 206.68029703 771.841898136 182.406833775 764.563439655 152 755 c 0
 137 750 122 745 107 741 c 1
 96 765 l 1xf0
33 0 m 1
 33 31 l 1
 100 31 111 31 111 76 c 2
 111 596 l 2
 111 645 103 652 33 652 c 1
 33 683 l 1
 177 694 l 1
 177 76 l 2
 177 31 188 31 255 31 c 1
 255 0 l 1
 218 1 169 3 144 3 c 0
 119 3 66 1 33 0 c 1
EndSplineSet
EndChar
StartChar: Lcommaaccent
Encoding: 315 315 540
Width: 625
Flags: MW
LayerCount: 2
Fore
SplineSet
307 -110 m 0
 307 -90 321 -73 343 -73 c 0
 366 -73 388 -93 388 -145 c 0
 388 -211 344 -281 324 -281 c 0
 321 -281 318 -277 318 -274 c 0
 318 -272.378604011 319.419619475 -270.073687533 321.798505361 -267 c 4
 334.09145721 -251.116643398 372 -214.704552887 372 -146 c 2
 372 -134 l 1
 370.04052188 -135.95947812 368.033641852 -137.681946703 366.000000583 -139.177726083 c 0
 358.693006084 -144.552150699 351.04052188 -147 344 -147 c 0
 325 -147 307 -131 307 -110 c 0
33 0 m 1
 33 31 l 1
 57 31 l 2
 134 31 136 42 136 78 c 2
 136 605 l 2
 136 641 134 652 57 652 c 2
 33 652 l 1
 33 683 l 1
 68 680 146 680 185 680 c 0
 226 680 317 680 353 683 c 1
 353 652 l 1
 320 652 l 2
 225 652 225 638 225 604 c 2
 225 71 l 2
 225 38 227 31 274 31 c 2
 356 31 l 2
 532 31 546 156 557 258 c 1
 582 258 l 1
 554 0 l 1
 33 0 l 1
EndSplineSet
EndChar
StartChar: lcommaaccent
Encoding: 316 316 558
Width: 277
Flags: MW
LayerCount: 2
Fore
SplineSet
111 -110 m 0
 111 -90 125 -73 147 -73 c 0
 170 -73 192 -93 192 -145 c 0
 192 -211 148 -281 128 -281 c 0
 125 -281 122 -277 122 -274 c 0
 122 -272.559465245 123.120575806 -270.57939399 125.038881739 -268 c 0
 136.437199551 -252.673585187 176 -216.187615007 176 -146 c 2
 176 -134 l 1
 173.720005495 -136.279994505 171.375833522 -138.239101667 169.000000586 -139.893579741 c 4
 161.997523013 -144.769951908 154.720005495 -147 148 -147 c 0
 129 -147 111 -131 111 -110 c 0
33 0 m 1
 33 31 l 1
 100 31 111 31 111 76 c 2
 111 596 l 2
 111 645 103 652 33 652 c 1
 33 683 l 1
 177 694 l 1
 177 76 l 2
 177 31 188 31 255 31 c 1
 255 0 l 1
 218 1 169 3 144 3 c 0
 119 3 66 1 33 0 c 1
EndSplineSet
EndChar
StartChar: Lcaron
Encoding: 317 317 460
Width: 625
Flags: W
HStem: 0 31<33 130.733 227.165 444.53> 652 31<33 130.733 232.133 353> 672 106<421.252 507.032>
VStem: 136 89<36.1642 645.076> 508 23<642.335 694>
LayerCount: 2
Fore
SplineSet
411 725 m 0xbc
 411 751 429 778 464 778 c 0
 502 778 531 742 531 693 c 0
 531 603 455 545 439 545 c 0
 436 545 428 546 428 554 c 0
 428 566 445 567 471 596 c 1
 494 624 507 658 508 694 c 1
 502 687 490 672 464 672 c 0
 433 672 411 696 411 725 c 0xbc
33 0 m 1
 33 31 l 1
 57 31 l 2
 134 31 136 42 136 78 c 2
 136 605 l 2
 136 641 134 652 57 652 c 2
 33 652 l 1
 33 683 l 1
 68 680 146 680 185 680 c 0
 226 680 317 680 353 683 c 1
 353 652 l 1
 320 652 l 2
 225 652 225 638 225 604 c 2
 225 71 l 2
 225 38 227 31 274 31 c 2
 356 31 l 2
 532 31 546 156 557 258 c 1
 582 258 l 1
 554 0 l 1
 33 0 l 1
EndSplineSet
EndChar
StartChar: lcaron
Encoding: 318 318 468
Width: 403
Flags: W
HStem: 0 31<33 106.404 181.596 255> 631 105<231.954 317.21> 652 31<33 103.419> 674 20G<33 177>
VStem: 111 66<34.0171 646.709> 318 23<596.803 652>
LayerCount: 2
Fore
SplineSet
222 683 m 0xb8
 222 709 240 736 275 736 c 0xd8
 312 736 341 700 341 651 c 0
 341 561 265 503 249 503 c 0
 246 503 238 505 238 513 c 0
 238 525 255 524 281 555 c 1
 305 582 318 616 318 652 c 1xb8
 312 646 301 631 274 631 c 0xd8
 244 631 222 654 222 683 c 0xb8
33 0 m 1
 33 31 l 1
 100 31 111 31 111 76 c 2
 111 596 l 2
 111 645 103 652 33 652 c 1
 33 683 l 1
 177 694 l 1
 177 76 l 2
 177 31 188 31 255 31 c 1
 255 0 l 1
 218 1 169 3 144 3 c 0
 119 3 66 1 33 0 c 1
EndSplineSet
EndChar
StartChar: Ldot
Encoding: 319 319 523
Width: 625
Flags: W
HStem: 0 31<33 57 33 57 57 95.5 274 356 356 444> 312 105<406.5 435> 652 28
VStem: 136 89<78 604> 369 105<351.5 378.5> 557 25<258 258>
LayerCount: 2
Fore
SplineSet
33 0 m 1
 33 31 l 1
 57 31 l 2
 134 31 136 42 136 78 c 2
 136 605 l 2
 136 641 134 652 57 652 c 2
 33 652 l 1
 33 683 l 1
 68 680 146 680 185 680 c 0
 226 680 317 680 353 683 c 1
 353 652 l 1
 320 652 l 2
 225 652 225 638 225 604 c 2
 225 71 l 2
 225 38 227 31 274 31 c 2
 356 31 l 2
 532 31 546 156 557 258 c 1
 582 258 l 1
 554 0 l 1
 33 0 l 1
369 365 m 0
 369 392 391 417 422 417 c 0
 449 417 474 396 474 365 c 0
 474 334 448 312 422 312 c 0
 391 312 369 338 369 365 c 0
EndSplineSet
EndChar
StartChar: ldot
Encoding: 320 320 528
Width: 387
Flags: W
HStem: 0 31<33 66.5> 189 105<292.5 321> 652 31<33 68>
VStem: 111 66<76 596 596 620.5> 255 105<228.5 255.5>
LayerCount: 2
Fore
SplineSet
33 0 m 1
 33 31 l 1
 100 31 111 31 111 76 c 2
 111 596 l 2
 111 645 103 652 33 652 c 1
 33 683 l 1
 177 694 l 1
 177 76 l 2
 177 31 188 31 255 31 c 1
 255 0 l 1
 218 1 169 3 144 3 c 0
 119 3 66 1 33 0 c 1
255 242 m 0
 255 269 277 294 308 294 c 0
 335 294 360 273 360 242 c 0
 360 211 334 189 308 189 c 0
 277 189 255 215 255 242 c 0
EndSplineSet
EndChar
StartChar: Lslash
Encoding: 321 321 131
Width: 625
Flags: MW
LayerCount: 2
Fore
SplineSet
33 0 m 1
 33 31 l 1
 43 31 l 2
 89 31 113 32 125 42 c 4
 133 49 136 59 136 76 c 1
 136 298 l 1
 63 238 l 1
 43 262 l 1
 131 335 136 333 136 354 c 2
 136 607 l 1
 136 623 134 633 125 640 c 0
 114 649 90 652 44 652 c 2
 33 652 l 1
 33 683 l 1
 77 682 122 680 181 680 c 0
 238 680 296 681 353 683 c 1
 353 652 l 1
 342 652 l 2
 280 652 251 650 237 640 c 0
 227 633 225 621 225 603 c 2
 225 413 l 1
 372 534 l 1
 392 510 l 1
 244 388 l 2
 226 373 225 372 225 349 c 2
 225 67 l 2
 225 33 243 31 277 31 c 2
 345 31 l 2
 535 31 544 148 557 258 c 1
 583 258 l 1
 555 0 l 1
 33 0 l 1
EndSplineSet
EndChar
StartChar: lslash
Encoding: 322 322 137
Width: 336
Flags: MW
LayerCount: 2
Fore
SplineSet
59 282 m 1
 127 339 l 2
 132 344 135 347 136 351 c 0
 138 355 138 359 138 364 c 2
 138 590 l 2
 138 648 125 652 60 652 c 1
 60 652 l 1
 60 683 l 1
 205 694 l 1
 205 404 l 1
 276 462 l 1
 296 438 l 1
 216 371 l 2
 211 366 209 363 207 360 c 0
 205 356 205 353 205 348 c 2
 205 73 l 1
 206 55 208 45 218 39 c 0
 228 33 245 31 275 31 c 2
 283 31 l 1
 283 0 l 1
 245 2 207 3 169 3 c 0
 147 3 114 3 60 0 c 1
 60 31 l 1
 67 31 l 2
 96 31 113 32 124 38 c 0
 134 44 138 53 138 70 c 1
 138 307 l 1
 79 258 l 1
 59 282 l 1
EndSplineSet
EndChar
StartChar: Nacute
Encoding: 323 323 483
Width: 750
Flags: MW
LayerCount: 2
Fore
SplineSet
286 765 m 1
 434 857 439 862 453 862 c 0
 456 862 458 862 461 861 c 4
 478 857 488 840 488 825 c 0
 488 802 475 796 414 777 c 0
 395 771 371 764 342 755 c 0
 327 751 312 746 296 742 c 1
 286 765 l 1
33 0 m 1
 33 31 l 1
 48 31 60 32 71 34 c 0
 93 37 107 44 117 52 c 0
 136 68 136 90 136 105 c 2
 136 627 l 2
 136 646 135 647 112 650 c 0
 97 651 77 652 62 652 c 2
 33 652 l 1
 33 683 l 1
 203 683 l 2
 222 683 223 682 232 670 c 2
 585 151 l 1
 585 578 l 2
 585 594 585 616 565 632 c 0
 556 640 542 646 521 649 c 0
 510 651 497 652 482 652 c 1
 482 683 l 1
 517 682 566 680 599 680 c 0
 632 680 681 682 716 683 c 1
 716 652 l 1
 700 652 687 651 676 649 c 0
 658 646 645 640 636 634 c 0
 614 618 613 594 613 578 c 2
 613 26 l 2
 613 7 613 0 599 0 c 0
 592 0 591 1 582 13 c 2
 174 613 l 2
 170 619 169 620 164 625 c 1
 164 105 l 2
 164 90 164 70 181 54 c 0
 191 45 206 37 231 33 c 0
 241 32 253 31 267 31 c 1
 267 0 l 1
 232 1 183 3 150 3 c 0
 117 3 68 1 33 0 c 1
EndSplineSet
EndChar
StartChar: nacute
Encoding: 324 324 497
Width: 555
Flags: W
HStem: 0 31<32 105.404 183.596 257 310 383.404 460.605 535> 400 31<32 102.419> 420 22<265.663 353.632>
VStem: 110 69<34.0171 394.709> 388 69<34.4093 393.263>
LayerCount: 2
Fore
SplineSet
219 510 m 1x12
 345 633 350 642 369 642 c 0
 390 642 404 622 404 605 c 0
 404 582 397 582 275 513 c 0
 262 505 248 497 234 490 c 1
 219 510 l 1x12
32 0 m 1xb8
 32 31 l 1
 99 31 110 31 110 76 c 2
 110 344 l 2
 110 393 102 400 32 400 c 1
 32 431 l 1xd8
 173 442 l 1
 173 337 l 1
 201 399 248 442 321 442 c 0
 379 442 412 422 426 405 c 0
 457 369 457 338 457 252 c 2
 457 61 l 1
 458 31 483 31 535 31 c 1
 535 0 l 1
 501 1 449 3 423 3 c 0
 396 3 345 1 310 0 c 1
 310 31 l 1
 377 31 388 31 388 76 c 2
 388 309 l 2
 388 366 377 420 314 420 c 0
 250 420 179 364 179 260 c 2
 179 76 l 2
 179 31 190 31 257 31 c 1
 257 0 l 1
 223 1 171 3 145 3 c 0
 118 3 67 1 32 0 c 1xb8
EndSplineSet
EndChar
StartChar: Ncommaaccent
Encoding: 325 325 541
Width: 750
Flags: MW
LayerCount: 2
Fore
SplineSet
353 -110 m 0
 353 -90 367 -73 389 -73 c 0
 412 -73 434 -93 434 -145 c 0
 434 -211 390 -281 370 -281 c 0
 367 -281 364 -277 364 -274 c 0
 364 -272.559465245 365.120575806 -270.57939399 367.038881739 -268 c 4
 378.437199551 -252.673585187 418 -216.187615007 418 -146 c 2
 418 -134 l 1
 416.04052188 -135.95947812 414.033641852 -137.681946703 412.000000583 -139.177726083 c 0
 404.693006084 -144.552150699 397.04052188 -147 390 -147 c 0
 371 -147 353 -131 353 -110 c 0
33 0 m 1
 33 31 l 1
 48 31 60 32 71 34 c 0
 93 37 107 44 117 52 c 0
 136 68 136 90 136 105 c 2
 136 627 l 2
 136 646 135 647 112 650 c 0
 97 651 77 652 62 652 c 2
 33 652 l 1
 33 683 l 1
 203 683 l 2
 222 683 223 682 232 670 c 2
 585 151 l 1
 585 578 l 2
 585 594 585 616 565 632 c 0
 556 640 542 646 521 649 c 0
 510 651 497 652 482 652 c 1
 482 683 l 1
 517 682 566 680 599 680 c 0
 632 680 681 682 716 683 c 1
 716 652 l 1
 700 652 687 651 676 649 c 0
 658 646 645 640 636 634 c 0
 614 618 613 594 613 578 c 2
 613 26 l 2
 613 7 613 0 599 0 c 0
 592 0 591 1 582 13 c 2
 174 613 l 2
 170 619 169 620 164 625 c 1
 164 105 l 2
 164 90 164 70 181 54 c 0
 191 45 206 37 231 33 c 0
 241 32 253 31 267 31 c 1
 267 0 l 1
 232 1 183 3 150 3 c 0
 117 3 68 1 33 0 c 1
EndSplineSet
EndChar
StartChar: ncommaaccent
Encoding: 326 326 559
Width: 555
Flags: MW
LayerCount: 2
Fore
SplineSet
253 -110 m 0
 253 -90 267 -73 289 -73 c 0
 312 -73 334 -93 334 -145 c 0
 334 -211 290 -281 270 -281 c 0
 267 -281 264 -277 264 -274 c 0
 264 -272.378604011 265.419619475 -270.073687533 267.798505361 -267 c 4
 280.09145721 -251.116643398 318 -214.704552887 318 -146 c 2
 318 -134 l 1
 316.04052188 -135.95947812 314.033641852 -137.681946703 312.000000583 -139.177726083 c 0
 304.693006084 -144.552150699 297.04052188 -147 290 -147 c 0
 271 -147 253 -131 253 -110 c 0
32 0 m 1
 32 31 l 1
 99 31 110 31 110 76 c 2
 110 344 l 2
 110 393 102 400 32 400 c 1
 32 431 l 1
 173 442 l 1
 173 337 l 1
 201 399 248 442 321 442 c 0
 379 442 412 422 426 405 c 0
 457 369 457 338 457 252 c 2
 457 61 l 1
 458 31 483 31 535 31 c 1
 535 0 l 1
 501 1 449 3 423 3 c 0
 396 3 345 1 310 0 c 1
 310 31 l 1
 377 31 388 31 388 76 c 2
 388 309 l 2
 388 366 377 420 314 420 c 0
 250 420 179 364 179 260 c 2
 179 76 l 2
 179 31 190 31 257 31 c 1
 257 0 l 1
 223 1 171 3 145 3 c 0
 118 3 67 1 32 0 c 1
EndSplineSet
EndChar
StartChar: Ncaron
Encoding: 327 327 484
Width: 750
Flags: MW
LayerCount: 2
Fore
SplineSet
222 919 m 1
 233 935 l 1
 234 935 l 1
 328 880 357 861 372 857 c 4
 374 857 376 856 377 856 c 0
 387 856 461 906 516 935 c 1
 528 919 l 1
 384 797 382 794 375 794 c 0
 363 794 281 872 222 919 c 1
33 0 m 1
 33 31 l 1
 48 31 60 32 71 34 c 0
 93 37 107 44 117 52 c 0
 136 68 136 90 136 105 c 2
 136 627 l 2
 136 646 135 647 112 650 c 0
 97 651 77 652 62 652 c 2
 33 652 l 1
 33 683 l 1
 203 683 l 2
 222 683 223 682 232 670 c 2
 585 151 l 1
 585 578 l 2
 585 594 585 616 565 632 c 0
 556 640 542 646 521 649 c 0
 510 651 497 652 482 652 c 1
 482 683 l 1
 517 682 566 680 599 680 c 0
 632 680 681 682 716 683 c 1
 716 652 l 1
 700 652 687 651 676 649 c 0
 658 646 645 640 636 634 c 4
 614 618 613 594 613 578 c 2
 613 26 l 2
 613 7 613 0 599 0 c 0
 592 0 591 1 582 13 c 2
 174 613 l 2
 170 619 169 620 164 625 c 1
 164 105 l 2
 164 90 164 70 181 54 c 0
 191 45 206 37 231 33 c 0
 241 32 253 31 267 31 c 1
 267 0 l 1
 232 1 183 3 150 3 c 0
 117 3 68 1 33 0 c 1
EndSplineSet
EndChar
StartChar: napostrophe
Encoding: 329 329 529
Width: 601
Flags: MW
LayerCount: 2
Fore
SplineSet
15 683 m 0
 15 709 32 736 68 736 c 0
 105 736 134 700 134 651 c 0
 134 561 58 503 42 503 c 0
 39 503 31 505 31 513 c 0
 31 524 48 525 74 555 c 0
 97 582 111 616 111 652 c 1
 105 646 93 631 67 631 c 0
 38 631 15 652 15 683 c 0
78 0 m 1
 78 31 l 1
 113 31 133 31 144 38 c 0
 154 44 156 55 156 76 c 2
 156 344 l 2
 156 393 148 400 78 400 c 1
 78 431 l 1
 219 442 l 1
 219 337 l 1
 247 399 294 442 367 442 c 0
 411 442 442 432 462 416 c 0
 501 385 503 330 503 276 c 2
 503 61 l 1
 504 45 511 37 526 34 c 4
 539 31 557 31 581 31 c 1
 581 0 l 1
 547 1 495 3 469 3 c 0
 442 3 391 1 356 0 c 1
 356 31 l 1
 387 31 407 31 418 36 c 0
 431 41 434 52 434 76 c 2
 434 309 l 2
 434 366 423 420 360 420 c 0
 296 420 225 364 225 260 c 2
 225 76 l 2
 225 57 227 46 234 40 c 0
 244 31 264 31 303 31 c 1
 303 0 l 1
 269 1 217 3 191 3 c 0
 164 3 113 1 78 0 c 1
EndSplineSet
EndChar
StartChar: Eng
Encoding: 330 330 524
Width: 750
Flags: W
HStem: -205 22<371.243 471.539> -125 112<314 366.852> 0 31<33 108.688 191.359 267> 652 31<33 135.7 482 558.88 640.037 716>
VStem: 136 28<57.819 625> 266 112<-113.975 -24.1494> 585 28<-87.7637 22.375 151 625.122>
LayerCount: 2
Fore
SplineSet
33 0 m 1
 33 31 l 1
 48 31 60 32 71 34 c 0
 93 37 107 44 117 52 c 0
 136 68 136 90 136 105 c 2
 136 627 l 2
 136 646 135 647 112 650 c 0
 97 651 77 652 62 652 c 2
 33 652 l 1
 33 683 l 1
 203 683 l 2
 222 683 223 682 232 670 c 2
 585 151 l 1
 585 578 l 2
 585 594 585 616 565 632 c 0
 556 640 542 646 521 649 c 0
 510 651 497 652 482 652 c 1
 482 683 l 1
 517 682 566 680 599 680 c 0
 632 680 681 682 716 683 c 1
 716 652 l 1
 700 652 687 651 676 649 c 0
 658 646 645 640 636 634 c 0
 614 618 613 594 613 578 c 2
 613 26 l 1
 613 -16 l 2
 613 -49 613 -52 612 -60 c 0
 601 -135 528 -205 426 -205 c 0
 337 -205 266 -145 266 -71 c 0
 266 -27 300 -13 322 -13 c 0
 350 -13 378 -33 378 -69 c 0
 378 -95 366 -125 314 -125 c 1
 350 -183 418 -183 424 -183 c 0
 477 -183 585 -127 585 -35 c 2
 585 9.03173113281 l 2
 584.104807311 10.1986940118 583.113648771 11.5151349724 582 13 c 2
 174 613 l 2
 170 619 169 620 164 625 c 1
 164 105 l 2
 164 90 164 70 181 54 c 0
 191 45 206 37 231 33 c 0
 241 32 253 31 267 31 c 1
 267 0 l 1
 232 1 183 3 150 3 c 0
 117 3 68 1 33 0 c 1
EndSplineSet
EndChar
StartChar: eng
Encoding: 331 331 395
Width: 555
Flags: MW
LayerCount: 2
Fore
SplineSet
31 0 m 1
 31 31 l 1
 41 31 l 2
 71 31 87 32 97 39 c 0
 106 45 109 56 109 74 c 1
 109 333 l 2
 109 394 101 399 31 400 c 1
 31 400 l 1
 31 430 l 1
 173 441 l 1
 173 381 l 1
 174 340 l 1
 190 378 233 441 321 441 c 0
 440 441 456 363 456 298 c 2
 456 65 l 2
 456 52 457 39 457 25 c 0
 457 -171 378 -205 326 -205 c 0
 276 -205 222 -177 222 -126 c 0
 222 -96 245 -79 267 -79 c 0
 291 -79 313 -97 313 -125 c 0
 313 -143 304 -163 277 -170 c 1
 294 -179 310 -182 324 -182 c 0
 385 -182 387 -88 387 10 c 0
 387 26 386 42 386 58 c 2
 386 303 l 2
 386 362 377 418 313 418 c 0
 265 418 190 382 180 277 c 0
 179 269 179 261 179 253 c 2
 179 73 l 2
 179 56 182 45 191 39 c 4
 201 33 219 31 249 31 c 2
 256 31 l 1
 256 0 l 1
 218 2 179 3 140 3 c 2
 136 3 l 2
 122 3 89 3 31 0 c 1
EndSplineSet
EndChar
StartChar: Omacron
Encoding: 332 332 352
Width: 777
Flags: W
HStem: -22 26<341 435 341 479> 680 25<346.5 431.5> 755 40<101 662 114 662 662 664>
VStem: 56 103<236.5 442> 618 103<238 441 238 481>
LayerCount: 2
Fore
SplineSet
84 775 m 0
 84 791 99 795 114 795 c 2
 662 795 l 2
 676 795 692 793 692 775 c 0
 692 758 675 756 664 755 c 1
 113 755 l 2
 89 755 84 767 84 775 c 0
56 339 m 0
 56 545 209 705 388 705 c 0
 570 705 721 543 721 339 c 0
 721 137 570 -22 388 -22 c 0
 210 -22 56 134 56 339 c 0
159 353 m 0
 159 251 179 175 210 121 c 4
 258 37 330 4 389 4 c 0
 443 4 513 33 561 111 c 0
 595 166 618 244 618 353 c 0
 618 458 594 532 559 583 c 0
 510 655 439 680 388 680 c 0
 337 680 262 655 212 575 c 0
 180 525 159 453 159 353 c 0
EndSplineSet
EndChar
StartChar: Ohungarumlaut
Encoding: 336 336 485
Width: 777
Flags: MW
LayerCount: 2
Fore
SplineSet
159 353 m 0
 159 251 179 175 210 121 c 0
 258 37 330 4 389 4 c 0
 443 4 513 33 561 111 c 0
 595 166 618 244 618 353 c 0
 618 458 594 532 559 583 c 0
 510 655 439 680 388 680 c 0
 337 680 262 655 212 575 c 0
 180 525 159 453 159 353 c 0
56 339 m 0
 56 545 209 705 388 705 c 0
 570 705 721 543 721 339 c 0
 721 137 570 -22 388 -22 c 0
 210 -22 56 134 56 339 c 0
258 765 m 1
 406 857 411 862 425 862 c 0
 428 862 430 862 433 861 c 0
 450 857 460 839 460 825 c 0
 460 801 444 794 373 773 c 0
 356 768 336 762 313 755 c 0
 298 750 283 745 268 741 c 1
 258 765 l 1
425 765 m 1
 573 857 578 862 592 862 c 0
 595 862 597 862 600 861 c 4
 617 857 627 839 627 825 c 0
 627 801 611 795 541 774 c 0
 524 769 504 762 480 755 c 0
 465 750 450 745 435 741 c 1
 425 765 l 1
EndSplineSet
EndChar
StartChar: ohungarumlaut
Encoding: 337 337 499
Width: 500
Flags: MW
LayerCount: 2
Fore
SplineSet
111 222 m 0
 111 186 111 125 136 81 c 0
 163 35 207 14 250 14 c 0
 300 14 344 43 366 88 c 0
 388 132 388 186 388 222 c 0
 388 260 388 318 362 361 c 0
 336 404 293 426 249 426 c 0
 209 426 162 405 135 359 c 1
 111 315 111 261 111 222 c 0
28 214 m 0
 28 339 125 448 250 448 c 0
 371 448 471 342 471 214 c 0
 471 87 370 -11 249 -11 c 0
 132 -11 28 85 28 214 c 0
297 510 m 1
 423 633 428 642 447 642 c 0
 468 642 482 622 482 605 c 0
 482 582 475 582 353 513 c 0
 340 505 326 497 312 490 c 1
 297 510 l 1
130 510 m 1
 256 633 261 642 280 642 c 0
 301 642 315 622 315 605 c 0
 315 582 308 582 186 513 c 0
 173 505 159 497 145 490 c 1
 130 510 l 1
EndSplineSet
EndChar
StartChar: OE
Encoding: 338 338 133
Width: 1014
Flags: MW
LayerCount: 2
Fore
SplineSet
69 339 m 0
 69 538 216 705 400 705 c 0
 460 705 491 683 565 683 c 2
 929 683 l 1
 957 458 l 1
 932 458 l 1
 922 531 914 592 869 625 c 1
 830 652 775 652 736 652 c 2
 644 652 l 2
 606 652 591 650 590 615 c 1
 590 370 l 1
 686 370 l 2
 743 370 796 372 808 435 c 0
 811 452 811 470 811 487 c 1
 837 487 l 1
 837 223 l 1
 811 223 l 1
 811 234 l 2
 811 325 777 340 692 340 c 2
 590 340 l 1
 590 70 l 2
 590 33 603 31 647 31 c 2
 740 31 l 2
 817.036052765 31 863.493748601 43.7409820541 893.692271358 72 c 4
 931.702629652 107.569137133 943.953870257 167.72322154 959 258 c 1
 985 258 l 1
 943 0 l 1
 565 0 l 2
 491 0 461 -22 400 -22 c 0
 228 -22 69 130 69 339 c 0
170 353 m 0
 170 167 267 1 403 1 c 0
 508 1 513 66 513 224 c 2
 513 455 l 2
 513 614 510 683 403 683 c 0
 265 683 170 526 170 353 c 0
EndSplineSet
EndChar
StartChar: oe
Encoding: 339 339 139
Width: 778
Flags: MW
LayerCount: 2
Fore
SplineSet
27 219 m 0
 27 334 113 447 241 447 c 0
 310 447 374 410 414 347 c 1
 415 347 l 1
 443 392 498 447 581 447 c 0
 689 447 749 361 749 253 c 0
 749 232 740 230 726 230 c 2
 451 230 l 1
 451 183 454 123 489 75 c 0
 529 20 579 15 598 15 c 0
 660 15 703 64 718 105 c 0
 720 110 723 125 731 128 c 0
 739 132 747 127 747 118 c 0
 747 89 699 -11 593 -11 c 0
 531 -11 472 20 434 67 c 0
 427 75 421 83 416 92 c 1
 376 27 311 -11 241 -11 c 0
 127 -11 27 88 27 219 c 0
105 223 m 0
 105 155 115 121 125 99 c 1
 142 57 178 21 224 13 c 1
 230 13 235 12 241 12 c 0
 278 12 307 27 329 52 c 0
 361 88 377 144 380 201 c 0
 380 209 381 216 381 224 c 0
 381 231 381 240 380 251 c 0
 378 276 374 309 361 338 c 0
 342 380 304 416 257 423 c 0
 252 423 246 424 241 424 c 0
 199 423 169 402 148 378 c 0
 116 340 107 290 106 242 c 0
 105 236 105 229 105 223 c 0
452 252 m 1
 682 252 l 1
 681 279 679 346 648 388 c 0
 637 402 624 413 607 419 c 0
 597 422 588 424 579 424 c 0
 564 424 526 419 496 382 c 4
 475 357 457 316 452 252 c 1
EndSplineSet
EndChar
StartChar: racute
Encoding: 341 341 489
Width: 391
Flags: MW
LayerCount: 2
Fore
SplineSet
146 510 m 1
 274 635 277 642 296 642 c 0
 316 642 331 622 331 605 c 0
 331 582 311 575 262 547 c 0
 181 501 171 495 161 490 c 1
 146 510 l 1
28 0 m 1
 28 31 l 1
 66 31 86 31 96 39 c 0
 104 45 106 56 106 76 c 2
 106 344 l 2
 106 393 98 400 28 400 c 1
 28 431 l 1
 167 442 l 1
 167 332 l 1
 181 375 217 442 290 442 c 0
 333 442 364 413 364 381 c 0
 364 349 339 337 321 337 c 0
 299 337 278 352 278 380 c 0
 278 406 298 418 301 419 c 1
 299 420 297 420 290 420 c 0
 214 420 172 331 172 232 c 2
 172 78 l 2
 172 60 172 48 182 41 c 4
 192 34 211 31 248 31 c 2
 269 31 l 1
 269 0 l 1
 229 3 182 3 142 3 c 0
 114 3 67 1 28 0 c 1
EndSplineSet
EndChar
StartChar: Rcommaaccent
Encoding: 342 342 542
Width: 736
Flags: W
HStem: -147 74<337.545 398.696> -22 22<610.086 672.293> 0 31<35 132.733 229.267 327> 331 22<224 395.674> 652 31<35 132.733 226.047 427.673>
VStem: 138 86<35.9118 331 353 647.041> 399 16<-194.094 -135.622> 507 103<434.977 571.11> 707 25<38.8633 104.992>
LayerCount: 2
Fore
SplineSet
334 -110 m 0x81
 334 -90 348 -73 370 -73 c 0
 393 -73 415 -93 415 -145 c 0
 415 -211 371 -281 351 -281 c 0
 348 -281 345 -277 345 -274 c 0
 345 -272.378604011 346.419619475 -270.073687533 348.798505361 -267 c 4
 361.09145721 -251.116643398 399 -214.704552887 399 -146 c 2
 399 -134 l 1
 396.720005495 -136.279994505 394.375833522 -138.239101667 392.000000586 -139.893579741 c 0
 384.997523013 -144.769951908 377.720005495 -147 371 -147 c 0
 352 -147 334 -131 334 -110 c 0x81
35 0 m 1x7e
 35 31 l 1
 59 31 l 2x7e
 136 31 138 42 138 78 c 2
 138 605 l 2
 138 641 136 652 59 652 c 2
 35 652 l 1
 35 683 l 1
 349 683 l 2
 496 683 610 599 610 503 c 0
 610 425 532 364 435 340 c 1
 490 321 539 288 557 224 c 1
 570 144 l 1
 584 51 592 0 641 0 c 0
 666 0 701 18 707 89 c 0
 708 96 708 105 719 105 c 0
 732 105 732 94 732 88 c 0
 732 60 715 -22 637 -22 c 0xbe
 607 -22 552 -16 511 20 c 1
 470 58 470 98 470 163 c 0
 470 230 470 261 432 297 c 0
 397 331 355 331 339 331 c 2
 224 331 l 1
 224 78 l 2
 224 42 226 31 303 31 c 2
 327 31 l 1
 327 0 l 1
 291 3 220 3 181 3 c 0
 142 3 71 3 35 0 c 1x7e
224 353 m 1
 335 353 l 2
 483 353 507 434 507 503 c 0
 507 648 395 652 305 652 c 0
 285 652 256 652 246 650 c 0
 224 647 224 635 224 612 c 2
 224 353 l 1
EndSplineSet
EndChar
StartChar: rcommaaccent
Encoding: 343 343 560
Width: 391
Flags: MW
LayerCount: 2
Fore
SplineSet
106 -110 m 0
 106 -90 120 -73 142 -73 c 0
 165 -73 187 -93 187 -145 c 0
 187 -211 143 -281 123 -281 c 0
 120 -281 117 -277 117 -274 c 0
 117 -272 119 -270 122 -266 c 4
 135 -250 171 -213 171 -146 c 2
 171 -134 l 1
 169 -136 167 -138 165 -139 c 0
 158 -144 150 -147 143 -147 c 0
 124 -147 106 -131 106 -110 c 0
28 0 m 1
 28 31 l 1
 66 31 86 31 96 39 c 0
 104 45 106 56 106 76 c 2
 106 344 l 2
 106 393 98 400 28 400 c 1
 28 431 l 1
 167 442 l 1
 167 332 l 1
 181 375 217 442 290 442 c 0
 333 442 364 413 364 381 c 0
 364 349 339 337 321 337 c 0
 299 337 278 352 278 380 c 0
 278 406 298 418 301 419 c 1
 299 420 297 420 290 420 c 0
 214 420 172 331 172 232 c 2
 172 78 l 2
 172 60 172 48 182 41 c 4
 192 34 211 31 248 31 c 2
 269 31 l 1
 269 0 l 1
 229 3 182 3 142 3 c 0
 114 3 67 1 28 0 c 1
EndSplineSet
EndChar
StartChar: Sacute
Encoding: 346 346 461
Width: 555
Flags: W
HStem: -22 31<209.13 361.141> 677 28<192.168 326.591> 742 23<181.957 188.461>
VStem: 56 64<475.89 598.859> 56 26<-21.9172 10.2823 133.83 226.995> 435 64<91.9328 231.358> 447 25<456.004 527.912>
LayerCount: 2
Fore
SplineSet
175 765 m 1x24
 323 857 328 862 342 862 c 0
 344.91519105 862 347.672355138 861.648828973 350.262185621 861.000000111 c 0
 367.216964619 856.75232829 377 839.74735237 377 825 c 0
 377 801.980658623 364.047131441 796.035553075 302 776.896265608 c 4
 283.184090541 771.09224064 259.853388977 764.07485621 231 755 c 0
 216 751 201 746 185 742 c 1
 175 765 l 1x24
56 2 m 2xd8
 56 202 l 2
 56 220 56 227 69 227 c 0
 72 227 80 227 81 217 c 0
 82 181 85 117 143 63 c 0
 196 14 272 9 301 9 c 0
 385 9 435 81 435 152 c 0xd8
 435 185 425 218 404 244 c 1
 376 281 346 288 319 295 c 0
 249 312 198 324 187 328 c 0
 109 355 56 428 56 511 c 0
 56 617 140 705 251 705 c 0
 340 705 381 664 411 635 c 1
 446 692 l 2
 453 704 454 705 461 705 c 0
 472 705 472 698 472 681 c 2
 472 480 l 2
 472 461 472 456 459 456 c 0
 448 456 448 462 447 468 c 0
 441 513 419 677 252 677 c 0
 174 677 120 616 120 546 c 0xe4
 120 488 159 434 221 419 c 2
 349 388 l 2
 433 368 499 286 499 186 c 0
 499 76 419 -22 302 -22 c 0
 213 -22 149 14 118 48 c 1
 85 -5 82 -8 82 -9 c 0
 75 -20 74 -22 67 -22 c 0
 56 -22 56 -15 56 2 c 2xd8
EndSplineSet
EndChar
StartChar: sacute
Encoding: 347 347 469
Width: 394
Flags: MW
LayerCount: 2
Fore
SplineSet
133 510 m 1
 259 633 264 642 283 642 c 0
 304 642 318 622 318 605 c 0
 318 582 311 582 189 513 c 0
 176 505 162 497 148 490 c 1
 133 510 l 1
33 13 m 2
 33 145 l 2
 33 163 33 170 46 170 c 0
 56 170 57 166 60 153 c 0
 79 68 115 11 199 11 c 0
 277 11 312 51 312 102 c 0
 312 174 230 190 208 194 c 0
 136 208 108 214 76 240 c 0
 49 262 33 290 33 325 c 0
 33 381 71 448 193 448 c 0
 208 448 249 448 287 420 c 1
 291 423 301 432 304 436 c 0
 317 448 319 448 324 448 c 0
 335 448 335 441 335 424 c 2
 335 323 l 2
 335 304 335 299 322 299 c 0
 320 299 311 299 310 308 c 0
 308 339 303 429 193 429 c 0
 107 429 81 388 81 353 c 0
 81 295 148 282 204 271 c 0
 246 263 285 255 318 223 c 0
 330 211 360 181 360 128 c 0
 360 56 314 -11 199 -11 c 0
 178 -11 133 -10 89 32 c 1
 71 13 71 11 69 9 c 0
 50 -10 49 -11 44 -11 c 0
 33 -11 33 -4 33 13 c 2
EndSplineSet
EndChar
StartChar: Scedilla
Encoding: 350 350 462
Width: 555
Flags: MW
LayerCount: 2
Fore
SplineSet
55 5 m 2
 55 207 l 1
 56 221 61 226 67 226 c 0
 75.665541302 226 78.7409297087 219.325190573 80.5642279782 208.000001005 c 0
 85.0531664377 180.117520194 81.9527046318 124.047295368 136 70 c 0
 181 25 247 9 300 9 c 0
 383 9 434 79 434 151 c 0
 434 214 399 265 350 285 c 0
 327 295 217 317 185 329 c 1
 120 351 55 417 55 511 c 0
 55 613 136 705 251 705 c 0
 346 705 391 656 410 635 c 9
 410 635 l 17
 438.240234375 684.120117188 450.380759192 704 460 704 c 0
 471 704 472 690 471 679 c 1
 471 492 l 2
 471 491 472 488 472 483 c 0
 472 473 470 457 460 457 c 0
 448 457 446 467 445 475 c 0
 430 593 368 677 252 677 c 0
 172 677 120 614 120 547 c 0
 120 488 157 443 203 425 c 0
 226 416 334 394 365 383 c 0
 442 357 499 279 499 185 c 0
 499 85 434 1 340 -19 c 1
 340 -54 l 1
 353 -57 423 -69 423 -126 c 0
 423 -188 344 -204 199 -204 c 2
 186 -204 l 1
 186 -181 l 1
 198 -181 l 2
 293 -181 352 -170 352 -126 c 0
 352 -104 336 -74 270 -71 c 1
 270 -20 l 1
 194 -13 150 16 117 48 c 1
 85 -9 75 -21 67 -21 c 0
 65 -21 64 -20 63 -20 c 0
 55 -17 55 -6 55 5 c 2
EndSplineSet
EndChar
StartChar: scedilla
Encoding: 351 351 471
Width: 394
Flags: MW
LayerCount: 2
Fore
SplineSet
33 11 m 2
 33 139 l 2
 33 153 33 162 40 166 c 0
 45 169 50 168 54 165 c 0
 69 153 69 12 200 12 c 0
 297 12 311 65 311 100 c 0
 311 144 279 170 249 182 c 0
 220 194 169 198 135 208 c 0
 104.567096187 217.200645339 66.1198137079 237.921960009 46.2461774599 273 c 0
 38.039471329 287.485279003 33 304.418710593 33 324 c 0
 33 373 55 447 192 447 c 0
 240 447 264 435 288 419 c 1
 298 428 313 445 324 445 c 0
 332.662488723 445 335.123431093 437.558144375 335.778167365 430.00000022 c 4
 335.954843314 427.96048851 336 425.912509226 336 424 c 2
 336 324 l 2
 336 305 330 299 324 299 c 0
 320 299 317 301 314 303 c 0
 305 313 320 427 192 427 c 0
 189.616869168 427 187.283872602 426.971719132 185 426.916102517 c 0
 97.199005371 424.77798236 82 382.23942633 82 353 c 0
 82 275 199 277 253 260 c 0
 304 244 361 201 361 126 c 0
 361 -9 232 -7 232 -10 c 2
 232 -54 l 1
 244 -56 315 -68 315 -126 c 0
 315 -188 238 -204 92 -204 c 2
 78 -204 l 1
 78 -181 l 1
 90 -181 l 2
 156 -181 244 -179 244 -126 c 0
 244 -104 228 -74 162 -71 c 1
 162 -7 l 1
 131 -1 113 11 89 33 c 9
 89 33 l 17
 72.7666015625 13.6845703125 55.0998575496 -9 44 -9 c 0
 34 -9 33 2 33 11 c 2
EndSplineSet
EndChar
StartChar: scaron
Encoding: 353 353 220
Width: 394
Flags: W
HStem: -11 22<143.93 258.167> 429 19<133.425 245.344>
VStem: 33 48<307.481 392.947> 33 27<108.332 169.988> 310 25<299.004 367.549> 312 48<51.5869 155.881>
LayerCount: 2
Fore
SplineSet
33 13 m 2xd4
 33 145 l 2
 33 163 33 170 46 170 c 0
 56 170 57 166 60 153 c 0
 79 68 115 11 199 11 c 0
 277 11 312 51 312 102 c 0xd4
 312 174 230 190 208 194 c 0
 136 208 108 214 76 240 c 0
 49 262 33 290 33 325 c 0
 33 381 71 448 193 448 c 0
 208 448 249 448 287 420 c 1
 291 423 301 432 304 436 c 0
 317 448 319 448 324 448 c 0
 335 448 335 441 335 424 c 2
 335 323 l 2
 335 304 335 299 322 299 c 0
 320 299 311 299 310 308 c 0
 308 339 303 429 193 429 c 0
 107 429 81 388 81 353 c 0xe8
 81 295 148 282 204 271 c 0
 246 263 285 255 318 223 c 0
 330 211 360 181 360 128 c 0
 360 56 314 -11 199 -11 c 0
 178 -11 133 -10 89 32 c 1
 71 13 71 11 69 9 c 0
 50 -10 49 -11 44 -11 c 0
 33 -11 33 -4 33 13 c 2xd4
31 631 m 1x20
 31 631 l 1
 44 646 l 1
 44 646 l 1
 178 556 177 556 184 556 c 0
 195 556 214 573 325 646 c 1
 325 646 l 1
 337 631 l 1
 337 631 l 1
 185 484 l 1
 184 484 l 1
 31 631 l 1x20
EndSplineSet
EndChar
StartChar: Tcedilla
Encoding: 354 354 488
Width: 722
Flags: MW
LayerCount: 2
Fore
SplineSet
35 452 m 1
 55 678 l 1
 665 678 l 1
 685 452 l 1
 660 452 l 1
 648 584 642 647 496 647 c 2
 457 647 l 2
 423 647 405 646 405 609 c 2
 405 78 l 2
 405 57 409 46 428 39 c 4
 446 33 476 31 528 31 c 2
 550 31 l 1
 550 0 l 1
 395 3 l 1
 395 -54 l 1
 409 -57 478 -69 478 -126 c 0
 478 -188 400 -204 255 -204 c 2
 242 -204 l 1
 242 -181 l 1
 254 -181 l 2
 348 -181 408 -170 408 -127 c 0
 408 -105 391 -74 325 -71 c 1
 325 3 l 1
 170 0 l 1
 170 31 l 1
 193 31 l 2
 254 31 286 32 302 43 c 0
 312 50 316 61 316 78 c 0
 316 82 315 86 315 90 c 2
 315 595 l 2
 315 597 316 600 316 602 c 0
 316 646 307 647 258 647 c 2
 225 647 l 2
 164 647 127 637 104 614 c 0
 73 584 67 531 60 452 c 1
 35 452 l 1
EndSplineSet
EndChar
StartChar: tcedilla
Encoding: 355 355 502
Width: 389
Flags: W
HStem: -204 23<122 244.504> 400 30<173 315> 400 22<18 60.7782>
VStem: 103 70<35.3884 400> 148 25<529.904 615> 205 70<-58.9704 -9> 287 71<-160.989 -87.6473> 307 25<59.375 181>
LayerCount: 2
Fore
SplineSet
18 400 m 1xeb
 18 422 l 1xeb
 121 428 146 539 148 615 c 1
 173 615 l 1
 173 430 l 1xd6
 315 430 l 1
 315 400 l 1
 173 400 l 1
 173 122 l 2
 173 86.0203799807 178.0026545 53.5041361535 194.45335795 34.0000010382 c 0
 204.521578258 22.0630082016 218.877928638 15 239 15 c 0
 279 15 303 57 306 110 c 0
 307 119 307 129 307 138 c 2
 307 181 l 1
 332 181 l 1
 332 137 l 2xda80
 332 82 324 31 275 -1 c 1
 275 -1 l 1
 275 -54 l 1
 290 -57 358 -69 358 -126 c 0
 358 -199 235 -204 164 -204 c 2
 122 -204 l 1
 122 -181 l 1
 134 -181 l 2
 229 -181 287 -170 287 -126 c 0
 287 -104 270 -74 205 -71 c 1
 205 -9 l 1
 204 -9 l 1
 104 6 103 87 103 136 c 2
 103 400 l 1
 18 400 l 1xeb
EndSplineSet
EndChar
StartChar: Tcaron
Encoding: 356 356 463
Width: 722
Flags: MW
LayerCount: 2
Fore
SplineSet
208 919 m 1
 219 935 l 1
 220 935 l 1
 313.189719503 880.492805574 343.001497272 860.766188928 357 856.794283387 c 4
 358.924297524 856.248287279 360.549779566 856 362 856 c 0
 372 856 449 907 502 935 c 1
 513 919 l 1
 370 797 368 794 360 794 c 0
 349 794 266 872 208 919 c 1
36 452 m 1
 55 677 l 1
 666 677 l 1
 685 452 l 1
 660 452 l 1
 646 613 631 646 480 646 c 0
 461 646 434 646 423 644 c 0
 405 640 405 626 405 606 c 2
 405 79 l 2
 405 45 405 31 510 31 c 2
 550 31 l 1
 550 0 l 1
 509 3 406 3 360 3 c 0
 314 3 212 3 171 0 c 1
 171 31 l 1
 211 31 l 2
 316 31 316 45 316 79 c 2
 316 606 l 2
 316 629 316 640 295 644 c 0
 285 646 259 646 241 646 c 0
 90 646 75 613 61 452 c 1
 36 452 l 1
EndSplineSet
EndChar
StartChar: tcaron
Encoding: 357 357 472
Width: 389
Flags: MW
LayerCount: 2
Fore
SplineSet
263 668 m 0
 263 693 281 720 316 720 c 0
 353 720 382 684 382 636 c 0
 382 545 306 487 290 487 c 0
 287 487 279 489 279 497 c 0
 279 510 296 509 322 539 c 0
 346 566 359 601 359 637 c 1
 353 630 342 615 315 615 c 0
 285 615 263 639 263 668 c 0
19 400 m 1
 19 422 l 1
 117 426 147 533 148 615 c 1
 173 615 l 1
 173 431 l 1
 316 431 l 1
 316 400 l 1
 173 400 l 1
 173 122 l 2
 173 105 173 14 240 14 c 0
 277 14 307 52 307 126 c 2
 307 181 l 1
 332 181 l 1
 332 124 l 2
 332 60 304 -11 233 -11 c 0
 197 -11 104 1 104 124 c 2
 104 400 l 1
 19 400 l 1
EndSplineSet
EndChar
StartChar: Tbar
Encoding: 358 358 525
Width: 722
Flags: W
HStem: 0 31<171 211> 3 28 334 32<199 316 213 316 213 316 405 512 512 515> 646 31<165.5 277 443 555.5>
VStem: 36 25<452 452> 316 89<79 334 366 606> 660 25<452 452>
LayerCount: 2
Fore
SplineSet
36 452 m 1xbe
 55 677 l 1
 666 677 l 1
 685 452 l 1
 660 452 l 1
 646 613 631 646 480 646 c 0
 406 646 405 645 405 606 c 2
 405 366 l 1
 512 366 l 2
 527 366 541 365 541 350 c 0
 541 336 528 334 515 334 c 2
 405 334 l 1
 405 79 l 2
 405 45 405 31 510 31 c 2
 550 31 l 1
 550 0 l 1xbe
 509 3 406 3 360 3 c 0x7e
 314 3 212 3 171 0 c 1
 171 31 l 1
 211 31 l 2
 316 31 316 45 316 79 c 2
 316 334 l 1
 206 334 l 2
 192 334 181 336 181 350 c 0
 181 364 193 366 213 366 c 2
 316 366 l 1
 316 606 l 2
 316 645 313 646 241 646 c 0
 90 646 75 613 61 452 c 1
 36 452 l 1xbe
EndSplineSet
EndChar
StartChar: tbar
Encoding: 359 359 530
Width: 388
Flags: W
HStem: -11 25<215 258.5 206.5 268.5> 268 32<37 104 51 104 51 104 173 287 287 290> 400 22<19 104 19 19> 400 31<173 316 173 316>
VStem: 104 69<124 268 300 400> 148 25<615 615> 307 25<126 181>
LayerCount: 2
Fore
SplineSet
19 284 m 0xda
 19 298 31 300 51 300 c 2
 104 300 l 1
 104 400 l 1
 19 400 l 1
 19 422 l 1xea
 117 426 147 533 148 615 c 1
 173 615 l 1
 173 431 l 1xd6
 316 431 l 1
 316 400 l 1
 173 400 l 1
 173 300 l 1
 287 300 l 2
 302 300 316 299 316 284 c 0
 316 270 303 268 290 268 c 2
 173 268 l 1
 173 122 l 2
 173 105 173 14 240 14 c 0
 277 14 307 52 307 126 c 2
 307 181 l 1
 332 181 l 1
 332 124 l 2
 332 60 304 -11 233 -11 c 0
 197 -11 104 1 104 124 c 2
 104 268 l 1
 44 268 l 2
 30 268 19 270 19 284 c 0xda
EndSplineSet
EndChar
StartChar: Utilde
Encoding: 360 360 364
Width: 750
Flags: MW
LayerCount: 2
Fore
SplineSet
239 809 m 1
 273 849 294 880 332 880 c 0
 376 880 409 844 453 844 c 0
 485 844 506 868 518 880 c 1
 539 862 l 1
 506 822 485 791 446 791 c 0
 403 791 369 827 325 827 c 0
 293 827 273 803 261 791 c 1
 239 809 l 1
33 652 m 1
 33 683 l 1
 68 680 143 680 181 680 c 0
 219 680 293 680 328 683 c 1
 328 652 l 1
 304 652 l 2
 263 652 244 649 234 641 c 4
 225 634 225 622 225 605 c 2
 225 224 l 2
 225 34 343 9 390 9 c 0
 485 9 582 89 582 231 c 2
 582 578 l 2
 582 595 581 620 556 636 c 0
 545 643 531 648 510 650 c 0
 501 651 491 652 479 652 c 1
 479 683 l 1
 515 682 563 680 598 680 c 0
 632 680 680 682 716 683 c 1
 716 652 l 1
 704 652 693 651 684 650 c 0
 661 647 646 642 635 634 c 0
 613 618 613 594 613 574 c 2
 613 254 l 2
 613 214 613 205 610 185 c 0
 593 71 503 -22 388 -22 c 0
 252 -22 136 87 136 228 c 2
 136 605 l 2
 136 623 136 635 126 642 c 0
 116 650 96 652 57 652 c 2
 33 652 l 1
EndSplineSet
EndChar
StartChar: utilde
Encoding: 361 361 376
Width: 555
Flags: W
HStem: -11 22<215.4 313.528> 0 31<464.581 535> 400 31<32 101.966 310 380.419> 422 20G<32 179 310 457> 539 52<264.278 375.361> 574 53<161.979 274.238>
VStem: 110 69<41.2321 394.985> 388 69<36.2905 394.709>
LayerCount: 2
Fore
SplineSet
119 556 m 1x2a
 152 597 173 627 212 627 c 0x2a
 255 627 289 591 333 591 c 0x32
 365 591 385 615 397 627 c 1x2a
 419 609 l 1
 385 569 364 539 326 539 c 0x32
 282 539 249 574 205 574 c 0
 173 574 152 551 140 538 c 1
 119 556 l 1x2a
32 400 m 1xbc
 32 431 l 1
 179 442 l 1
 179 110 l 2
 179 58 183 11 267 11 c 0xbc
 340 11 388 79 388 166 c 2
 388 344 l 2
 388 393 380 400 310 400 c 1
 310 431 l 1
 457 442 l 1
 457 87 l 2
 457 38 465 31 535 31 c 1
 535 0 l 1x7c
 391 -11 l 1
 391 79 l 1
 362 17 318 -11 262 -11 c 0
 110 -11 110 80 110 158 c 2
 110 308 l 2
 110 397 110 400 32 400 c 1xbc
EndSplineSet
EndChar
StartChar: Umacron
Encoding: 362 362 350
Width: 750
Flags: W
HStem: -22 31<366.5 437.5 366.5 445.5> 652 31<33 33 33 57> 755 40<87 648 100 648 648 650>
VStem: 136 89<228 605> 582 31<234 254 254 574>
LayerCount: 2
Fore
SplineSet
70 775 m 0
 70 791 85 795 100 795 c 2
 648 795 l 2
 662 795 678 793 678 775 c 0
 678 758 661 756 650 755 c 1
 99 755 l 2
 75 755 70 767 70 775 c 0
33 652 m 1
 33 683 l 1
 68 680 143 680 181 680 c 0
 219 680 293 680 328 683 c 1
 328 652 l 1
 304 652 l 2
 227 652 225 641 225 605 c 2
 225 224 l 2
 225 34 343 9 390 9 c 0
 485 9 582 89 582 231 c 2
 582 578 l 2
 582 595 581 620 556 636 c 0
 545 643 531 648 510 650 c 0
 501 651 491 652 479 652 c 1
 479 683 l 1
 515 682 563 680 598 680 c 0
 632 680 680 682 716 683 c 1
 716 652 l 1
 704 652 693 651 684 650 c 0
 661 647 646 642 635 634 c 4
 613 618 613 594 613 574 c 2
 613 254 l 2
 613 214 613 205 610 185 c 0
 593 71 503 -22 388 -22 c 0
 252 -22 136 87 136 228 c 2
 136 605 l 2
 136 641 134 652 57 652 c 2
 33 652 l 1
EndSplineSet
EndChar
StartChar: umacron
Encoding: 363 363 345
Width: 555
Flags: W
HStem: -11 22<225 290> 0 31<500 535> 400 31<32 71> 537 32<102 462 102 462>
VStem: 110 69<158 308 308 352.5> 388 69<166 344 344 368.5> 391 66<62.5 79 79 79>
LayerCount: 2
Fore
SplineSet
102 537 m 1x10
 102 569 l 1
 462 569 l 1
 462 537 l 1
 102 537 l 1x10
32 400 m 1xbc
 32 431 l 1
 179 442 l 1
 179 110 l 2
 179 58 183 11 267 11 c 0xbc
 340 11 388 79 388 166 c 2
 388 344 l 2
 388 393 380 400 310 400 c 1
 310 431 l 1
 457 442 l 1
 457 87 l 2
 457 38 465 31 535 31 c 1
 535 0 l 1x7c
 391 -11 l 1
 391 79 l 1
 362 17 318 -11 262 -11 c 0
 110 -11 110 80 110 158 c 2
 110 308 l 2
 110 397 110 400 32 400 c 1xbc
EndSplineSet
EndChar
StartChar: Ubreve
Encoding: 364 364 509
Width: 750
Flags: W
HStem: -22 31<325.06 459.728> 652 31<33 130.733 230.267 328 479 554.96 638.758 716> 755 38<298.381 449.937>
VStem: 136 89<129.453 647.088> 224 23<853.044 891> 502 22<853.253 891> 582 31<143.375 626.809>
LayerCount: 2
Fore
SplineSet
224 891 m 1x2c
 247 891 l 1
 253 806 343 793 375 793 c 0
 404 793 496 806 502 891 c 1
 524 891 l 1
 521 803 448 755 374 755 c 0
 300 755 228 804 224 891 c 1x2c
33 652 m 1
 33 683 l 1
 68 680 143 680 181 680 c 0
 219 680 293 680 328 683 c 1
 328 652 l 1
 304 652 l 2
 227 652 225 641 225 605 c 2
 225 224 l 2
 225 34 343 9 390 9 c 0
 485 9 582 89 582 231 c 2
 582 578 l 2
 582 595 581 620 556 636 c 0
 545 643 531 648 510 650 c 0
 501 651 491 652 479 652 c 1
 479 683 l 1
 515 682 563 680 598 680 c 0
 632 680 680 682 716 683 c 1
 716 652 l 1
 704 652 693 651 684 650 c 0
 661 647 646 642 635 634 c 4
 613 618 613 594 613 574 c 2
 613 254 l 2
 613 214 613 205 610 185 c 0
 593 71 503 -22 388 -22 c 0
 252 -22 136 87 136 228 c 2
 136 605 l 2
 136 641 134 652 57 652 c 2
 33 652 l 1
EndSplineSet
EndChar
StartChar: ubreve
Encoding: 365 365 515
Width: 555
Flags: MW
LayerCount: 2
Fore
SplineSet
132 633 m 1
 155 633 l 1
 161 548 251 535 283 535 c 0
 312 535 404 548 410 633 c 1
 432 633 l 1
 429 545 356 497 282 497 c 0
 208 497 136 546 132 633 c 1
32 400 m 1
 32 431 l 1
 179 442 l 1
 179 110 l 2
 179 78 181 48 201 30 c 4
 214 18 234 11 267 11 c 0
 340 11 388 79 388 166 c 2
 388 344 l 2
 388 393 380 400 310 400 c 1
 310 431 l 1
 457 442 l 1
 457 87 l 2
 457 38 465 31 535 31 c 1
 535 0 l 1
 391 -11 l 1
 391 79 l 1
 362 17 318 -11 262 -11 c 0
 217 -11 185 -3 163 10 c 0
 110 41 110 103 110 158 c 2
 110 308 l 2
 110 397 110 400 32 400 c 1
EndSplineSet
EndChar
StartChar: Uring
Encoding: 366 366 363
Width: 750
Flags: MW
LayerCount: 2
Fore
SplineSet
308 822 m 0
 308 871 350 913 404 913 c 0
 452 913 500 876 500 821 c 0
 500 767 452 730 404 730 c 0
 355 730 308 768 308 822 c 0
334 822 m 0
 334 767 370 753 403 753 c 0
 406 753 409 753 412 753 c 0
 461 757 474 791 474 822 c 0
 474 877 437 891 404 891 c 0
 401 891 398 891 395 891 c 4
 346 887 334 853 334 822 c 0
33 652 m 1
 33 683 l 1
 68 680 143 680 181 680 c 0
 219 680 293 680 328 683 c 1
 328 652 l 1
 304 652 l 2
 227 652 225 641 225 605 c 2
 225 224 l 2
 225 34 343 9 390 9 c 0
 485 9 582 89 582 231 c 2
 582 578 l 2
 582 595 581 620 556 636 c 0
 545 643 531 648 510 650 c 0
 501 651 491 652 479 652 c 1
 479 683 l 1
 515 682 563 680 598 680 c 0
 632 680 680 682 716 683 c 1
 716 652 l 1
 704 652 693 651 684 650 c 0
 661 647 646 642 635 634 c 0
 613 618 613 594 613 574 c 2
 613 254 l 2
 613 214 613 205 610 185 c 0
 593 71 503 -22 388 -22 c 0
 252 -22 136 87 136 228 c 2
 136 605 l 2
 136 641 134 652 57 652 c 2
 33 652 l 1
EndSplineSet
EndChar
StartChar: uring
Encoding: 367 367 375
Width: 555
Flags: MW
LayerCount: 2
Fore
SplineSet
187 580 m 0
 187 621 226 661 282 661 c 0
 328 661 378 631 378 580 c 0
 378 540 339 500 283 500 c 0
 237 500 187 530 187 580 c 0
212 580 m 0
 212 559 220 522 281 522 c 0
 283.755956596 522 286.422028024 522.064604965 289.000000722 522.192177326 c 0
 335.063788382 524.471668543 353 546.854970786 353 580 c 0
 353 602 345 638 284 638 c 0
 280.886109409 638 277.886968104 637.917523951 274.999999281 637.754933923 c 4
 229.676417849 635.202373496 212 612.904112102 212 580 c 0
32 400 m 1
 32 431 l 1
 179 442 l 1
 179 110 l 2
 179 58 183 11 267 11 c 0
 340 11 388 79 388 166 c 2
 388 344 l 2
 388 393 380 400 310 400 c 1
 310 431 l 1
 457 442 l 1
 457 87 l 2
 457 38 465 31 535 31 c 1
 535 0 l 1
 391 -11 l 1
 391 79 l 1
 362 17 318 -11 262 -11 c 0
 110 -11 110 80 110 158 c 2
 110 308 l 2
 110 397 110 400 32 400 c 1
EndSplineSet
EndChar
StartChar: Uhungarumlaut
Encoding: 368 368 487
Width: 750
Flags: MW
LayerCount: 2
Fore
SplineSet
33 652 m 1
 33 683 l 1
 68 680 143 680 181 680 c 0
 219 680 293 680 328 683 c 1
 328 652 l 1
 304 652 l 2
 227 652 225 641 225 605 c 2
 225 224 l 2
 225 34 343 9 390 9 c 0
 485 9 582 89 582 231 c 2
 582 578 l 2
 582 595 581 620 556 636 c 0
 545 643 531 648 510 650 c 0
 501 651 491 652 479 652 c 1
 479 683 l 1
 515 682 563 680 598 680 c 0
 632 680 680 682 716 683 c 1
 716 652 l 1
 704 652 693 651 684 650 c 0
 661 647 646 642 635 634 c 0
 613 618 613 594 613 574 c 2
 613 254 l 2
 613 214 613 205 610 185 c 0
 593 71 503 -22 388 -22 c 0
 252 -22 136 87 136 228 c 2
 136 605 l 2
 136 641 134 652 57 652 c 2
 33 652 l 1
411 765 m 1
 559 857 564 862 578 862 c 0
 580.84891143 862 583.546899995 861.647846647 586.085279514 861.000000105 c 4
 603.148895632 856.645015124 613 838.928064414 613 825 c 0
 613 801.575593828 597.758255431 795.221941574 533 775.472584311 c 0
 514.821354119 769.928633664 492.740748236 763.329085516 466 755 c 0
 451 750 436 745 421 741 c 1
 411 765 l 1
244 765 m 1
 393 857 398 862 412 862 c 0
 414.84891143 862 417.530130787 861.647846647 420.039314982 861.000000105 c 0
 436.906672891 856.645015124 446 838.928064414 446 825 c 0
 446 801.834853192 431.690025956 795.364676102 369 776.123455436 c 0
 350.503371096 770.446352694 327.795069648 763.65748071 300 755 c 0
 285 750 270 745 255 741 c 1
 244 765 l 1
EndSplineSet
EndChar
StartChar: uhungarumlaut
Encoding: 369 369 501
Width: 555
Flags: MW
LayerCount: 2
Fore
SplineSet
32 400 m 1
 32 431 l 1
 179 442 l 1
 179 110 l 2
 179 78 181 48 201 30 c 4
 214 18 234 11 267 11 c 0
 340 11 388 79 388 166 c 2
 388 344 l 2
 388 393 380 400 310 400 c 1
 310 431 l 1
 457 442 l 1
 457 87 l 2
 457 38 465 31 535 31 c 1
 535 0 l 1
 391 -11 l 1
 391 79 l 1
 362 17 318 -11 262 -11 c 0
 217 -11 185 -3 163 10 c 0
 110 41 110 103 110 158 c 2
 110 308 l 2
 110 397 110 400 32 400 c 1
331 510 m 1
 457 633 462 642 481 642 c 0
 502 642 516 622 516 605 c 0
 516 582 509 582 387 513 c 0
 374 505 360 497 346 490 c 1
 331 510 l 1
164 510 m 1
 290 633 295 642 314 642 c 0
 335 642 349 622 349 605 c 0
 349 582 342 582 220 513 c 0
 207 505 193 497 179 490 c 1
 164 510 l 1
EndSplineSet
EndChar
StartChar: Uogonek
Encoding: 370 370 543
Width: 750
Flags: MW
LayerCount: 2
Fore
SplineSet
33 652 m 1
 33 683 l 1
 68 680 143 680 181 680 c 0
 219 680 293 680 328 683 c 1
 328 652 l 1
 304 652 l 2
 227 652 225 641 225 605 c 2
 225 224 l 2
 225 34 343 9 390 9 c 0
 485 9 582 89 582 231 c 2
 582 578 l 2
 582 596 582 622 553 638 c 0
 543 644 529 648 510 650 c 0
 501 651 491 652 479 652 c 1
 479 683 l 1
 515 682 563 680 598 680 c 0
 632 680 680 682 716 683 c 1
 716 652 l 1
 703 652 692 651 682 650 c 0
 664 648 651 643 641 638 c 4
 613 622 613 595 613 574 c 2
 613 254 l 2
 613 214 613 205 610 185 c 0
 593 71 503 -22 388 -22 c 0
 380 -22 373 -21 366 -21 c 1
 345 -42 328 -64 328 -94 c 0
 328 -140 373 -171 410 -171 c 0
 465 -171 473 -116 487 -116 c 0
 491 -116 496 -118 496 -127 c 0
 496 -151 460 -217 391 -217 c 0
 339 -217 283 -180 283 -118 c 0
 283 -97 291 -60 335 -16 c 1
 223 7 136 105 136 228 c 2
 136 605 l 2
 136 641 134 652 57 652 c 2
 33 652 l 1
EndSplineSet
EndChar
